<?xml version="1.0" standalone="no"?>
<!DOCTYPE svg PUBLIC "-//W3C//DTD SVG 1.1//EN" "http://www.w3.org/Graphics/SVG/1.1/DTD/svg11.dtd" >
<svg xmlns="http://www.w3.org/2000/svg">
<metadata></metadata>
<defs>
<font id="gobold_italicitalic" horiz-adv-x="1053" >
<font-face units-per-em="2048" ascent="1638" descent="-410" />
<missing-glyph horiz-adv-x="508" />
<glyph horiz-adv-x="0" />
<glyph unicode="&#xd;" horiz-adv-x="508" />
<glyph unicode=" "  horiz-adv-x="508" />
<glyph unicode="&#x09;" horiz-adv-x="508" />
<glyph unicode="&#xa0;" horiz-adv-x="508" />
<glyph unicode="!" horiz-adv-x="565" d="M120 0l63 325h325l-63 -325h-325zM244 530l257 1432h325l-299 -1432h-283z" />
<glyph unicode="&#x22;" horiz-adv-x="968" d="M409 1311l93 652h296l-161 -652h-228zM841 1311l93 652h296l-161 -652h-228z" />
<glyph unicode="#" horiz-adv-x="1349" d="M108 0l287 730h-173l30 153h204l101 257h-213l29 153h244l264 670h237l-264 -670h245l264 670h237l-264 -670h184l-29 -153h-215l-101 -257h224l-30 -153h-255l-287 -730h-237l287 730h-245l-287 -730h-237zM693 883h245l101 257h-245z" />
<glyph unicode="$" d="M201 413l51 263h283l-51 -263q-26 -133 97 -133t149 133l43 223q28 143 -200 332q-228 190 -175 461l36 184q69 358 368 404l35 176h232l-35 -176q282 -46 213 -404l-51 -264h-284l51 264q26 132 -96 133h-2q-122 0 -148 -133l-35 -178q-25 -132 203 -321t177 -453 l-48 -248q-70 -359 -370 -404l-46 -239h-232l46 239q-281 46 -211 404z" />
<glyph unicode="%" horiz-adv-x="1697" d="M335 1079l137 704q47 242 286 242q238 0 191 -242l-137 -704q-47 -242 -285 -242q-239 0 -192 242zM383 0l1105 1963h175l-1104 -1963h-176zM501 1079q-15 -78 58 -78q72 0 87 78l137 704q15 78 -57 78h-2q-71 0 -86 -78zM1143 243l136 704q47 242 285 242 q239 0 192 -242l-136 -704q-48 -242 -287 -242h-2q-236 0 -188 242zM1309 243q-16 -78 56 -78q73 0 89 78l136 704q16 78 -56 78h-2q-71 0 -87 -78z" />
<glyph unicode="&#x26;" horiz-adv-x="1183" d="M200 413l64 327q37 193 208 273q-140 80 -102 273l57 295q80 413 485 413q408 0 328 -413l-16 -84h-283l16 84q23 120 -95 135q-128 -12 -152 -135l-57 -295q-18 -94 52 -125q19 -8 64 -9h105l26 134h283l-26 -134h180l-55 -279h-180l-89 -460q-80 -412 -490 -412 q-403 0 -323 412zM483 413q-27 -137 95 -134q126 1 152 134l89 460h-105q-45 -1 -66 -9q-83 -30 -101 -124z" />
<glyph unicode="'" horiz-adv-x="536" d="M409 1311l93 652h296l-161 -652h-228z" />
<glyph unicode="(" horiz-adv-x="544" d="M152 166l318 1632q79 407 474 412l-45 -232q-112 -3 -138 -134l-335 -1725q-25 -130 85 -133l-45 -233q-393 5 -314 413z" />
<glyph unicode=")" horiz-adv-x="544" d="M-18 -247l45 233q112 3 137 133l335 1725q26 131 -85 134l46 232q393 -5 314 -412l-318 -1632q-79 -408 -474 -413z" />
<glyph unicode="*" horiz-adv-x="1012" d="M447 1679q5 27 22 61q49 97 117 97q30 0 65 -19q54 -32 147 -159q-57 160 -52 226q1 12 3 23q20 104 146 105h4q125 0 106 -99q-3 -16 -9 -34q-26 -69 -139 -219q151 133 217 161q36 16 64 16q67 0 81 -95q5 -36 -1 -65q-15 -81 -118 -96q-17 -2 -38 -2q-70 0 -196 26 q151 -78 187 -127q30 -40 22 -79q-10 -51 -83 -98q-57 -37 -97 -37q-55 0 -76 71q-19 62 -6 234q-58 -182 -102 -240q-48 -64 -102 -64q-38 0 -80 34q-58 48 -48 98q8 41 60 84q59 49 230 120q-135 -25 -205 -25q-27 0 -44 4q-91 18 -75 98z" />
<glyph unicode="+" horiz-adv-x="1047" d="M288 865l45 233h288l56 287h232l-56 -287h287l-45 -233h-287l-56 -287h-232l56 287h-288z" />
<glyph unicode="," horiz-adv-x="591" d="M116 -327l122 327h-118l63 325h351l-56 -287l-179 -365h-183z" />
<glyph unicode="-" horiz-adv-x="786" d="M213 841l45 233h686l-45 -233h-686z" />
<glyph unicode="." horiz-adv-x="565" d="M120 0l63 325h325l-63 -325h-325z" />
<glyph unicode="/" horiz-adv-x="748" d="M60 0l773 1963h237l-773 -1963h-237z" />
<glyph unicode="0" d="M194 381l233 1200q81 413 487 413q407 0 326 -413l-233 -1200q-80 -412 -487 -412q-406 0 -326 412zM477 381q-26 -133 97 -133q124 0 150 133l233 1200q26 133 -97 133h-2q-122 0 -148 -133z" />
<glyph unicode="1" horiz-adv-x="1073" d="M130 0l54 279h265l273 1404h-265l54 279h548l-327 -1683h265l-54 -279h-813z" />
<glyph unicode="2" horiz-adv-x="1073" d="M130 0l82 421q51 265 352 454q302 189 328 321l75 385q26 133 -96 133h-2q-123 0 -149 -133l-51 -263h-283l51 263q81 413 487 413q407 0 326 -413l-76 -392q-52 -270 -354 -460q-302 -189 -330 -332l-23 -118h530l-54 -279h-813z" />
<glyph unicode="3" horiz-adv-x="1073" d="M204 381l51 263h283l-51 -263q-26 -133 96 -133h2q123 1 149 133l61 313q21 107 -20 127q-22 10 -72 10h-93l54 279h115q40 0 62 12q41 21 60 120l66 339q26 132 -97 133h-2q-122 0 -148 -133l-51 -263h-283l51 263q80 412 486 412q407 0 327 -412l-66 -341 q-37 -193 -208 -273q139 -80 102 -273l-61 -313q-80 -412 -487 -412q-406 0 -326 412z" />
<glyph unicode="4" horiz-adv-x="1073" d="M145 481l48 248l736 1233h361l-234 -1202h109l-54 -279h-109l-93 -481h-283l93 481h-574zM478 760h295l146 749z" />
<glyph unicode="5" horiz-adv-x="1073" d="M204 381l45 232h283l-45 -232q-26 -133 96 -133h2q123 1 149 133l108 557q21 104 -20 123q-22 11 -75 11q-13 0 -27 -1q-87 -4 -111 -77l-18 -79h-283l245 1047h771l-54 -279h-499l-102 -422q88 83 212 83q17 0 35 -2q145 -13 202 -119q46 -86 7 -285l-108 -557 q-80 -412 -487 -412q-406 0 -326 412z" />
<glyph unicode="6" horiz-adv-x="1073" d="M204 381l233 1200q81 413 487 413q407 0 326 -413l-51 -263h-283l51 263q26 133 -97 133h-2q-122 0 -148 -133l-92 -477q92 71 208 71q21 0 43 -2q133 -14 194 -97q63 -85 20 -305l-76 -390q-80 -412 -487 -412q-406 0 -326 412zM487 381q-26 -133 97 -133q124 0 150 133 l76 390q20 105 -20 123q-22 11 -75 11q-13 0 -27 -1q-100 -4 -125 -133z" />
<glyph unicode="7" horiz-adv-x="1073" d="M272 0l705 1683h-529l54 279h837l-39 -201l-738 -1761h-290z" />
<glyph unicode="8" horiz-adv-x="1074" d="M204 381l61 313q37 193 208 273q-139 80 -102 273l66 341q80 412 487 412t327 -412l-66 -341q-37 -193 -208 -273q139 -80 102 -273l-61 -313q-80 -412 -487 -412t-327 412zM487 381q-26 -132 97 -133h2q123 1 149 133l61 313q21 107 -20 127q-22 10 -72 10h-10 q-50 0 -76 -10q-49 -20 -70 -127zM654 1242q-19 -99 14 -120q18 -12 58 -12h54q40 0 62 12q41 21 60 120l66 339q26 132 -97 133h-2q-123 -1 -149 -133z" />
<glyph unicode="9" horiz-adv-x="1073" d="M204 381l51 264h283l-51 -264q-26 -132 97 -133h2q122 0 148 133l93 478q-95 -72 -212 -72q-19 0 -40 2q-133 14 -194 97q-62 86 -19 305l75 390q80 412 488 413q406 0 325 -413l-233 -1200q-80 -412 -487 -412q-406 0 -326 412zM645 1191q-21 -104 20 -123 q21 -10 73 -10q13 0 28 1q100 3 126 132l75 390q26 133 -97 133q-124 0 -150 -133z" />
<glyph unicode=":" horiz-adv-x="564" d="M120 0l63 325h324l-63 -325h-324zM315 1005l63 324h324l-63 -324h-324z" />
<glyph unicode=";" horiz-adv-x="591" d="M116 -327l122 327h-118l63 325h351l-56 -287l-179 -365h-183zM315 1005l63 324h325l-63 -324h-325z" />
<glyph unicode="&#x3c;" horiz-adv-x="1047" d="M281 829l57 291l894 452l-53 -275l-649 -320l526 -311l-53 -274z" />
<glyph unicode="=" horiz-adv-x="1047" d="M243 633l45 232h807l-45 -232h-807zM333 1096l45 233h807l-45 -233h-807z" />
<glyph unicode="&#x3e;" horiz-adv-x="1047" d="M196 392l53 274l648 311l-525 320l53 275l720 -452l-57 -291z" />
<glyph unicode="?" d="M236 0l63 325h325l-63 -325h-325zM358 547l14 69q47 245 285 442q237 197 263 333l37 190q26 133 -96 133h-2q-123 0 -149 -133l-51 -263h-283l51 263q81 413 488 413q406 0 325 -413l-38 -197q-48 -249 -286 -447q-237 -198 -266 -345l-9 -45h-283z" />
<glyph unicode="@" horiz-adv-x="1483" d="M246 596l155 801q119 608 731 608q611 0 495 -595l-21 -107h-1l-15 -79q-53 -272 -320 -272h-109l-67 -344q-53 -272 -321 -272q-267 0 -214 272l50 257q53 271 320 271h82l51 262q16 87 -65 87h-2q-80 0 -96 -87l-14 -70h-186l14 70q52 271 319 271q268 0 216 -271 l-51 -262h109q81 0 98 88l36 186q80 412 -344 412q-425 0 -508 -425l-155 -801q-80 -412 345 -412q424 0 506 424l8 43h187l-8 -43q-118 -607 -729 -607q-612 0 -496 595zM729 608q-17 -88 64 -88q82 0 99 88l67 344l-82 1q-81 0 -98 -88z" />
<glyph unicode="A" horiz-adv-x="1051" d="M40 0l227 693l446 1269h388l-47 -1266l-43 -696h-286l26 416h-289l-137 -416h-285zM552 696h216l51 816z" />
<glyph unicode="B" horiz-adv-x="1043" d="M130 0l381 1962h436q311 -1 311 -281q0 -60 -14 -132l-57 -295q-38 -193 -208 -273q110 -63 110 -197q0 -36 -8 -76l-58 -296q-80 -411 -475 -412h-418zM467 279h124q123 0 149 133l58 296q4 19 4 35q0 65 -57 89q-21 9 -80 9h-89zM631 1121h89q59 0 82 8q83 31 102 125 l57 295q5 23 5 43q0 91 -102 91h-124z" />
<glyph unicode="C" horiz-adv-x="1023" d="M184 381l234 1200q80 412 486 412q340 0 340 -288q0 -57 -13 -124l-52 -264h-283l52 264q4 22 4 41q0 91 -102 92h-2q-122 0 -147 -133l-234 -1200q-5 -23 -4 -42q0 -91 101 -91q124 0 150 133l52 264h283l-52 -264q-80 -412 -487 -413q-339 0 -339 288q0 57 13 125z" />
<glyph unicode="D" d="M130 0l381 1962h436q311 -1 311 -281q0 -60 -14 -132l-221 -1137q-80 -411 -475 -412h-418zM467 279h124q123 0 149 133l221 1137q5 23 5 43q0 91 -102 91h-124z" />
<glyph unicode="E" horiz-adv-x="944" d="M130 0l381 1962h734l-54 -279h-451l-109 -562h388l-55 -280h-388l-109 -562h451l-54 -279h-734z" />
<glyph unicode="F" horiz-adv-x="924" d="M130 0l381 1962h734l-54 -279h-451l-109 -562h388l-55 -280h-388l-163 -841h-283z" />
<glyph unicode="G" horiz-adv-x="1033" d="M184 381l234 1200q80 412 486 412q340 0 340 -288q0 -56 -13 -124l-52 -264h-283l52 264q4 22 4 41q0 91 -102 92h-2q-122 0 -147 -133l-234 -1200q-5 -23 -5 -42q0 -91 102 -91q124 0 150 133l90 460h-143l54 280h426l-144 -740q-80 -412 -487 -413q-339 0 -339 288 q0 57 13 125z" />
<glyph unicode="H" horiz-adv-x="1073" d="M130 0l381 1962h283l-163 -841h247l163 841h283l-381 -1962h-283l163 841h-247l-163 -841h-283z" />
<glyph unicode="I" horiz-adv-x="553" d="M135 0l381 1962h283l-381 -1962h-283z" />
<glyph unicode="J" horiz-adv-x="973" d="M104 381l23 116h283l-23 -116q-5 -23 -5 -42q0 -91 103 -91q123 0 149 133l307 1581h283l-307 -1581q-80 -413 -486 -413q-340 1 -340 289q0 56 13 124z" />
<glyph unicode="K" horiz-adv-x="1057" d="M130 0l381 1962h283l-169 -873l470 873h303l-564 -981l183 -981h-303l-132 872l-169 -872h-283z" />
<glyph unicode="L" horiz-adv-x="904" d="M130 0l381 1962h283l-327 -1683h451l-54 -279h-734z" />
<glyph unicode="M" horiz-adv-x="1488" d="M130 0l381 1962h283l72 -1344l590 1344h283l-381 -1962h-271l214 1101l-456 -1101h-192l-35 1101l-214 -1101h-274z" />
<glyph unicode="N" horiz-adv-x="1073" d="M130 0l381 1962h283l47 -1138l221 1138h262l-381 -1962h-283l-44 1102l-214 -1102h-272z" />
<glyph unicode="O" horiz-adv-x="1033" d="M184 381l234 1200q80 412 486 412q340 0 340 -288q0 -57 -13 -124l-234 -1200q-80 -412 -487 -413q-339 0 -339 288q0 57 13 125zM467 381q-5 -23 -4 -42q0 -91 101 -91q124 0 150 133l234 1200q4 22 4 41q0 91 -102 92h-2q-122 0 -147 -133z" />
<glyph unicode="P" horiz-adv-x="999" d="M130 0l381 1962h412q311 -1 311 -281q0 -60 -14 -132l-57 -295q-59 -304 -347 -392q-70 -21 -194 -21h-46l-163 -841h-283zM631 1121h65q59 0 82 8q83 31 102 125l57 295q5 23 5 43q0 91 -102 91h-100z" />
<glyph unicode="Q" horiz-adv-x="1033" d="M184 381l233 1200q80 412 486 412q340 0 340 -288q0 -56 -13 -124l-233 -1200q-72 -368 -389 -407q-8 -64 297 -66l-46 -236q-251 0 -335 49q-85 48 -85 170q0 37 8 80q-277 20 -277 282q0 58 14 128zM467 381q-5 -23 -5 -42q0 -91 102 -91q124 0 150 133l233 1200 q5 23 5 42q0 90 -102 91h-2q-122 0 -148 -133z" />
<glyph unicode="R" horiz-adv-x="1044" d="M130 0l381 1962h412q311 -1 311 -281q0 -60 -14 -132l-57 -295q-51 -259 -290 -341l141 -913h-310l-87 863l-37 -5l-167 -858h-283zM631 1121h65q59 0 82 8q83 31 102 125l57 295q5 23 5 43q0 91 -102 91h-100z" />
<glyph unicode="S" horiz-adv-x="1033" d="M184 381l51 264h283l-51 -264q-5 -23 -4 -42q0 -91 102 -91q123 0 149 133l44 224q3 15 3 31q0 132 -204 301q-185 153 -185 361q0 48 10 99l35 184q80 412 486 412q340 0 341 -288q0 -57 -14 -124l-51 -264h-283l51 264q5 23 5 42q0 90 -102 91h-2q-122 0 -148 -133 l-34 -178q-3 -13 -3 -27q0 -123 205 -294q187 -154 187 -358q0 -46 -10 -95l-48 -248q-80 -413 -486 -413q-340 1 -340 289q0 56 13 124z" />
<glyph unicode="T" horiz-adv-x="913" d="M315 0l327 1683h-265l54 279h813l-54 -279h-265l-327 -1683h-283z" />
<glyph unicode="U" d="M194 381l308 1581h283l-308 -1581q-5 -23 -4 -42q0 -91 101 -91q124 0 150 133l308 1581h283l-308 -1581q-80 -412 -487 -413q-339 0 -339 288q0 57 13 125z" />
<glyph unicode="V" horiz-adv-x="1051" d="M332 0l46 1268l43 694h286l-95 -1512l494 1512h286l-227 -696l-445 -1266h-388z" />
<glyph unicode="W" horiz-adv-x="1732" d="M332 0l46 1268l43 694h285l-94 -1512l494 1512h281l-94 -1512l494 1512h286l-227 -696l-445 -1266h-388l50 1013l-343 -1013h-388z" />
<glyph unicode="X" horiz-adv-x="1017" d="M40 0l517 981l-136 981h285l77 -552l290 552h285l-516 -981l135 -981h-285l-76 552l-291 -552h-285z" />
<glyph unicode="Y" horiz-adv-x="1066" d="M392 0l160 825l-4 24l-127 1113h300l45 -765l341 765h300l-559 -1113l-13 -24l-160 -825h-283z" />
<glyph unicode="Z" horiz-adv-x="880" d="M80 0l33 170l678 1513h-371l54 279h690l-33 -170l-678 -1513h401l-54 -279h-720z" />
<glyph unicode="[" horiz-adv-x="547" d="M82 -247l478 2457h387l-46 -232h-154l-387 -1992h154l-45 -233h-387z" />
<glyph unicode="\" horiz-adv-x="748" d="M442 1963h237l9 -1963h-237z" />
<glyph unicode="]" horiz-adv-x="547" d="M-18 -247l45 233h154l387 1992h-154l46 232h387l-478 -2457h-387z" />
<glyph unicode="^" horiz-adv-x="1157" d="M328 1172l508 807h255l194 -807h-254l-125 517l-324 -517h-254z" />
<glyph unicode="_" horiz-adv-x="1032" d="M-62 -318l41 211h1032l-41 -211h-1032z" />
<glyph unicode="`" horiz-adv-x="624" d="M530 2058h222l93 -253h-157z" />
<glyph unicode="a" horiz-adv-x="1051" d="M40 0l211 613l418 1121h388l-18 -1119l-28 -615h-286l17 368h-289l-128 -368h-285zM537 615h216l32 722z" />
<glyph unicode="b" horiz-adv-x="1043" d="M130 0l337 1734h436q317 0 318 -258q0 -49 -12 -107l-50 -260q-34 -171 -202 -242q114 -58 114 -180q0 -29 -6 -61l-51 -262q-71 -363 -466 -364h-418zM461 247h124q123 0 146 117l51 262q3 15 3 28q0 59 -59 81q-21 8 -80 8h-89zM606 991h89q59 0 82 7q82 27 99 111 l50 260q4 19 4 35q0 84 -104 84h-124z" />
<glyph unicode="c" horiz-adv-x="1023" d="M175 333l206 1061q71 364 477 364q347 0 347 -264q0 -46 -11 -100l-45 -233h-283l45 233q4 18 4 34q0 83 -104 83h-2q-122 0 -145 -117l-206 -1061q-4 -18 -4 -34q0 -83 104 -83q124 0 147 117l45 233h283l-45 -233q-71 -364 -478 -365q-346 0 -346 264q0 47 11 101z" />
<glyph unicode="d" d="M130 0l337 1734h436q317 0 318 -258q0 -49 -12 -107l-195 -1005q-71 -363 -466 -364h-418zM461 247h124q123 0 146 117l195 1005q4 19 4 35q0 84 -104 84h-124z" />
<glyph unicode="e" horiz-adv-x="944" d="M130 0l337 1734h734l-48 -246h-451l-96 -497h388l-49 -248h-388l-96 -496h451l-48 -247h-734z" />
<glyph unicode="f" horiz-adv-x="924" d="M130 0l337 1734h734l-48 -246h-451l-96 -497h388l-49 -248h-388l-144 -743h-283z" />
<glyph unicode="g" horiz-adv-x="1033" d="M175 333l206 1061q71 364 477 364q347 0 347 -264q0 -46 -11 -100l-45 -233h-283l45 233q4 18 4 34q0 83 -104 83h-2q-122 0 -145 -117l-206 -1061q-4 -18 -4 -34q0 -83 104 -83q124 0 147 117l79 407h-143l48 247h426l-127 -654q-71 -364 -478 -365q-346 0 -346 264 q0 47 11 101z" />
<glyph unicode="h" horiz-adv-x="1073" d="M130 0l337 1734h283l-144 -743h247l144 743h283l-337 -1734h-283l144 743h-247l-144 -743h-283z" />
<glyph unicode="i" horiz-adv-x="553" d="M135 0l337 1734h283l-337 -1734h-283z" />
<glyph unicode="j" horiz-adv-x="973" d="M95 333l20 103h283l-20 -103q-4 -18 -4 -34q0 -83 105 -83q123 0 146 117l271 1398h283l-271 -1398q-71 -365 -477 -365q-347 1 -347 265q0 46 11 100z" />
<glyph unicode="k" horiz-adv-x="1057" d="M130 0l337 1734h283l-150 -771l451 771h303l-542 -867l205 -867h-303l-151 771l-150 -771h-283z" />
<glyph unicode="l" horiz-adv-x="904" d="M130 0l337 1734h283l-289 -1487h451l-48 -247h-734z" />
<glyph unicode="m" horiz-adv-x="1488" d="M130 0l337 1734h283l102 -1188l560 1188h283l-337 -1734h-271l189 973l-431 -973h-192l-60 973l-189 -973h-274z" />
<glyph unicode="n" horiz-adv-x="1073" d="M130 0l337 1734h283l73 -1006l195 1006h262l-337 -1734h-283l-69 974l-189 -974h-272z" />
<glyph unicode="o" horiz-adv-x="1033" d="M175 333l206 1061q71 364 477 364q347 0 347 -264q0 -46 -11 -100l-206 -1061q-71 -364 -478 -365q-346 0 -346 264q0 47 11 101zM458 333q-4 -18 -4 -34q0 -83 104 -83q124 0 147 117l206 1061q4 18 4 34q0 83 -104 83h-2q-122 0 -145 -117z" />
<glyph unicode="p" horiz-adv-x="999" d="M130 0l337 1734h412q317 0 317 -258q0 -49 -11 -107l-50 -260q-53 -269 -339 -347q-69 -19 -193 -19h-46l-144 -743h-283zM606 991h65q59 0 82 7q82 27 99 111l50 260q4 19 4 35q0 84 -104 84h-100z" />
<glyph unicode="q" horiz-adv-x="1033" d="M168 299l207 1061q70 364 476 364q347 0 347 -265q0 -46 -10 -99l-207 -1061q-63 -326 -380 -360q-6 -57 299 -58l-41 -209q-251 0 -336 43q-88 43 -88 156q0 30 6 65q-284 18 -284 260q0 47 11 103zM451 299q-4 -19 -4 -34q0 -84 104 -84q124 0 147 118l207 1061 q3 18 3 33q0 83 -104 84h-2q-122 0 -144 -117z" />
<glyph unicode="r" horiz-adv-x="1044" d="M130 0l337 1734h412q317 0 318 -258q0 -49 -12 -107l-50 -260q-45 -229 -282 -302l161 -807h-310l-107 763l-37 -5l-147 -758h-283zM606 991h65q59 0 82 7q82 27 99 111l50 260q4 19 4 35q0 84 -104 84h-100z" />
<glyph unicode="s" horiz-adv-x="1033" d="M175 333l45 233h283l-45 -233q-4 -18 -4 -34q0 -83 105 -83q123 0 146 117l38 198q2 12 2 25q0 117 -210 269q-194 139 -194 329q0 38 8 77l32 163q71 364 477 364q347 0 347 -264q0 -46 -11 -100l-45 -233h-283l45 233q4 18 4 34q0 83 -104 83h-2q-122 0 -145 -117 l-31 -157q-2 -10 -2 -20q0 -110 212 -264q195 -139 194 -326q0 -37 -7 -75l-42 -219q-71 -365 -477 -365q-347 1 -347 265q0 46 11 100z" />
<glyph unicode="t" horiz-adv-x="913" d="M315 0l289 1488h-265l48 246h813l-48 -246h-265l-289 -1488h-283z" />
<glyph unicode="u" d="M185 333l272 1398h283l-272 -1398q-4 -18 -4 -34q0 -83 104 -83q124 0 147 117l272 1398h283l-272 -1398q-71 -364 -478 -365q-346 0 -346 264q0 47 11 101z" />
<glyph unicode="v" horiz-adv-x="1051" d="M332 0l18 1121l27 613h286l-61 -1336l460 1336h286l-211 -615l-417 -1119h-388z" />
<glyph unicode="w" horiz-adv-x="1732" d="M332 0l18 1121l27 613h285l-60 -1336l460 1336h281l-60 -1336l460 1336h286l-211 -615l-417 -1119h-388l27 895l-320 -895h-388z" />
<glyph unicode="x" horiz-adv-x="1017" d="M40 0l495 867l-158 867h285l89 -488l278 488h285l-494 -867l157 -867h-285l-88 488l-279 -488h-285z" />
<glyph unicode="y" horiz-adv-x="1066" d="M377 1734h300l62 -676l324 676h300l-534 -983l-12 -22l-142 -729h-283l142 729l-5 22z" />
<glyph unicode="z" horiz-adv-x="880" d="M80 0l29 150l644 1338h-371l48 246h690l-29 -150l-644 -1337h401l-48 -247h-720z" />
<glyph unicode="{" horiz-adv-x="545" d="M153 166l110 566q26 131 -85 133l45 233q112 3 137 133l111 567q79 407 474 412l-45 -232q-112 -3 -138 -134l-110 -566q-38 -199 -136 -296q60 -98 21 -297l-110 -566q-25 -130 85 -133l-45 -233q-393 5 -314 413z" />
<glyph unicode="|" horiz-adv-x="512" d="M76 -327l509 2617h232l-509 -2617h-232z" />
<glyph unicode="}" horiz-adv-x="545" d="M-18 -247l45 233q112 3 137 133l110 566q39 199 137 297q-60 97 -22 296l110 566q26 131 -85 134l46 232q393 -5 314 -412l-111 -567q-25 -130 85 -133l-45 -233q-111 -2 -137 -133l-110 -566q-79 -408 -474 -413z" />
<glyph unicode="~" horiz-adv-x="1100" d="M283 940l70 83q129 154 262 154h10q87 -4 203 -106q59 -51 103 -51q31 0 54 24l77 78l132 -124l-77 -78q-112 -114 -226 -114h-12q-87 4 -202 105q-67 60 -83 63q-4 1 -9 1q-34 0 -85 -60l-70 -84z" />
<glyph unicode="&#xa1;" horiz-adv-x="565" d="M-261 -233l299 1432h283l-257 -1432h-325zM57 1404l63 325h325l-63 -325h-325z" />
<glyph unicode="&#xa2;" horiz-adv-x="1073" d="M58 -318l185 372q-95 90 -58 282l206 1057q70 364 476 364q128 0 209 -36l116 231l138 -9l-153 -306q57 -89 27 -244l-46 -232h-219l-456 -914q24 -28 85 -28q124 0 147 117l45 233h283l-45 -233q-70 -363 -477 -363q-96 0 -166 20l-160 -320zM521 609l403 805 q7 96 -103 97q-124 0 -147 -118z" />
<glyph unicode="&#xa3;" horiz-adv-x="1126" d="M60 0l54 279h69q124 0 150 134l98 505h-193l31 158h193l98 505q81 413 487 413q407 0 326 -413l-51 -263h-283l51 263q26 133 -97 133h-2q-122 0 -148 -133l-98 -505h331l-31 -158h-331l-71 -366q-34 -177 -115 -273h513l-54 -279h-927z" />
<glyph unicode="&#xa4;" horiz-adv-x="1398" d="M242 574l202 168q3 48 14 106l52 267q9 48 21 89l-134 167l204 170l81 -100q112 87 314 87t283 -87l119 100l137 -170l-200 -167q-3 -41 -12 -89l-52 -267q-11 -57 -27 -106l136 -168l-203 -171l-89 111q-112 -78 -304 -78t-273 77l-131 -110zM741 848q-26 -133 97 -133 q124 0 150 133l52 267q26 132 -97 133h-2q-122 0 -148 -133z" />
<glyph unicode="&#xa5;" horiz-adv-x="1186" d="M287 500l31 159h262l31 159h-262l31 158h214l-113 986h300l45 -764l341 764h300l-495 -986h215l-31 -158h-262l-31 -159h262l-31 -159h-262l-97 -500h-283l97 500h-262z" />
<glyph unicode="&#xa6;" horiz-adv-x="512" d="M140 0l152 784h232l-152 -784h-232zM332 986l144 743h232l-144 -743h-232z" />
<glyph unicode="&#xa7;" d="M153 53l20 106h283l-20 -106q-24 -123 89 -123q110 0 134 123q37 192 -196 352q-234 159 -167 503q53 273 255 346q-163 126 -113 384q69 356 472 356q386 0 317 -356l-19 -100h-283l19 100q22 115 -90 115q-111 0 -133 -115q-35 -180 201 -330t173 -472 q-55 -285 -307 -340q212 -148 155 -443q-74 -380 -478 -380q-386 0 -312 380zM552 855q-28 -144 105 -144q134 0 162 144l8 41q28 143 -105 144h-2q-132 0 -160 -144z" />
<glyph unicode="&#xa8;" horiz-adv-x="899" d="M481 1806l47 242h242l-47 -242h-242zM877 1806l47 242h243l-47 -242h-243z" />
<glyph unicode="&#xa9;" horiz-adv-x="1463" d="M236 596l155 801q119 608 730 608q612 0 496 -595l-156 -802q-118 -607 -730 -607q-611 0 -495 595zM423 596q-80 -412 344 -412q425 0 507 424l156 802q80 412 -344 412q-425 0 -508 -425zM580 604l155 798q54 274 324 274q271 0 217 -274l-15 -77h-189l15 77 q17 88 -63 89q-83 0 -101 -89l-155 -798q-17 -89 65 -89t99 89l15 76h189l-15 -76q-53 -275 -324 -275q-270 0 -217 275z" />
<glyph unicode="&#xaa;" horiz-adv-x="761" d="M168 521l38 193h619l-38 -193h-619zM240 925l132 367l262 670h256l1 -669l-10 -368h-189l6 221h-191l-79 -221h-188zM560 1293h142l13 431z" />
<glyph unicode="&#xab;" horiz-adv-x="1305" d="M325 1002l655 507l-65 -330l-261 -190l189 -184l-62 -320zM814 1002l655 507l-65 -330l-261 -190l189 -184l-62 -320z" />
<glyph unicode="&#xac;" horiz-adv-x="1067" d="M298 865l45 233h807l-101 -520h-232l56 287h-575z" />
<glyph unicode="&#xad;" horiz-adv-x="786" d="M213 841l45 233h686l-45 -233h-686z" />
<glyph unicode="&#xae;" horiz-adv-x="1463" d="M236 596l155 801q119 608 730 608q612 0 496 -595l-156 -802q-118 -607 -730 -607q-611 0 -495 595zM423 596q-80 -412 344 -412q425 0 507 424l156 802q80 412 -344 412q-425 0 -508 -425zM526 350l254 1306l278 -1h12q251 0 197 -274l-38 -197q-25 -128 -138 -181 q92 -53 67 -182l-91 -471h-188l91 471q12 62 -34 83q-14 6 -54 6h-59l-109 -560h-188zM859 1096h59q40 0 56 6q55 20 67 82l38 197q18 89 -64 89h-83z" />
<glyph unicode="&#xaf;" horiz-adv-x="1208" d="M341 1752l41 211h1208l-41 -211h-1208z" />
<glyph unicode="&#xb0;" horiz-adv-x="877" d="M468 1741q60 308 368 308q309 0 249 -308q-60 -309 -369 -309q-308 0 -248 309zM651 1741q-24 -126 101 -126q126 0 150 126q24 125 -102 125q-125 0 -149 -125z" />
<glyph unicode="&#xb1;" horiz-adv-x="1047" d="M151 160l41 212h805l-41 -212h-805zM288 865l45 233h288l56 287h232l-56 -287h287l-45 -233h-287l-56 -287h-232l56 287h-288z" />
<glyph unicode="&#xb2;" horiz-adv-x="674" d="M262 831l48 246q30 154 205 265q176 110 192 187l43 224q15 78 -56 78h-1q-72 0 -87 -78l-30 -153h-165l30 153q47 241 284 241t190 -241l-44 -228q-31 -158 -207 -269q-176 -110 -192 -193l-13 -69h309l-32 -163h-474z" />
<glyph unicode="&#xb3;" horiz-adv-x="679" d="M304 1051l31 155h165l-31 -156q-15 -80 59 -80q75 0 90 80l41 211q13 63 -11 75q-14 6 -43 6h-57l32 164h70q23 0 36 7q25 13 36 71l34 172q12 63 -12 75q-14 6 -45 6q-8 0 -17 -1q-60 -2 -75 -80l-30 -154h-165l30 155q32 168 139 218q75 35 146 35q66 0 129 -31 q99 -46 65 -222l-34 -174q-22 -114 -122 -161q81 -47 59 -161l-41 -210q-29 -151 -118 -206q-55 -35 -160 -38h-14q-92 0 -137 30q-81 52 -50 214z" />
<glyph unicode="&#xb4;" horiz-adv-x="624" d="M481 1805l191 253h222l-256 -253h-157z" />
<glyph unicode="&#xb5;" horiz-adv-x="1063" d="M66 -327l381 1962h283l-244 -1255q-25 -132 98 -132q124 0 150 133l243 1254h283l-243 -1254q-73 -373 -399 -408q-19 -2 -37 -2q-93 0 -164 53l-68 -351h-283z" />
<glyph unicode="&#xb6;" horiz-adv-x="1170" d="M354 1310l69 354q39 199 121 255q63 44 252 44h625l-381 -1963h-201l342 1762h-223l-342 -1762h-201l198 1021q-194 0 -238 39q-59 52 -21 250z" />
<glyph unicode="&#xb7;" horiz-adv-x="508" d="M120 843l54 276h276l-54 -276h-276z" />
<glyph unicode="&#xb8;" horiz-adv-x="634" d="M128 -255l5 29h118l-5 -29q-3 -15 17 -15t23 15l19 99q3 17 -15 18h-2q-17 0 -27 -17h-113l61 156h121l-47 -87q40 20 72 20q31 0 54 -20q24 -20 14 -70l-19 -99q-17 -85 -121 -93q-16 -2 -35 -2q-10 0 -20 1q-118 3 -100 94z" />
<glyph unicode="&#xb9;" horiz-adv-x="1073" d="M291 830l31 161h153l158 810h-153l31 161h316l-189 -971h153l-31 -161h-469z" />
<glyph unicode="&#xba;" horiz-adv-x="777" d="M228 506l34 175h516l-34 -175h-516zM335 1110l124 634q42 218 310 218q269 0 227 -218l-124 -634q-42 -218 -311 -218q-268 0 -226 218zM522 1110q-13 -71 68 -71q82 0 95 71l124 634q13 70 -68 71q-82 0 -95 -71z" />
<glyph unicode="&#xbb;" horiz-adv-x="1305" d="M224 485l62 320l260 184l-187 190l64 330l457 -507zM713 485l62 320l260 184l-187 190l64 330l457 -507z" />
<glyph unicode="&#xbc;" horiz-adv-x="1609" d="M281 830l31 161h153l158 810h-153l31 161h316l-189 -971h153l-31 -161h-469zM439 0l1104 1963h175l-1103 -1963h-176zM1008 276l28 142l421 707h207l-134 -689h63l-31 -160h-63l-53 -276h-162l53 276h-329zM1199 436h169l84 429z" />
<glyph unicode="&#xbd;" horiz-adv-x="1685" d="M221 830l31 161h153l158 810h-153l31 161h316l-189 -971h153l-31 -161h-469zM379 0l1104 1963h175l-1103 -1963h-176zM1111 0l47 246q30 154 206 265q175 110 191 187l44 224q15 78 -56 78h-1q-72 0 -87 -78l-30 -153h-165l30 153q47 241 284 241t190 -241l-44 -228 q-31 -158 -208 -269q-175 -110 -191 -193l-14 -69h309l-31 -163h-474z" />
<glyph unicode="&#xbe;" horiz-adv-x="1549" d="M304 1051l31 155h165l-31 -156q-15 -80 59 -80q75 0 90 80l41 211q13 63 -11 75q-14 6 -43 6h-57l32 164h70q23 0 36 7q25 13 36 71l34 172q12 63 -12 75q-14 6 -45 6q-8 0 -17 -1q-60 -2 -75 -80l-30 -154h-165l30 155q32 168 139 218q75 35 146 35q66 0 129 -31 q99 -46 65 -222l-34 -174q-22 -114 -122 -161q81 -47 59 -161l-41 -210q-29 -151 -118 -206q-55 -35 -160 -38h-14q-92 0 -137 30q-81 52 -50 214zM379 0l1105 1963h175l-1104 -1963h-176zM949 276l27 142l422 707h207l-134 -689h63l-31 -160h-63l-54 -276h-162l54 276h-329 zM1140 436h169l83 429z" />
<glyph unicode="&#xbf;" d="M-187 148l38 197q48 249 286 447q237 198 266 345l9 45h283l-14 -69q-47 -245 -285 -442q-237 -197 -263 -333l-37 -190q-26 -133 96 -133h2q123 0 149 133l51 263h283l-51 -263q-81 -413 -488 -413q-406 0 -325 413zM429 1404l63 325h325l-63 -325h-325z" />
<glyph unicode="&#xc0;" horiz-adv-x="1091" d="M60 0l227 693l446 1269h388l-47 -1266l-43 -696h-286l26 416h-289l-137 -416h-285zM572 696h216l51 816zM615 2291h222l93 -253h-157z" />
<glyph unicode="&#xc1;" horiz-adv-x="1091" d="M60 0l227 693l446 1269h388l-47 -1266l-43 -696h-286l26 416h-289l-137 -416h-285zM572 696h216l51 816zM731 2038l191 253h222l-256 -253h-157z" />
<glyph unicode="&#xc2;" horiz-adv-x="1091" d="M60 0l227 693l446 1269h388l-47 -1266l-43 -696h-286l26 416h-289l-137 -416h-285zM549 2039l263 252h264l169 -252h-214l-118 93l-153 -93h-211zM572 696h216l51 816z" />
<glyph unicode="&#xc3;" horiz-adv-x="1091" d="M60 0l227 693l446 1269h388l-47 -1266l-43 -696h-286l26 416h-289l-137 -416h-285zM561 2079l49 71q93 135 201 141h7q67 0 160 -66q45 -32 78 -32q28 0 48 23l54 67l113 -86l-54 -68q-84 -102 -179 -107h-7q-67 0 -158 66q-58 41 -71 43h-4q-28 0 -65 -54l-49 -71z M572 696h216l51 816z" />
<glyph unicode="&#xc4;" horiz-adv-x="1091" d="M60 0l227 693l446 1269h388l-47 -1266l-43 -696h-286l26 416h-289l-137 -416h-285zM572 696h216l51 816zM577 2039l47 242h242l-47 -242h-242zM973 2039l47 242h243l-47 -242h-243z" />
<glyph unicode="&#xc5;" horiz-adv-x="1091" d="M60 0l227 693l446 1269h30q-25 48 -9 132q39 198 237 198q199 0 160 -198q-16 -84 -61 -132h31l-47 -1266l-43 -696h-286l26 416h-289l-137 -416h-285zM572 696h216l51 816zM872 2094q-16 -81 64 -81q81 0 97 81q16 80 -65 80q-80 0 -96 -80z" />
<glyph unicode="&#xc6;" horiz-adv-x="1478" d="M60 0l227 693l446 1269h933l-54 -279h-451l-109 -562h388l-55 -280h-388l-109 -562h451l-54 -279h-734l81 416h-150l-137 -416h-285zM572 696h114l150 771l3 45z" />
<glyph unicode="&#xc7;" horiz-adv-x="1043" d="M194 381l233 1200q80 412 486 412q407 0 327 -412l-51 -264h-283l51 264q26 132 -97 133h-2q-122 0 -148 -133l-233 -1200q-26 -133 97 -133q124 0 150 133l51 264h283l-51 -264q-76 -389 -442 -412l-31 -55q41 20 73 20q31 0 54 -20q24 -20 15 -70l-20 -99 q-16 -85 -122 -93q-14 -2 -34 -2q-9 0 -20 1q-117 3 -100 94l6 29h118l-6 -29q-2 -15 18 -15t22 15l20 99q3 17 -16 18h-1q-17 0 -27 -17h-114l50 126q-329 34 -256 410z" />
<glyph unicode="&#xc8;" horiz-adv-x="944" d="M130 0l381 1962h734l-54 -279h-451l-109 -562h388l-55 -280h-388l-109 -562h451l-54 -279h-734zM566 2291h222l93 -253h-157z" />
<glyph unicode="&#xc9;" horiz-adv-x="944" d="M130 0l381 1962h734l-54 -279h-451l-109 -562h388l-55 -280h-388l-109 -562h451l-54 -279h-734zM683 2038l191 253h222l-256 -253h-157z" />
<glyph unicode="&#xca;" horiz-adv-x="944" d="M108 0l381 1962h734l-54 -279h-451l-109 -562h388l-55 -280h-388l-109 -562h451l-54 -279h-734zM478 2039l263 252h264l169 -252h-214l-118 93l-153 -93h-211z" />
<glyph unicode="&#xcb;" horiz-adv-x="944" d="M130 0l381 1962h734l-54 -279h-451l-109 -562h388l-55 -280h-388l-109 -562h451l-54 -279h-734zM529 2039l47 242h242l-47 -242h-242zM925 2039l47 242h243l-47 -242h-243z" />
<glyph unicode="&#xcc;" horiz-adv-x="553" d="M135 0l381 1962h283l-381 -1962h-283zM346 2291h222l93 -253h-157z" />
<glyph unicode="&#xcd;" horiz-adv-x="553" d="M135 0l381 1962h283l-381 -1962h-283zM462 2038l191 253h222l-256 -253h-157z" />
<glyph unicode="&#xce;" horiz-adv-x="553" d="M95 0l381 1962h283l-381 -1962h-283zM239 2039l263 252h264l169 -252h-214l-118 93l-153 -93h-211z" />
<glyph unicode="&#xcf;" horiz-adv-x="553" d="M135 0l381 1962h283l-381 -1962h-283zM308 2039l47 242h242l-47 -242h-242zM704 2039l47 242h243l-47 -242h-243z" />
<glyph unicode="&#xd0;" horiz-adv-x="1115" d="M182 0l170 876h-124l41 211h124l170 875l436 -1q377 0 297 -412l-221 -1137q-80 -411 -457 -411q-6 0 -18 -1h-418zM519 279h124q123 0 149 133l221 1137q26 134 -97 134h-124l-116 -596h98l-41 -211h-98z" />
<glyph unicode="&#xd1;" horiz-adv-x="1073" d="M130 0l381 1962h283l47 -1138l221 1138h262l-381 -1962h-283l-44 1102l-214 -1102h-272zM552 2079l49 71q93 135 201 141h7q67 0 160 -66q45 -32 78 -32q28 0 48 23l54 67l113 -86l-54 -68q-84 -102 -179 -107h-7q-67 0 -158 66q-58 41 -71 43h-4q-28 0 -65 -54l-49 -71z " />
<glyph unicode="&#xd2;" d="M194 381l234 1200q80 412 486 412q407 0 327 -412l-234 -1200q-80 -412 -487 -413q-406 0 -326 413zM477 381q-26 -133 97 -133q124 0 150 133l234 1200q25 132 -98 133h-2q-122 0 -147 -133zM596 2291h222l93 -253h-157z" />
<glyph unicode="&#xd3;" d="M194 381l234 1200q80 412 486 412q407 0 327 -412l-234 -1200q-80 -412 -487 -413q-406 0 -326 413zM477 381q-26 -133 97 -133q124 0 150 133l234 1200q25 132 -98 133h-2q-122 0 -147 -133zM712 2038l191 253h222l-256 -253h-157z" />
<glyph unicode="&#xd4;" d="M194 381l234 1200q80 412 486 412q407 0 327 -412l-234 -1200q-80 -412 -487 -413q-406 0 -326 413zM477 381q-26 -133 97 -133q124 0 150 133l234 1200q25 132 -98 133h-2q-122 0 -147 -133zM530 2039l263 252h264l169 -252h-214l-118 93l-153 -93h-211z" />
<glyph unicode="&#xd5;" d="M194 381l234 1200q80 412 486 412q407 0 327 -412l-234 -1200q-80 -412 -487 -413q-406 0 -326 413zM477 381q-26 -133 97 -133q124 0 150 133l234 1200q25 132 -98 133h-2q-122 0 -147 -133zM542 2079l49 71q93 135 201 141h7q67 0 160 -66q45 -32 78 -32q28 0 48 23 l54 67l113 -86l-54 -68q-84 -102 -179 -107h-7q-67 0 -158 66q-58 41 -71 43h-4q-28 0 -65 -54l-49 -71z" />
<glyph unicode="&#xd6;" d="M194 381l234 1200q80 412 486 412q407 0 327 -412l-234 -1200q-80 -412 -487 -413q-406 0 -326 413zM477 381q-26 -133 97 -133q124 0 150 133l234 1200q25 132 -98 133h-2q-122 0 -147 -133zM558 2039l47 242h242l-47 -242h-242zM954 2039l47 242h243l-47 -242h-243z " />
<glyph unicode="&#xd7;" horiz-adv-x="1047" d="M307 779l243 203l-163 203l196 164l163 -203l243 203l132 -165l-243 -202l164 -203l-196 -164l-164 202l-242 -203z" />
<glyph unicode="&#xd8;" d="M115 -206l121 277q-82 103 -42 310l233 1200q80 412 486 412q88 0 153 -19l55 127h141l-82 -190q105 -102 60 -330l-233 -1200q-80 -412 -487 -413q-105 0 -177 27l-88 -201h-140zM477 303q18 -55 97 -55q124 0 150 133l171 878zM562 819l379 868q-26 27 -81 27h-2 q-122 0 -148 -133z" />
<glyph unicode="&#xd9;" d="M194 381l308 1581h283l-308 -1581q-26 -133 97 -133q124 0 150 133l308 1581h283l-308 -1581q-80 -412 -487 -413q-406 0 -326 413zM596 2291h222l93 -253h-157z" />
<glyph unicode="&#xda;" d="M194 381l308 1581h283l-308 -1581q-26 -133 97 -133q124 0 150 133l308 1581h283l-308 -1581q-80 -412 -487 -413q-406 0 -326 413zM712 2038l191 253h222l-256 -253h-157z" />
<glyph unicode="&#xdb;" d="M194 381l308 1581h283l-308 -1581q-26 -133 97 -133q124 0 150 133l308 1581h283l-308 -1581q-80 -412 -487 -413q-406 0 -326 413zM530 2039l263 252h264l169 -252h-214l-118 93l-153 -93h-211z" />
<glyph unicode="&#xdc;" d="M194 381l308 1581h283l-308 -1581q-26 -133 97 -133q124 0 150 133l308 1581h283l-308 -1581q-80 -412 -487 -413q-406 0 -326 413zM558 2039l47 242h242l-47 -242h-242zM954 2039l47 242h243l-47 -242h-243z" />
<glyph unicode="&#xdd;" horiz-adv-x="1106" d="M412 0l160 825l-4 24l-127 1113h300l45 -765l341 765h300l-559 -1113l-13 -24l-160 -825h-283zM739 2038l191 253h222l-256 -253h-157z" />
<glyph unicode="&#xde;" horiz-adv-x="1018" d="M66 -327l445 2289h283l-64 -327h92q6 0 18 -1h19q376 0 296 -412l-57 -295q-59 -304 -346 -392q-71 -21 -195 -21h-45l-163 -841h-283zM567 793h64q59 0 83 9q82 31 101 125l57 295q26 134 -97 134h-99z" />
<glyph unicode="&#xdf;" d="M130 0l301 1550q80 412 486 412q407 0 327 -412l-57 -296q-38 -193 -209 -273q140 -79 103 -273l-99 -508q-80 -411 -457 -411l-28 -1l54 279q122 0 148 133l99 508q18 94 -53 125q-21 9 -80 9h-88l-164 -842h-283zM631 1121h88q59 0 84 9q82 30 101 124l57 296 q26 132 -97 133h-2q-122 0 -148 -133z" />
<glyph unicode="&#xe0;" horiz-adv-x="1091" d="M60 0l211 613l418 1121h388l-18 -1119l-28 -615h-286l17 368h-289l-128 -368h-285zM557 615h216l32 722zM615 2058h222l93 -253h-157z" />
<glyph unicode="&#xe1;" horiz-adv-x="1091" d="M60 0l211 613l418 1121h388l-18 -1119l-28 -615h-286l17 368h-289l-128 -368h-285zM557 615h216l32 722zM731 1805l191 253h222l-256 -253h-157z" />
<glyph unicode="&#xe2;" horiz-adv-x="1091" d="M60 0l211 613l418 1121h388l-18 -1119l-28 -615h-286l17 368h-289l-128 -368h-285zM549 1806l263 252h264l169 -252h-214l-118 93l-153 -93h-211zM557 615h216l32 722z" />
<glyph unicode="&#xe3;" horiz-adv-x="1091" d="M60 0l211 613l418 1121h388l-18 -1119l-28 -615h-286l17 368h-289l-128 -368h-285zM557 615h216l32 722zM561 1846l49 71q93 135 201 141h7q67 0 160 -66q45 -32 78 -32q28 0 48 23l54 67l113 -86l-54 -68q-84 -102 -179 -107h-7q-67 0 -158 66q-58 41 -71 43h-4 q-28 0 -65 -54l-49 -71z" />
<glyph unicode="&#xe4;" horiz-adv-x="1091" d="M60 0l211 613l418 1121h388l-18 -1119l-28 -615h-286l17 368h-289l-128 -368h-285zM557 615h216l32 722zM577 1806l47 242h242l-47 -242h-242zM973 1806l47 242h243l-47 -242h-243z" />
<glyph unicode="&#xe5;" horiz-adv-x="1091" d="M60 0l211 611l417 1118h30q-26 48 -9 132q38 198 236 198q199 0 161 -198q-17 -84 -61 -132h31l-18 -1115l-27 -614h-286l17 368h-289l-128 -368h-285zM556 614h216l32 718zM827 1861q-16 -81 64 -81q81 0 97 81q15 80 -66 80q-80 0 -95 -80z" />
<glyph unicode="&#xe6;" horiz-adv-x="1568" d="M60 0l211 611l417 1118h934l-48 -246h-451l-96 -495h388l-48 -246h-388l-96 -496h451l-48 -246h-734l72 368h-151l-128 -368h-285zM556 614h115l131 671l2 47z" />
<glyph unicode="&#xe7;" horiz-adv-x="1043" d="M185 336l206 1057q70 364 476 364q407 0 337 -364l-45 -232h-283l45 232q22 117 -100 118q-124 0 -147 -118l-206 -1057q-22 -117 101 -117q124 0 146 117l46 233h283l-46 -233q-70 -360 -471 -363l-33 -59q41 20 73 20q31 0 53 -20q24 -20 15 -70l-20 -99 q-16 -85 -121 -93q-15 -2 -34 -2q-10 0 -20 1q-118 3 -101 94l6 29h118l-6 -29q-3 -15 17 -15t23 15l20 99q3 17 -15 18h-2q-17 0 -27 -17h-113l53 136q-288 45 -228 355z" />
<glyph unicode="&#xe8;" horiz-adv-x="924" d="M130 0l337 1734h734l-48 -246h-451l-96 -497h388l-49 -248h-388l-96 -496h451l-48 -247h-734zM566 2058h222l93 -253h-157z" />
<glyph unicode="&#xe9;" horiz-adv-x="924" d="M130 0l337 1734h734l-48 -246h-451l-96 -497h388l-49 -248h-388l-96 -496h451l-48 -247h-734zM683 1805l191 253h222l-256 -253h-157z" />
<glyph unicode="&#xea;" horiz-adv-x="924" d="M108 0l337 1734h734l-48 -246h-451l-96 -497h388l-49 -248h-388l-96 -496h451l-48 -247h-734zM478 1806l263 252h264l169 -252h-214l-118 93l-153 -93h-211z" />
<glyph unicode="&#xeb;" horiz-adv-x="924" d="M130 0l337 1734h734l-48 -246h-451l-96 -497h388l-49 -248h-388l-96 -496h451l-48 -247h-734zM529 1806l47 242h242l-47 -242h-242zM925 1806l47 242h243l-47 -242h-243z" />
<glyph unicode="&#xec;" horiz-adv-x="514" d="M135 0l336 1729h283l-336 -1729h-283zM346 2058h222l93 -253h-157z" />
<glyph unicode="&#xed;" horiz-adv-x="514" d="M135 0l336 1729h283l-336 -1729h-283zM462 1805l191 253h222l-256 -253h-157z" />
<glyph unicode="&#xee;" horiz-adv-x="514" d="M95 0l336 1729h283l-336 -1729h-283zM239 1806l263 252h264l169 -252h-214l-118 93l-153 -93h-211z" />
<glyph unicode="&#xef;" horiz-adv-x="514" d="M135 0l336 1729h283l-336 -1729h-283zM308 1806l47 242h242l-47 -242h-242zM704 1806l47 242h243l-47 -242h-243z" />
<glyph unicode="&#xf0;" d="M200 413l71 365q76 392 427 392q105 0 168 -59q48 248 -18 399l-251 -181l-106 164l233 168q-54 38 -159 82l112 222q191 -60 283 -134l194 140l105 -164l-173 -125q129 -231 51 -630l-124 -639q-80 -413 -486 -413q-407 0 -327 413zM483 413q-26 -133 98 -133 q123 0 149 133l71 365q25 129 -73 133q-15 1 -28 1q-53 0 -78 -10q-47 -19 -68 -124z" />
<glyph unicode="&#xf1;" horiz-adv-x="1073" d="M130 0l337 1734h283l73 -1006l195 1006h262l-337 -1734h-283l-69 974l-189 -974h-272zM552 1846l49 71q93 135 201 141h7q67 0 160 -66q45 -32 78 -32q28 0 48 23l54 67l113 -86l-54 -68q-84 -102 -179 -107h-7q-67 0 -158 66q-58 41 -71 43h-4q-28 0 -65 -54l-49 -71z " />
<glyph unicode="&#xf2;" d="M185 333l206 1061q71 364 477 364q407 0 336 -364l-206 -1061q-71 -364 -478 -365q-406 0 -335 365zM468 333q-23 -117 100 -117q124 0 147 117l206 1061q23 117 -100 117h-2q-122 0 -145 -117zM596 2058h222l93 -253h-157z" />
<glyph unicode="&#xf3;" d="M185 333l206 1061q71 364 477 364q407 0 336 -364l-206 -1061q-71 -364 -478 -365q-406 0 -335 365zM468 333q-23 -117 100 -117q124 0 147 117l206 1061q23 117 -100 117h-2q-122 0 -145 -117zM712 1805l191 253h222l-256 -253h-157z" />
<glyph unicode="&#xf4;" d="M185 333l206 1061q71 364 477 364q407 0 336 -364l-206 -1061q-71 -364 -478 -365q-406 0 -335 365zM468 333q-23 -117 100 -117q124 0 147 117l206 1061q23 117 -100 117h-2q-122 0 -145 -117zM530 1806l263 252h264l169 -252h-214l-118 93l-153 -93h-211z" />
<glyph unicode="&#xf5;" d="M185 333l206 1061q71 364 477 364q407 0 336 -364l-206 -1061q-71 -364 -478 -365q-406 0 -335 365zM468 333q-23 -117 100 -117q124 0 147 117l206 1061q23 117 -100 117h-2q-122 0 -145 -117zM542 1846l49 71q93 135 201 141h7q67 0 160 -66q45 -32 78 -32q28 0 48 23 l54 67l113 -86l-54 -68q-84 -102 -179 -107h-7q-67 0 -158 66q-58 41 -71 43h-4q-28 0 -65 -54l-49 -71z" />
<glyph unicode="&#xf6;" d="M185 333l206 1061q71 364 477 364q407 0 336 -364l-206 -1061q-71 -364 -478 -365q-406 0 -335 365zM468 333q-23 -117 100 -117q124 0 147 117l206 1061q23 117 -100 117h-2q-122 0 -145 -117zM558 1806l47 242h242l-47 -242h-242zM954 1806l47 242h243l-47 -242h-243z " />
<glyph unicode="&#xf7;" horiz-adv-x="1045" d="M288 866l45 234h805l-45 -234h-805zM360 319l63 325h324l-63 -325h-324zM555 1324l63 324h324l-63 -324h-324z" />
<glyph unicode="&#xf8;" d="M57 -318l186 372q-95 91 -58 282l206 1057q70 364 476 364q128 0 209 -36l115 231l138 -9l-152 -305q57 -89 27 -245l-206 -1057q-70 -363 -477 -363q-96 0 -167 20l-160 -320zM482 248q25 -29 86 -29q124 0 147 117l120 619zM522 612l402 805q6 93 -103 94 q-124 0 -147 -118z" />
<glyph unicode="&#xf9;" d="M185 333l272 1398h283l-272 -1398q-23 -117 100 -117q124 0 147 117l272 1398h283l-272 -1398q-71 -364 -478 -365q-406 0 -335 365zM596 2058h222l93 -253h-157z" />
<glyph unicode="&#xfa;" d="M185 333l272 1398h283l-272 -1398q-23 -117 100 -117q124 0 147 117l272 1398h283l-272 -1398q-71 -364 -478 -365q-406 0 -335 365zM712 1805l191 253h222l-256 -253h-157z" />
<glyph unicode="&#xfb;" d="M185 333l272 1398h283l-272 -1398q-23 -117 100 -117q124 0 147 117l272 1398h283l-272 -1398q-71 -364 -478 -365q-406 0 -335 365zM530 1806l263 252h264l169 -252h-214l-118 93l-153 -93h-211z" />
<glyph unicode="&#xfc;" d="M185 333l272 1398h283l-272 -1398q-23 -117 100 -117q124 0 147 117l272 1398h283l-272 -1398q-71 -364 -478 -365q-406 0 -335 365zM558 1806l47 242h242l-47 -242h-242zM954 1806l47 242h243l-47 -242h-243z" />
<glyph unicode="&#xfd;" horiz-adv-x="1106" d="M397 1734h300l62 -676l324 676h300l-534 -983l-12 -22l-142 -729h-283l142 729l-5 22zM739 1805l191 253h222l-256 -253h-157z" />
<glyph unicode="&#xfe;" horiz-adv-x="1010" d="M66 -327l445 2289h283l-64 -327h92q6 0 18 -1h19q376 0 296 -412l-57 -295q-59 -304 -346 -392q-71 -21 -195 -21h-45l-163 -841h-283zM567 793h64q59 0 83 9q82 31 101 125l57 295q26 134 -97 134h-99z" />
<glyph unicode="&#xff;" horiz-adv-x="1106" d="M397 1734h300l62 -676l324 676h300l-534 -983l-12 -22l-142 -729h-283l142 729l-5 22zM585 1806l47 242h242l-47 -242h-242zM981 1806l47 242h243l-47 -242h-243z" />
<glyph unicode="&#x152;" horiz-adv-x="1370" d="M184 381l234 1200q80 412 486 412q111 0 186 -31h652l-55 -279h-444q-2 -47 -12 -102l-90 -460h374l-54 -280h-374l-90 -460q-10 -55 -27 -102h444l-54 -279h-650q-87 -32 -200 -32q-406 0 -326 413zM467 381q-26 -133 97 -133q83 0 122 59l262 1348q-16 58 -98 59h-2 q-122 0 -147 -133z" />
<glyph unicode="&#x153;" horiz-adv-x="1590" d="M175 333l206 1061q71 364 477 364q104 0 177 -24h676l-48 -246h-451l-96 -497h388l-48 -248h-388l-97 -496h451l-48 -247h-654q-90 -32 -210 -32q-406 0 -335 365zM458 333q-23 -117 100 -117q124 0 147 117l206 1061q23 117 -100 117h-2q-122 0 -145 -117z" />
<glyph unicode="&#x2c6;" horiz-adv-x="956" d="M481 1806l263 252h264l169 -252h-214l-118 93l-153 -93h-211z" />
<glyph unicode="&#x2dc;" horiz-adv-x="947" d="M489 1846l49 71q93 135 201 141h7q67 0 160 -66q45 -32 78 -32q28 0 48 23l54 67l113 -86l-54 -68q-84 -102 -179 -107h-7q-67 0 -158 66q-58 41 -71 43h-4q-28 0 -65 -54l-49 -71z" />
<glyph unicode="&#x2000;" horiz-adv-x="1146" />
<glyph unicode="&#x2001;" horiz-adv-x="2292" />
<glyph unicode="&#x2002;" horiz-adv-x="1146" />
<glyph unicode="&#x2003;" horiz-adv-x="2292" />
<glyph unicode="&#x2004;" horiz-adv-x="764" />
<glyph unicode="&#x2005;" horiz-adv-x="573" />
<glyph unicode="&#x2006;" horiz-adv-x="382" />
<glyph unicode="&#x2007;" horiz-adv-x="382" />
<glyph unicode="&#x2008;" horiz-adv-x="286" />
<glyph unicode="&#x2009;" horiz-adv-x="458" />
<glyph unicode="&#x200a;" horiz-adv-x="127" />
<glyph unicode="&#x2010;" horiz-adv-x="786" d="M213 841l45 233h686l-45 -233h-686z" />
<glyph unicode="&#x2011;" horiz-adv-x="786" d="M213 841l45 233h686l-45 -233h-686z" />
<glyph unicode="&#x2012;" horiz-adv-x="786" d="M213 841l45 233h686l-45 -233h-686z" />
<glyph unicode="&#x2013;" horiz-adv-x="1172" d="M213 841l45 233h1060l-45 -233h-1060z" />
<glyph unicode="&#x2014;" horiz-adv-x="2048" d="M213 841l45 233h1963l-45 -233h-1963z" />
<glyph unicode="&#x2018;" horiz-adv-x="557" d="M385 1311l56 288l178 364h184l-122 -327h117l-63 -325h-350z" />
<glyph unicode="&#x2019;" horiz-adv-x="610" d="M444 1311l122 327h-117l63 325h350l-56 -288l-178 -364h-184z" />
<glyph unicode="&#x201a;" horiz-adv-x="557" d="M116 -327l122 327h-118l63 325h351l-56 -287l-179 -365h-183z" />
<glyph unicode="&#x201c;" horiz-adv-x="1047" d="M385 1311l56 288l178 364h184l-122 -327h117l-63 -325h-350zM875 1311l56 288l178 364h184l-122 -327h117l-63 -325h-350z" />
<glyph unicode="&#x201d;" horiz-adv-x="1100" d="M444 1311l122 327h-117l63 325h350l-56 -288l-178 -364h-184zM934 1311l122 327h-117l63 325h350l-56 -288l-178 -364h-184z" />
<glyph unicode="&#x201e;" horiz-adv-x="1100" d="M444 -326l122 327h-117l63 325h350l-56 -288l-178 -364h-184zM934 -326l122 327h-117l63 325h350l-56 -288l-178 -364h-184z" />
<glyph unicode="&#x2022;" horiz-adv-x="987" d="M321 983q30 151 156 257q128 107 278 107q151 0 237 -107q86 -106 56 -257q-29 -150 -156 -257q-127 -106 -278 -106q-150 0 -237 106q-85 107 -56 257z" />
<glyph unicode="&#x2026;" horiz-adv-x="2048" d="M120 0l63 325h325l-63 -325h-325zM803 0l63 325h325l-63 -325h-325zM1486 0l63 325h325l-63 -325h-325z" />
<glyph unicode="&#x202f;" horiz-adv-x="458" />
<glyph unicode="&#x2039;" horiz-adv-x="816" d="M325 1002l655 507l-65 -330l-261 -190l189 -184l-62 -320z" />
<glyph unicode="&#x203a;" horiz-adv-x="816" d="M224 485l62 320l260 184l-187 190l64 330l457 -507z" />
<glyph unicode="&#x205f;" horiz-adv-x="573" />
<glyph unicode="&#x20ac;" horiz-adv-x="1094" d="M174 743l31 158h141l31 160h-141l31 158h141l70 362q81 413 487 413q407 0 326 -413l-51 -263h-283l51 263q26 133 -97 133h-2q-122 0 -148 -133l-70 -362h382l-31 -158h-382l-31 -160h382l-31 -158h-382l-70 -362q-26 -133 97 -133q124 0 150 133l51 264h283l-51 -264 q-80 -412 -487 -412q-406 0 -326 412l70 362h-141z" />
<glyph unicode="&#x2122;" horiz-adv-x="1108" d="M362 944l131 673h-119l22 112h366l-22 -112h-119l-131 -673h-128zM662 945l153 785h127l45 -538l253 538h128l-153 -785h-122l86 440l-195 -440h-87l-26 440l-86 -440h-123z" />
<glyph unicode="&#x25fc;" horiz-adv-x="1735" d="M0 0v1735h1735v-1735h-1735z" />
</font>
</defs>
</svg>
