<?xml version="1.0" encoding="UTF-8" standalone="no"?>
<!DOCTYPE svg  PUBLIC '-//W3C//DTD SVG 1.1//EN'  'http://www.w3.org/Graphics/SVG/1.1/DTD/svg11.dtd'>
<svg xmlns="http://www.w3.org/2000/svg">
<defs>
<font id="SingaporeSling-Regular" horiz-adv-x="785">
<font-face underline-position="-75" font-weight="400" descent="-200" panose-1="0 0 0 0 0 0 0 0 0 0" units-per-em="1000" unicode-range="U+0020-2122" bbox="-35 -170 1107 771" x-height="609" underline-thickness="50" font-family="SingaporeSling" ascent="800" cap-height="609"/>
<missing-glyph horiz-adv-x="1000"/>
<glyph glyph-name=".notdef" horiz-adv-x="1000"/>
<glyph glyph-name=".null" horiz-adv-x="0"/>
<glyph glyph-name="nonmarkingreturn" horiz-adv-x="1000"/>
<glyph glyph-name="FL0020h" horiz-adv-x="470" unicode=" "/>
<glyph glyph-name="FL0021h" horiz-adv-x="246" unicode="!" d="M55 609h136v-419h-136v419zM55 107h136v-107h-136v107z"/>
<glyph glyph-name="FL0022h" horiz-adv-x="422" unicode='&quot;' d="M50 609h136v-135l-136 -89v224zM236 609h136v-135l-136 -89v224z"/>
<glyph glyph-name="FL0023h" horiz-adv-x="722" unicode="#" d="M431 346h-139v-66h139v66zM672 462v-116h-105v-66h105v-116h-105v-164h-136v164h-139v-164h-136v164h-106v116h106v66h-106v116h106v147h136v-147h139v147h136v-147h105z"/>
<glyph glyph-name="FL0024h" horiz-adv-x="655" unicode="$" d="M259 502h-38q-11 0 -21 -7t-17 -19t-11 -24q-4 -13 -3 -25q0 -11 5 -23q4 -12 12 -22t17 -16t17 -7h39v143zM389 252v-145h33q12 1 24 7t20 16t14 23q6 12 6 24q0 27 -18 51t-46 24h-33zM52 107h207v145h-46q-39 0 -70 14t-53 40q-22 24 -33 56q-12 32 -12 65q0 39 14 73 q15 34 39 57q24 24 58 38t72 14h31v102h130v-102h214v-107h-214v-143h46q39 0 71 -15q32 -16 56 -40t36 -56t12 -69q0 -29 -10 -61t-30 -58t-48 -43t-61 -17h-72v-102h-130v102h-207v107z"/>
<glyph glyph-name="FL0025h" horiz-adv-x="653" unicode="%" d="M400 102q0 -21 16 -36t36 -15q22 0 37 14t15 37q0 21 -14 37t-38 16q-22 0 -37 -16t-15 -37zM148 503q0 -21 16 -36t36 -15q22 0 37 14t15 37q0 21 -14 37t-38 16q-22 0 -37 -16t-15 -37zM287 103q0 25 6 46l-108 -149h-161l265 364q-19 -12 -41 -18t-47 -6q-35 0 -65 12 t-52 35q-22 22 -36 52q-13 30 -13 65q0 34 13 64q14 30 36 54q22 23 52 36t65 13t65 -13q30 -14 53 -36t35 -52t12 -66q0 -10 -2 -20t-3 -20l106 145h160l-267 -367q40 28 93 28q35 0 65 -13t53 -35t35 -54q12 -30 12 -65t-12 -65t-36 -52q-22 -22 -52 -34t-65 -13 q-35 1 -65 13t-52 34t-36 52q-13 30 -13 65z"/>
<glyph glyph-name="FL0026h" horiz-adv-x="734" unicode="&amp;" d="M222 269q-29 -3 -46 -26t-17 -48q0 -11 4 -25q3 -14 11 -25q8 -12 19 -20t25 -8h247q14 0 25 8q10 8 18 20q8 11 12 25t4 25q0 25 -17 48t-46 26h-239zM219 379h465v-110h-57q9 -17 15 -35t6 -40q0 -36 -12 -71t-34 -63q-24 -28 -58 -44t-79 -16h-247q-46 0 -80 16 t-57 44t-35 63t-11 71q0 35 14 62t38 59q-23 25 -37 59t-14 68q0 36 13 67t37 53t58 34t74 13h271v-117h-271q-28 0 -44 -14t-15 -36q0 -24 16 -42t44 -21z"/>
<glyph glyph-name="FL0027h" horiz-adv-x="236" unicode="&apos;" d="M50 609h136v-135l-136 -89v224z"/>
<glyph glyph-name="FL0028h" horiz-adv-x="362" unicode="(" d="M35 304q1 64 19 120t53 96q35 41 87 65t118 24v-107q-24 0 -51 -16t-51 -45q-24 -27 -38 -63q-16 -36 -16 -73t14 -73t34 -63q22 -28 50 -45t57 -17v-107q-67 0 -119 28t-86 71q-35 44 -53 98t-18 107z"/>
<glyph glyph-name="FL0029h" horiz-adv-x="362" unicode=")" d="M327 304q0 -53 -18 -107t-53 -98q-34 -43 -86 -71t-119 -28v107q29 0 57 17t50 45q22 27 34 63q14 36 14 73t-16 73t-38 63q-24 29 -51 45t-51 16v107q66 0 118 -24t87 -65q35 -40 53 -96t19 -120z"/>
<glyph glyph-name="asterisk" horiz-adv-x="320" unicode="*" d="M295 541l-82 -15l56 -60l-71 -53l-39 76l-41 -76l-71 53l60 61l-82 14l28 83l75 -37l-12 85h87l-11 -86l77 38z"/>
<glyph glyph-name="FL002Bh" horiz-adv-x="411" unicode="+" d="M263 476v-97h98v-116h-98v-98h-116v98h-97v116h97v97h116z"/>
<glyph glyph-name="FL002Ch" horiz-adv-x="236" unicode="," d="M50 107h136v-135l-136 -89v224z"/>
<glyph glyph-name="FL002Dh" horiz-adv-x="396" unicode="-" d="M50 379h296v-116h-296v116z"/>
<glyph glyph-name="FL002Eh" horiz-adv-x="236" unicode="." d="M50 107h136v-107h-136v107z"/>
<glyph glyph-name="FL002Fh" horiz-adv-x="653" unicode="/" d="M627 609l-442 -609h-161l443 609h160z"/>
<glyph glyph-name="FL0030h" horiz-adv-x="732" unicode="0" d="M575 301q-1 33 -11 65t-29 58l-230 -319q28 -9 59 -9q44 0 82 16t67 42t45 64t17 83zM158 301q0 -69 41 -122l235 321q-32 12 -68 12q-43 0 -81 -17t-66 -47q-29 -30 -45 -67q-16 -38 -16 -80zM35 301q0 69 26 130t71 106t105 71t129 27q72 0 132 -26t104 -71t70 -106 q25 -61 25 -131q1 -70 -25 -130t-70 -104t-106 -69q-60 -25 -130 -25q-69 0 -129 25t-105 69t-71 104t-26 130z"/>
<glyph glyph-name="FL0031h" horiz-adv-x="311" unicode="1" d="M25 492l89 117h147v-609h-137v492h-99z"/>
<glyph glyph-name="FL0032h" horiz-adv-x="661" unicode="2" d="M608 107v-107h-558v179q0 37 12 69t36 56t56 40q32 15 71 15h215q8 -1 17 7t17 19t12 23q5 12 5 19q1 10 -3 23q-4 12 -11 24t-17 20t-21 8h-382v107h375q38 0 72 -14t58 -38q24 -23 39 -57q14 -34 14 -73q0 -33 -12 -65q-11 -32 -33 -56t-53 -40q-31 -14 -70 -14h-197 q-28 0 -46 -24t-18 -51v-70h422z"/>
<glyph glyph-name="FL0033h" horiz-adv-x="654" unicode="3" d="M166 269l-72 110h341q28 3 44 21t16 42q1 22 -15 36t-44 14h-386v117h386q40 -1 74 -13t58 -34t37 -53t13 -67q0 -34 -14 -68t-37 -59q24 -32 38 -59t14 -62q1 -36 -11 -71t-35 -63t-57 -44t-80 -16h-386v117h386q14 0 25 8t19 20q8 11 11 25q4 14 4 25q0 25 -17 48 t-46 26h-266z"/>
<glyph glyph-name="FL0034h" horiz-adv-x="677" unicode="4" d="M491 609h136v-609h-136v267h-441v342h136v-234h305v234z"/>
<glyph glyph-name="FL0035h" horiz-adv-x="660" unicode="5" d="M50 107h377q11 1 23 7t21 16t15 23q6 12 5 24q1 27 -17 51t-47 24h-377v357h558v-107h-434v-143h266q39 0 71 -15q31 -16 55 -40t36 -56t13 -69q-1 -29 -11 -61t-30 -58t-46 -43q-28 -17 -62 -17h-416v107z"/>
<glyph glyph-name="FL0036h" horiz-adv-x="701" unicode="6" d="M519 267h-358q7 -31 24 -60t39 -51t48 -36t49 -13h198v160zM35 304q0 64 24 120q25 56 67 96q42 41 100 65t128 24h297v-107h-336q-19 0 -39 -10t-40 -28t-36 -41t-27 -48h478v-375h-342q-66 0 -117 28t-86 71q-35 44 -53 98t-18 107z"/>
<glyph glyph-name="FL0037h" horiz-adv-x="620" unicode="7" d="M220 0h-170l344 502h-344v107h520v-100z"/>
<glyph glyph-name="FL0038h" horiz-adv-x="690" unicode="8" d="M219 379h252q28 3 44 21t16 42q1 22 -15 36t-44 14h-254q-28 0 -44 -14t-15 -36q0 -24 16 -42t44 -21zM468 269h-246q-29 -3 -46 -26t-17 -48q0 -11 4 -25q3 -14 11 -25q8 -12 19 -20t25 -8h254q14 0 25 8t19 20q8 11 11 25q4 14 4 25q0 25 -17 48t-46 26zM36 442 q0 36 14 67t37 53t57 34t75 13h254q41 -1 75 -13t56 -34q24 -22 37 -53t13 -67q0 -34 -14 -68t-37 -59q24 -32 38 -59t14 -62q1 -36 -11 -71t-34 -63t-58 -44q-34 -16 -79 -16h-254q-45 0 -79 16t-58 44t-36 63t-11 71q0 35 14 62t38 59q-23 25 -37 59t-14 68z"/>
<glyph glyph-name="FL0039h" horiz-adv-x="701" unicode="9" d="M182 342h358q-8 31 -24 60t-39 51q-22 21 -47 35t-50 14h-198v-160zM666 305q0 -63 -24 -119t-66 -98t-102 -64q-58 -24 -127 -24h-297v107h336q20 1 40 11t39 28t35 40q16 23 28 48h-478v375h342q66 1 117 -27t86 -72t53 -98t18 -107z"/>
<glyph glyph-name="FL003Ah" horiz-adv-x="236" unicode=":" d="M50 379h136v-107h-136v107zM50 107h136v-107h-136v107z"/>
<glyph glyph-name="FL003Bh" horiz-adv-x="236" unicode=";" d="M50 107h136v-135l-136 -89v224zM50 272v107h136v-107h-136z"/>
<glyph glyph-name="FL003Ch" horiz-adv-x="432" unicode="&lt;" d="M406 609l-221 -304l222 -305h-161l-221 305l221 304h160z"/>
<glyph glyph-name="FL003Dh" horiz-adv-x="446" unicode="=" d="M50 297h346v-116h-346v116zM50 462h346v-116h-346v116z"/>
<glyph glyph-name="FL003Eh" horiz-adv-x="432" unicode="&gt;" d="M26 609h160l221 -304l-221 -305h-161l222 305z"/>
<glyph glyph-name="FL003Fh" horiz-adv-x="643" unicode="?" d="M107 107h136v-107h-136v107zM107 179q1 37 9 69t28 56t54 40q34 15 84 15h151q8 -1 17 7q8 8 16 19t13 23t5 19q0 10 -4 23q-4 12 -10 24t-16 20t-22 8h-382v107h375q39 0 73 -14t58 -38q24 -23 38 -57t14 -73q0 -33 -12 -65t-34 -56t-52 -40q-31 -14 -70 -14h-132 q-24 0 -36 -12t-19 -25q-5 -13 -7 -25t-3 -12z"/>
<glyph glyph-name="at" horiz-adv-x="733" unicode="@" d="M583 358q1 39 -11 72t-33 56l-51 -286q13 2 31 16t47 52q9 20 13 44t4 46zM344 202l32 68q16 55 16 106q0 10 -3 20t-11 17v8q0 1 -4 1q-20 0 -34 -15t-26 -48q-20 -62 -20 -110q0 -6 2 -16t10 -21q4 -8 12 -14t16 -5q4 1 6 3t4 5v1zM377 70q69 0 148 35q-27 -10 -68 -10 q-26 1 -42 11t-27 25q-5 -5 -10 -6l-4 -2t-3 -2l-20 -12v2h-2v-1l-10 -4t-22 -2q-31 0 -55 16t-43 39q-18 23 -30 53t-18 57q0 95 45 160q29 49 62 72t83 23q23 0 35 -6t22 -19l1 13h83q-26 14 -56 23t-62 9q-60 0 -104 -17t-77 -49q-34 -32 -52 -75t-18 -106q1 -51 17 -95 t46 -72t74 -44t107 -16zM631 189q-15 -17 -27 -31t-26 -25h130l-8 -12q-42 -40 -81 -70t-71 -44q-42 -19 -83 -27t-86 -7h-18q-83 1 -145 25t-102 67t-60 100t-19 122v16q1 65 19 125t58 106t103 72q63 28 152 28h33q60 0 112 -21t92 -57t62 -88q22 -50 22 -110 q0 -52 -14 -92t-43 -77z"/>
<glyph glyph-name="FL0041h" d="M25 0l298 609h137l300 -609h-146l-82 169h-172l-69 94l-120 -263h-146zM393 479h-4l-94 -201h194z" unicode="A"/>
<glyph glyph-name="FL0042h" horiz-adv-x="655" unicode="B" d="M186 492v-113h250q28 3 44 21t16 42q0 22 -16 36t-43 14h-251zM186 362v-245h251q14 0 25 8q10 8 18 20q8 11 12 25t4 25q0 25 -17 48t-46 26h-175zM50 609h387q41 -1 75 -13t57 -34q24 -22 37 -53t13 -67q0 -35 -17 -69t-40 -55q22 -21 40 -55t18 -69q0 -36 -12 -71 t-34 -63q-24 -28 -58 -44t-79 -16h-387v609z"/>
<glyph glyph-name="FL0043h" horiz-adv-x="662" unicode="C" d="M35 304q-1 59 19 114q20 56 56 98t88 68q51 26 114 25h300v-107h-297q-25 0 -53 -16t-52 -45q-24 -27 -38 -63q-16 -36 -16 -73t15 -73t39 -63q24 -28 52 -45q30 -17 59 -17h291v-107h-303q-66 0 -117 28t-86 71q-35 44 -53 98t-18 107z"/>
<glyph glyph-name="FL0044h" horiz-adv-x="701" unicode="D" d="M387 502h-337v107h318q69 0 124 -24t94 -65q40 -40 60 -96t20 -120q0 -53 -18 -107t-53 -98q-35 -43 -85 -71t-117 -28h-343v395h132v-288h198q28 0 58 17t54 45q24 27 38 63q15 36 15 73q0 36 -17 71q-18 35 -42 63q-24 27 -51 45t-48 18z"/>
<glyph glyph-name="FL0045h" horiz-adv-x="592" unicode="E" d="M50 267v108h492v-108h-492zM50 0v107h492v-107h-492zM50 609h492v-107h-492v107z"/>
<glyph glyph-name="FL0046h" horiz-adv-x="592" unicode="F" d="M50 609h492v-107h-492v107zM50 0v374h447v-106h-311v-268h-136z"/>
<glyph glyph-name="FL0047h" horiz-adv-x="701" unicode="G" d="M35 304q1 64 19 120t55 96q37 41 93 65t130 24h319v-107h-336q-26 0 -54 -18t-51 -45q-22 -28 -38 -63t-16 -71q0 -37 15 -73t39 -63q24 -28 52 -45q30 -17 59 -17h198v288h132v-395h-342q-66 0 -117 28t-86 71q-35 44 -53 98t-18 107z"/>
<glyph glyph-name="FL0068h" horiz-adv-x="620" unicode="H" d="M434 609h136v-609h-136v267h-248v-267h-136v609h136v-234h248v234z"/>
<glyph glyph-name="FL0049h" horiz-adv-x="581" unicode="I" d="M531 0h-481v107h173v395h-173v107h481v-107h-172v-395h172v-107z"/>
<glyph glyph-name="FL004Ah" horiz-adv-x="544" unicode="J" d="M25 117h263q18 0 31 7q13 6 21 18t13 26q4 14 4 25v309h-123v107h260v-441q0 -34 -10 -64t-30 -54t-52 -36q-32 -14 -76 -14h-212z"/>
<glyph glyph-name="FL004Bh" horiz-adv-x="619" unicode="K" d="M186 609v-289l247 289h161l-254 -302l254 -307h-161l-247 289v-289h-136v609h136z"/>
<glyph glyph-name="FL004Ch" horiz-adv-x="522" unicode="L" d="M50 609h136v-502h311l-90 -107h-357v609z"/>
<glyph glyph-name="FL004Dh" horiz-adv-x="1069" unicode="M" d="M49 609h136v-91l74 91h175q66 0 108 -27t59 -72l74 99h175q44 1 76 -13t52 -38t30 -54t10 -63v-441h-137v416q0 12 -5 26q-4 14 -14 24q-10 12 -22 19t-28 7h-211v-492h-136v416q1 36 -17 56t-52 20h-211v-492h-136v609z"/>
<glyph glyph-name="FL004Eh" horiz-adv-x="677" unicode="N" d="M50 609h136v-91l74 91h199q45 1 77 -13t52 -38t30 -54t9 -63v-441h-137v416q0 38 -13 57t-56 19h-235v-492h-136v609z"/>
<glyph glyph-name="FL004Fh" horiz-adv-x="732" unicode="O" d="M158 301q0 -41 16 -79t45 -66q27 -28 65 -44t80 -16q44 0 82 16t67 42t45 64t17 83q0 43 -16 81t-44 67t-66 46t-83 17q-43 0 -81 -17t-66 -47q-29 -30 -45 -67q-16 -38 -16 -80zM35 301q0 69 26 130t71 106t105 71t129 27q72 0 132 -26t104 -71t70 -106q25 -61 25 -131 q1 -70 -25 -130t-70 -104t-106 -69q-60 -25 -130 -25q-69 0 -129 25t-105 69t-71 104t-26 130z"/>
<glyph glyph-name="FL0050h" horiz-adv-x="630" unicode="P" d="M186 492v-188h220q16 0 28 10t20 24t14 32q4 16 4 29q0 10 -4 26t-12 31q-8 16 -18 26q-11 10 -25 10h-227zM50 609h363q48 0 82 -19q35 -20 57 -50t32 -68t11 -73q1 -33 -11 -69t-34 -65t-51 -49q-30 -20 -67 -20h-174l-72 91v-287h-136v609z"/>
<glyph glyph-name="FL0071h" horiz-adv-x="732" unicode="Q" d="M434 210v-103q64 21 102 73t38 121q0 42 -16 80q-16 37 -45 67q-28 30 -66 47t-81 17q-45 0 -83 -17t-66 -46t-44 -67t-16 -81q0 -35 10 -66t29 -56q18 -25 44 -43t58 -29v194zM434 -170l-136 89v60q-58 11 -106 40t-83 71t-55 96t-19 115q0 70 25 131q26 61 70 106 t104 71t132 26q69 -1 129 -27t105 -71t71 -106t26 -130q0 -61 -20 -115t-55 -96t-83 -70t-105 -40v-150z"/>
<glyph glyph-name="FL0061h" horiz-adv-x="633" unicode="R" d="M50 609h363q47 -1 81 -17t56 -44t34 -62q11 -35 11 -72q0 -72 -28 -122t-90 -67l174 -225h-163l-260 314h172q14 0 28 10t24 24t14 32q6 16 6 29q0 11 -4 25t-12 27t-19 22t-24 9h-363v117z"/>
<glyph glyph-name="FL0053h" horiz-adv-x="655" unicode="S" d="M52 107h370q12 1 24 7t20 16t14 23q6 12 6 24q0 27 -18 51t-46 24h-209q-39 0 -70 14t-53 40q-22 24 -33 56q-12 32 -12 65q0 39 14 73q15 34 39 57q24 24 58 38t72 14h375v-107h-382q-11 0 -21 -7t-17 -19t-11 -24q-4 -13 -3 -25q0 -11 5 -23q4 -12 12 -22t17 -16t17 -7 h215q39 0 71 -15q32 -16 56 -40t36 -56t12 -69q0 -29 -10 -61t-30 -58t-48 -43t-61 -17h-409v107z"/>
<glyph glyph-name="FL0054h" horiz-adv-x="620" unicode="T" d="M50 609h520v-107h-192v-502h-136v502h-192v107z"/>
<glyph glyph-name="FL0055h" horiz-adv-x="677" unicode="U" d="M627 0h-136v91l-74 -91h-199q-44 0 -76 14t-52 36q-20 24 -30 54t-10 64v441h137v-416q1 -39 13 -57t56 -19h235v492h136v-609z"/>
<glyph glyph-name="FL0056h" d="M398 156l216 453h146l-298 -609h-136l-301 609h146l219 -453h8z" unicode="V"/>
<glyph glyph-name="FL0057h" horiz-adv-x="1069" unicode="W" d="M1019 0h-136v91l-74 -91h-175q-66 0 -108 27t-59 72l-74 -99h-175q-44 0 -76 14t-52 36q-20 24 -30 54t-10 64v441h137v-416q0 -11 5 -25q4 -14 14 -26t22 -18q12 -7 28 -7h211v492h136v-416q-1 -35 17 -55t52 -21h211v492h136v-609z"/>
<glyph glyph-name="FL0058h" horiz-adv-x="654" unicode="X" d="M628 609l-221 -304l222 -305h-161l-141 194l-141 -194h-161l222 305l-221 304h160l141 -194l141 194h160z"/>
<glyph glyph-name="FL0059h" horiz-adv-x="667" unicode="Y" d="M479 609h138v-429q0 -28 -11 -60q-10 -32 -30 -58t-48 -44t-62 -18h-409v107h370q12 1 22 7t17 16q6 10 10 22t4 24v76h-262q-39 0 -70 14q-30 14 -52 40q-22 24 -34 56t-12 65v182h134v-182q0 -15 6 -27t13 -21t17 -15t18 -5h241v250z"/>
<glyph glyph-name="FL005Ah" horiz-adv-x="620" unicode="Z" d="M570 0h-520v107l344 395h-344v107h520v-107l-344 -395h344v-107z"/>
<glyph glyph-name="FL005Bh" horiz-adv-x="360" unicode="[" d="M310 0h-260v609h260v-107h-124v-395h124v-107z"/>
<glyph glyph-name="FL005Ch" horiz-adv-x="653" unicode="\" d="M25 609h160l443 -609h-161z"/>
<glyph glyph-name="FL005Dh" horiz-adv-x="360" unicode="]" d="M50 0v107h124v395h-124v107h260v-609h-260z"/>
<glyph glyph-name="FL005Eh" d="M387 453l-217 -453h-146l298 609h136l301 -609h-146l-218 453h-8z" unicode="^"/>
<glyph glyph-name="FL005Fh" horiz-adv-x="446" unicode="_" d="M50 116h346v-116h-346v116z"/>
<glyph glyph-name="FL0060h" horiz-adv-x="217" unicode="`" d="M192 515h-97l-70 94h125z"/>
<glyph glyph-name="a" d="M388 479l-96 -203h201l-100 203h-5zM323 609h137l300 -609h-146l-81 168h-284l-78 -168h-146z" unicode="a"/>
<glyph glyph-name="FL0062h" horiz-adv-x="655" unicode="b" d="M186 492v-113h250q28 3 44 21t16 42q0 22 -16 36t-43 14h-251zM186 362v-245h251q14 0 25 8q10 8 18 20q8 11 12 25t4 25q0 25 -17 48t-46 26h-175zM50 609h387q41 -1 75 -13t57 -34q24 -22 37 -53t13 -67q1 -36 -17 -70t-42 -54q24 -29 42 -59t18 -65q0 -36 -12 -71 t-34 -63q-24 -28 -58 -44t-79 -16h-387v609z"/>
<glyph glyph-name="FL0063h" horiz-adv-x="662" unicode="c" d="M35 304q-1 59 19 114q20 56 56 98t88 68q51 26 114 25h300v-107h-297q-25 0 -53 -16t-52 -45q-24 -27 -38 -63q-16 -36 -16 -73t15 -73t39 -63q24 -28 52 -45q30 -17 59 -17h291v-107h-303q-66 0 -117 28t-86 71q-35 44 -53 98t-18 107z"/>
<glyph glyph-name="FL0064h" horiz-adv-x="701" unicode="d" d="M387 502h-205v-395h198q28 0 58 17t54 45q24 27 38 63q15 36 15 73q0 41 -17 77q-18 36 -42 62t-51 42t-48 16zM666 304q0 -53 -18 -107t-53 -98q-35 -43 -85 -71t-117 -28h-343v609h318q78 0 134 -24t92 -65q36 -40 54 -96t18 -120z"/>
<glyph glyph-name="E" horiz-adv-x="592" unicode="e" d="M50 609h492v-107h-356v-127h311v-108h-311v-160h356v-107h-492v609z"/>
<glyph glyph-name="FL0066h" horiz-adv-x="592" unicode="f" d="M50 609h492v-107h-356v-128h311v-106h-311v-268h-136v609z"/>
<glyph glyph-name="g" horiz-adv-x="701" unicode="g" d="M35 304q0 64 20 120q19 56 59 96q40 41 100 65t140 24h297v-107h-336q-21 0 -49 -18t-52 -45q-24 -28 -42 -63q-16 -35 -16 -71q0 -37 15 -73t39 -63q24 -28 52 -45q30 -17 59 -17h198v288h132v-395h-342q-66 0 -117 28t-86 71q-35 44 -53 98t-18 107z"/>
<glyph glyph-name="FL0048h" horiz-adv-x="677" unicode="h" d="M491 609h136v-609h-136v267h-305v-267h-136v609h136v-234h305v234z"/>
<glyph glyph-name="i" horiz-adv-x="246" unicode="i" d="M55 609h136v-609h-136v609z"/>
<glyph glyph-name="FL006Ah" horiz-adv-x="544" unicode="j" d="M25 117h263q18 0 31 7q13 6 21 18t13 26q4 14 4 25v416h137v-441q0 -34 -10 -64t-30 -54t-52 -36q-32 -14 -76 -14h-212z"/>
<glyph glyph-name="FL006Bh" horiz-adv-x="619" unicode="k" d="M186 609v-289l247 289h161l-254 -302l254 -307h-161l-247 289v-289h-136v609h136z"/>
<glyph glyph-name="l" horiz-adv-x="547" unicode="l" d="M50 609h136v-502h311v-107h-447v609z"/>
<glyph glyph-name="FL006Dh" horiz-adv-x="1069" unicode="m" d="M49 609h136v-91l74 91h175q66 0 108 -27t59 -72l74 99h175q44 1 76 -13t52 -38t30 -54t10 -63v-441h-137v416q0 12 -5 26q-4 14 -14 24q-10 12 -22 19t-28 7h-211v-492h-136v416q1 36 -17 56t-52 20h-211v-492h-136v609z"/>
<glyph glyph-name="FL006Eh" horiz-adv-x="677" unicode="n" d="M50 609h136v-91l74 91h199q45 1 77 -13t52 -38t30 -54t9 -63v-441h-137v416q0 38 -13 57t-56 19h-235v-492h-136v609z"/>
<glyph glyph-name="o" horiz-adv-x="732" unicode="o" d="M158 301q0 -41 16 -79t45 -66q27 -28 65 -44t80 -16q44 0 82 16t67 42t45 64t17 83q0 43 -16 81t-44 67t-66 46t-83 17q-43 0 -81 -17t-66 -47q-29 -30 -45 -67q-16 -38 -16 -80zM35 301q0 69 26 130t71 106t105 71t129 27q72 0 132 -26t104 -71t70 -106q25 -61 25 -131 q1 -70 -25 -130t-70 -104t-106 -69q-60 -25 -130 -25q-69 0 -129 25t-105 69t-71 104t-26 130z"/>
<glyph glyph-name="p" horiz-adv-x="630" unicode="p" d="M186 492v-188h220q16 0 28 10t20 24t14 32q4 16 4 29q0 10 -4 26t-12 31q-8 16 -18 26q-11 10 -25 10h-227zM50 609h363q48 0 82 -19q35 -20 57 -50t32 -68t11 -73q1 -33 -11 -69t-34 -65t-51 -49q-30 -20 -67 -20h-174l-72 91v-287h-136v609z"/>
<glyph glyph-name="FL0051h" horiz-adv-x="732" unicode="q" d="M306 151l66 150l109 -172q42 27 68 71t26 101q0 43 -16 81t-44 67t-66 46t-83 17q-43 0 -81 -17t-66 -47q-29 -30 -45 -67q-16 -38 -16 -80q0 -39 14 -74t39 -63t58 -45q33 -18 71 -22zM35 301q0 69 26 130t71 106t105 71t129 27q72 0 132 -26t104 -71t70 -106 q25 -61 25 -131q-1 -91 -41 -163t-109 -114l30 -46l-67 -148l-93 147q-17 -4 -51 -4q-69 0 -129 25t-105 69t-71 104t-26 130z"/>
<glyph glyph-name="R" horiz-adv-x="642" unicode="r" d="M50 609h370q49 0 83 -17t56 -45q22 -27 32 -63t10 -72q1 -32 -9 -63t-27 -57t-41 -45t-53 -27l182 -220h-161l-271 320h199q10 0 19 10t17 24t12 27q4 14 4 22q0 9 -2 25t-9 30q-6 14 -16 24t-25 10h-234v-492h-136v609z"/>
<glyph glyph-name="S" horiz-adv-x="655" unicode="s" d="M52 107h370q12 1 24 7t20 16t14 23q6 12 6 24q0 27 -18 51t-46 24h-209q-39 0 -70 14t-53 40q-22 24 -33 56q-12 32 -12 65q0 39 14 73q15 34 39 57q24 24 58 38t72 14h375v-107h-382q-11 0 -21 -7t-17 -19t-11 -24q-4 -13 -3 -25q0 -11 5 -23q4 -12 12 -22t17 -16t17 -7 h215q39 0 71 -15q32 -16 56 -40t36 -56t12 -69q0 -29 -10 -61t-30 -58t-48 -43t-61 -17h-409v107z"/>
<glyph glyph-name="FL0074h" horiz-adv-x="620" unicode="t" d="M50 609h520v-107h-192v-502h-136v502h-192v107z"/>
<glyph glyph-name="FL0075h" horiz-adv-x="677" unicode="u" d="M627 0h-136v91l-74 -91h-199q-44 0 -76 14t-52 36q-20 24 -30 54t-10 64v441h137v-416q1 -39 13 -57t56 -19h235v492h136v-609z"/>
<glyph glyph-name="FL0076h" d="M397 156l217 453h146l-298 -609h-136l-301 609h146l218 -453h8z" unicode="v"/>
<glyph glyph-name="FL0077h" horiz-adv-x="1069" unicode="w" d="M1019 0h-136v91l-74 -91h-175q-66 0 -108 27t-59 72l-74 -99h-175q-44 0 -76 14t-52 36q-20 24 -30 54t-10 64v441h137v-416q0 -11 5 -25q4 -14 14 -26t22 -18q12 -7 28 -7h211v492h136v-416q-1 -35 17 -55t52 -21h211v492h136v-609z"/>
<glyph glyph-name="FL0078h" horiz-adv-x="654" unicode="x" d="M628 609l-221 -304l222 -305h-161l-141 194l-141 -194h-161l222 305l-221 304h160l141 -194l141 194h160z"/>
<glyph glyph-name="FL0079h" horiz-adv-x="652" unicode="y" d="M258 288l-233 321h160l141 -194l141 194h160l-233 -321v-288h-136v288z"/>
<glyph glyph-name="FL007Ah" horiz-adv-x="620" unicode="z" d="M570 0h-520v107l344 395h-344v107h520v-107l-344 -395h344v-107z"/>
<glyph glyph-name="FL007Bh" horiz-adv-x="360" unicode="{" d="M310 -55h-260v718h260v-107h-124v-504h124v-107z"/>
<glyph glyph-name="FL007Ch" horiz-adv-x="246" unicode="|" d="M55 711h136v-813h-136v813z"/>
<glyph glyph-name="FL007Dh" horiz-adv-x="360" unicode="}" d="M76 -55v107h124v504h-124v107h260v-718h-260z"/>
<glyph glyph-name="FL007Eh" horiz-adv-x="429" unicode="~" d="M95 609h118l37 -51l29 51h125l-70 -94h-118l-38 50l-28 -50h-125z"/>
<glyph glyph-name="space" horiz-adv-x="368" unicode=" "/>
<glyph glyph-name="FL00A1h" horiz-adv-x="246" unicode="¡" d="M191 0h-136v419h136v-419zM191 502h-136v107h136v-107z"/>
<glyph glyph-name="FL00A2h" horiz-adv-x="672" unicode="¢" d="M322 502q-24 -1 -52 -18q-28 -16 -51 -44t-38 -63t-15 -72q0 -35 14 -69t36 -62t50 -46t56 -21v395zM45 304q-1 59 19 114q20 56 56 98t88 68q51 26 114 25v102h130v-102h170v-107h-170v-395h170v-107h-170v-102h-130v102h-3q-66 0 -117 28t-86 71q-35 44 -53 98t-18 107 z"/>
<glyph glyph-name="FL00A3h" horiz-adv-x="583" unicode="£" d="M50 379h107q-7 15 -9 31t-2 32q0 36 13 67t37 53t58 34t74 13h33v-117h-33q-28 0 -44 -14t-15 -36q0 -24 16 -42t44 -21h120v-110h-123q-27 -5 -42 -28t-15 -46q0 -11 4 -25q3 -14 11 -25q8 -13 19 -21t25 -8h205v-116h-483v116h109q-8 18 -11 38t-3 40q0 21 5 39t15 35 h-115v111z"/>
<glyph glyph-name="FL00A4h" horiz-adv-x="654" unicode="¤" d="M265 304q0 -25 18 -43t43 -18q26 0 44 17t17 44q1 26 -17 46t-44 19q-26 1 -44 -19t-17 -46zM132 306q0 62 33 112l-139 191h160l80 -111q26 10 60 10q37 0 61 -10l81 111h160l-139 -192q15 -23 23 -51t8 -60t-8 -60t-24 -52l141 -194h-161l-84 115q-34 -8 -58 -8 q-15 -1 -29 1t-27 7l-84 -115h-161l140 193q-33 49 -33 113z"/>
<glyph glyph-name="FL00A5h" horiz-adv-x="652" unicode="¥" d="M154 178h104v58h-104v116h57l-186 257h160l141 -194l141 194h160l-187 -257h60v-116h-106v-58h106v-116h-106v-62h-136v62h-104v116z"/>
<glyph glyph-name="FL00A6h" horiz-adv-x="246" unicode="¦" d="M55 609h136v-255h-136v255zM55 271h136v-271h-136v271z"/>
<glyph glyph-name="FL00A7h" horiz-adv-x="654" unicode="§" d="M265 304q0 -25 18 -43t43 -18q26 0 44 17t17 44q1 26 -17 46t-44 19q-26 1 -44 -19t-17 -46zM132 306q0 62 33 112q15 27 36 44q21 16 43 26t44 14t38 6q37 0 61 -10l81 111h160l-139 -192q15 -23 23 -51t8 -60t-8 -60t-24 -52q-18 -30 -39 -46t-42 -25t-42 -12t-39 -4 q-15 -1 -29 1t-27 7l-84 -115h-161l140 193q-33 49 -33 113z"/>
<glyph glyph-name="FL00A8h" horiz-adv-x="416" unicode="¨" d="M50 515v94h125v-94h-125zM366 609v-94h-125v94h125z"/>
<glyph glyph-name="FL00A9h" horiz-adv-x="282" unicode="©" d="M174 550l16 -5q-8 -41 -48 -41q-57 0 -57 61q0 60 57 60q36 0 47 -32l-17 -4q-11 21 -30 21q-38 0 -38 -45q0 -41 37 -41q25 0 33 26zM142 655q-51 0 -78 -45q-12 -23 -12 -45t12 -41q9 -18 31 -34l8 -1q13 -5 23 -7t16 -2q9 0 20 2t23 8q18 11 31 33t13 42v6q1 15 -7 30 t-20 27t-27 20t-31 7h-2zM142 671q29 0 48 -13q31 -16 40 -41q17 -29 17 -52t-17 -52q-8 -14 -14 -20t-17 -13l-8 -6q-23 -10 -36 -12l-13 -2q-8 0 -55 14q-13 11 -21 18t-18 21q-13 22 -13 52q0 60 54 93q22 13 53 13z"/>
<glyph glyph-name="FL00AAh" horiz-adv-x="424" unicode="ª" d="M174 671h74l151 -304h-84l-39 81h-131l-37 -81h-83zM175 515h71l-35 76z"/>
<glyph glyph-name="FL00ABh" horiz-adv-x="514" unicode="«" d="M488 390l-68 -68l69 -70l-82 -82l-151 152l150 150zM257 389l-68 -68l69 -70l-82 -82l-151 152l150 150z"/>
<glyph glyph-name="FL00ACh" horiz-adv-x="411" unicode="¬" d="M50 379h311v-214h-117v98h-194v116z"/>
<glyph glyph-name="FL00ADh" horiz-adv-x="326" unicode="­" d="M50 379h226v-116h-226v116z"/>
<glyph glyph-name="registered" horiz-adv-x="282" unicode="®" d="M113 571h21q17 -1 23 3t6 15q0 10 -11 15q-2 2 -19 2h-20v-35zM95 507v114h38q25 0 30 -5q4 -3 7 -4t6 -4q6 -9 6 -18q0 -30 -34 -31q11 -5 14 -10t14 -20l13 -22h-24l-8 19q-9 15 -19 25q-4 4 -14 4h-11v-48h-18zM142 655q-51 0 -78 -45q-12 -23 -12 -45l2 -11 q2 -11 10 -31q8 -13 31 -33l8 -3q19 -5 29 -6l10 -1q11 0 21 2t22 8q11 8 19 16t12 17q7 17 10 29l3 13v6q1 15 -7 30t-20 27t-27 20t-31 7h-2zM142 671q30 0 48 -15q31 -16 40 -39q17 -29 17 -52t-17 -52q-9 -24 -39 -39q-21 -10 -35 -12l-14 -2q-29 0 -55 14 q-21 15 -39 39q-13 22 -13 52q0 17 3 27t10 23v2q17 26 41 39q24 15 53 15z"/>
<glyph glyph-name="FL00AFh" horiz-adv-x="446" unicode="¯" d="M50 609h346v-116h-346v116z"/>
<glyph glyph-name="FL00B0h" horiz-adv-x="225" unicode="°" d="M132 575h-38v-24h38v24zM50 610h125v-94h-125v94z"/>
<glyph glyph-name="FL00B1h" horiz-adv-x="411" unicode="±" d="M50 116h311v-116h-311v116zM263 476v-97h98v-116h-98v-98h-116v98h-97v116h97v97h116z"/>
<glyph glyph-name="FL00B2h" horiz-adv-x="382" unicode="²" d="M329 430v-63h-279v91q0 37 24 65t65 28h104q5 1 11 11t7 16q1 8 -5 19t-14 11h-189v63h186q41 -1 67 -27t26 -66q0 -18 -6 -34t-17 -28t-27 -20t-36 -8h-94q-12 0 -18 -10t-7 -21v-27h202z"/>
<glyph glyph-name="FL00B3h" horiz-adv-x="369" unicode="³" d="M109 496l-43 64h174q23 5 23 25q0 19 -22 19h-191v67h191q41 -1 67 -25t26 -61q0 -17 -6 -33t-17 -28q11 -14 17 -28t6 -30q0 -18 -6 -36t-18 -32t-28 -22q-18 -8 -41 -9h-191v67h191q10 0 16 12t6 20q0 26 -25 30h-129z"/>
<glyph glyph-name="FL00B4h" horiz-adv-x="217" unicode="´" d="M24 515l42 94h125l-70 -94h-97z"/>
<glyph glyph-name="FL00B5h" horiz-adv-x="667" unicode="µ" d="M187 609v-255q28 5 39 5h202q8 -1 18 5t17 15t13 21t6 27v182h134v-182q0 -33 -12 -65t-34 -56t-52 -40q-31 -14 -70 -14h-209q-29 0 -47 -24t-17 -51q-1 -12 5 -24q6 -13 15 -23t21 -16t23 -7h370v-107h-409q-34 0 -62 18t-48 44t-30 58q-11 32 -11 60v429h138z"/>
<glyph glyph-name="FL2122h" horiz-adv-x="967" unicode="¶" d="M374 274q0 -10 -1 -16t-6 -14q-11 -5 -19 -7t-11 -2q-17 0 -17 25v7q12 32 32 32q12 0 21 -12q1 -5 1 -8v-5zM635 272h-35l21 35zM195 324l-19 -3l-11 -106l23 8zM289 326q-82 -10 -82 -59v-7q0 -6 2 -6q11 -47 43 -47q4 -1 8 1t14 4v17q-4 -1 -10 -1t-12 -1 q-23 0 -23 20q0 24 16 43q18 15 29 15q7 0 7 -1h1q2 0 5 -3zM397 290q-9 34 -45 34h-14q-41 -26 -41 -93q9 -16 39 -16q4 1 8 1t11 1q33 0 42 73zM497 217v102l-17 5l-5 -70l-66 65v-104l20 3v49q42 -50 68 -50zM552 328l-22 -4l-12 -104l27 7zM656 222v76q-12 33 -31 33 q-15 0 -16 -4q-37 -49 -47 -102h25q15 24 27 24q16 0 28 -24zM761 221v103l-19 4l-4 -73l-63 69v-104l20 2v50q39 -51 66 -51zM809 215l-17 7l-14 -11l14 -12zM819 324l-27 4l-4 -79l19 -2zM942 281l-81 -6q54 -54 54 -70l-1 -1q-1 0 -1 -5l-84 12l-6 -83l-81 25l-64 -71 l-58 36l-128 -59l7 23l-19 22l-159 -26l19 40l-175 6l51 32l-154 33l71 29l-108 53l81 4l-44 52l-4 26l81 -8l12 83q37 -24 62 -24q10 0 16 3l68 68l50 -35l115 52l13 -4l5 -36l165 23l-12 -41h170l-51 -35l146 -29l8 -12h-8l-63 -17l102 -49z"/>
<glyph glyph-name="FL00B7h" horiz-adv-x="236" unicode="·" d="M50 379h136v-107h-136v107z"/>
<glyph glyph-name="FL00B8h" horiz-adv-x="188" unicode="¸" d="M49 0h89v-155h-158v82h69v73z"/>
<glyph glyph-name="FL00B9h" horiz-adv-x="199" unicode="¹" d="M71 367v237h-46l49 67h75v-304h-78z"/>
<glyph glyph-name="FL00BAh" horiz-adv-x="401" unicode="º" d="M35 504q0 34 13 64q14 30 36 54q22 23 52 36t65 13t65 -13q30 -14 53 -36t35 -52t12 -66q0 -35 -12 -65t-36 -52q-22 -23 -52 -35t-65 -12t-65 12t-52 35q-22 22 -36 52q-13 30 -13 65zM148 503q0 -21 16 -36t36 -15q22 0 37 14t15 37q0 21 -14 37t-38 16q-22 0 -37 -16 t-15 -37z"/>
<glyph glyph-name="FL00BBh" horiz-adv-x="514" unicode="»" d="M26 390l82 82l150 -150l-151 -152l-82 82l69 70zM257 389l82 82l150 -150l-151 -152l-82 82l69 70z"/>
<glyph glyph-name="FL00BCh" horiz-adv-x="722" unicode="¼" d="M595 304h77v-304h-77v126h-211v178h77v-111h134v111zM556 609l-408 -609h-123l405 609h126zM161 305h-78v237h-46l49 67h75v-304z"/>
<glyph glyph-name="FL00BDh" horiz-adv-x="713" unicode="½" d="M660 63v-63h-279v91q-1 37 23 65t66 28h104q6 0 12 10t6 17q0 8 -6 19t-13 11h-189v63h186q40 0 66 -26t27 -67q0 -17 -6 -33t-17 -30q-11 -12 -27 -20t-36 -7h-94q-13 1 -19 -9t-6 -22v-27h202zM556 609l-408 -609h-123l405 609h126zM161 305h-78v237h-46l49 67h75v-304 z"/>
<glyph glyph-name="FL00BEh" horiz-adv-x="817" unicode="¾" d="M109 434l-43 64h174q23 5 23 25q0 19 -22 19h-191v67h191q41 -1 67 -25t26 -61q0 -17 -6 -33t-17 -28q11 -14 17 -28t6 -30q0 -18 -6 -36t-18 -32t-28 -22q-18 -8 -41 -9h-191v67h191q10 0 16 12t6 20q0 26 -25 30h-129zM690 304h77v-304h-77v126h-211v178h77v-111h134 v111zM655 609l-408 -609h-123l405 609h126z"/>
<glyph glyph-name="FL00BFh" horiz-adv-x="643" unicode="¿" d="M536 502h-136v107h136v-107zM536 430q0 -36 -8 -68t-29 -58q-19 -24 -53 -39t-85 -15h-151q-8 0 -17 -8t-17 -18t-12 -22q-5 -12 -5 -20q-1 -10 3 -23t11 -25t17 -19q10 -8 21 -8h382v-107h-375q-38 0 -72 14t-58 38t-39 58q-14 34 -14 72q0 34 12 66q11 32 33 56t53 38 t70 15h132q25 -1 37 11t18 26t8 26t2 11z"/>
<glyph glyph-name="FL00C0h" d="M25 0l298 609h137l300 -609h-146l-82 169h-172l-69 94l-120 -263h-146zM393 479h-4l-91 -194h187zM459 677h-97l-70 94h125z" unicode="À"/>
<glyph glyph-name="FL00C1h" d="M25 0l298 609h137l300 -609h-146l-82 169h-172l-69 94l-120 -263h-146zM393 479h-4l-91 -194h187zM422 677h-97l42 94h125z" unicode="Á"/>
<glyph glyph-name="FL00C2h" d="M25 0l298 609h137l300 -609h-146l-82 169h-172l-69 94l-120 -263h-146zM393 479h-4l-91 -194h187zM548 677h-125l-33 59l-33 -59h-125l70 94h176z" unicode="Â"/>
<glyph glyph-name="FL00C3h" d="M25 0l298 609h137l300 -609h-146l-82 169h-172l-69 94l-120 -263h-146zM393 479h-4l-91 -194h187zM270 771h118l37 -51l29 51h125l-70 -94h-118l-38 50l-28 -50h-125z" unicode="Ã"/>
<glyph glyph-name="FL00C4h" d="M25 0l298 609h137l300 -609h-146l-82 169h-172l-69 94l-120 -263h-146zM393 479h-4l-91 -194h187zM232 677v94h125v-94h-125zM548 771v-94h-125v94h125z" unicode="Ä"/>
<glyph glyph-name="FL00C5h" d="M409 736h-38v-24h38v24zM327 771h125v-94h-125v94zM389 479l-91 -194h187l-92 194h-4zM323 609h137l300 -609h-146l-82 169h-172l-69 94l-120 -263h-146z" unicode="Å"/>
<glyph glyph-name="FL00C6h" horiz-adv-x="1156" unicode="Æ" d="M393 479h-4l-91 -194h187zM614 609h492v-107h-492v107zM25 0l298 609h137l154 -313v83h492v-116h-476l77 -156h399v-107h-492l-82 169h-172l-69 94l-120 -263h-146z"/>
<glyph glyph-name="FL00C7h" horiz-adv-x="662" unicode="Ç" d="M35 304q-1 59 19 114q20 56 56 98t88 68q51 26 114 25h300v-107h-297q-25 0 -53 -16t-52 -45q-24 -27 -38 -63q-16 -36 -16 -73t15 -73t39 -63q24 -28 52 -45q30 -17 59 -17h291v-107h-171v-155h-158v82h69v73h-43q-66 0 -117 28t-86 71q-35 44 -53 98t-18 107z"/>
<glyph glyph-name="FL00C8h" horiz-adv-x="592" unicode="È" d="M50 267v108h492v-108h-492zM50 609h492v-107h-492v107zM542 107v-107h-492v107h492zM358 677h-97l-70 94h125z"/>
<glyph glyph-name="FL00C9h" horiz-adv-x="592" unicode="É" d="M50 267v108h492v-108h-492zM331 677h-97l42 94h125zM50 0v107h492v-107h-492zM50 609h492v-107h-492v107z"/>
<glyph glyph-name="FL00CAh" horiz-adv-x="592" unicode="Ê" d="M50 267v108h492v-108h-492zM455 677h-125l-33 59l-33 -59h-125l70 94h176zM50 0v107h492v-107h-492zM50 609h492v-107h-492v107z"/>
<glyph glyph-name="FL00CBh" horiz-adv-x="592" unicode="Ë" d="M50 267v108h492v-108h-492zM139 677v94h125v-94h-125zM455 771v-94h-125v94h125zM50 0v107h492v-107h-492zM50 609h492v-107h-492v107z"/>
<glyph glyph-name="FL00CCh" horiz-adv-x="581" unicode="Ì" d="M259 677l-70 94h125l42 -94h-97zM49 0v107h172v395h-172v107h481v-107h-173v-395h173v-107h-481z"/>
<glyph glyph-name="FL00CDh" horiz-adv-x="581" unicode="Í" d="M321 677h-97l42 94h125zM531 0h-481v107h173v395h-173v107h481v-107h-172v-395h172v-107z"/>
<glyph glyph-name="FL00CEh" horiz-adv-x="581" unicode="Î" d="M448 677h-125l-33 59l-33 -59h-125l70 94h176zM531 0h-481v107h173v395h-173v107h481v-107h-172v-395h172v-107z"/>
<glyph glyph-name="FL00CFh" horiz-adv-x="581" unicode="Ï" d="M132 677v94h125v-94h-125zM448 771v-94h-125v94h125zM531 0h-481v107h173v395h-173v107h481v-107h-172v-395h172v-107z"/>
<glyph glyph-name="FL00D0h" horiz-adv-x="813" unicode="Ð" d="M294 502v-123h125v-116h-125v-156h198q28 0 58 17t54 45q24 27 38 63q15 36 15 73q0 36 -17 71q-18 35 -42 63q-24 27 -51 45t-48 18h-205zM50 379h112v230h318q69 0 124 -24t94 -65q40 -40 60 -96t20 -120q0 -53 -18 -107t-53 -98q-35 -43 -85 -71t-117 -28h-343v263 h-112v116z"/>
<glyph glyph-name="FL00D1h" horiz-adv-x="677" unicode="Ñ" d="M221 771h118l37 -51l29 51h125l-70 -94h-118l-38 50l-28 -50h-125zM50 0v609h136v-91l74 91h199q45 1 77 -13t52 -38t30 -54t9 -63v-441h-137v416q0 38 -13 57t-56 19h-235v-492h-136z"/>
<glyph glyph-name="FL00D2h" horiz-adv-x="732" unicode="Ò" d="M428 677h-97l-70 94h125zM35 301q0 69 26 130t71 106t105 71t129 27q72 0 132 -26t104 -71t70 -106q25 -61 25 -131q1 -70 -25 -130t-70 -104t-106 -69q-60 -25 -130 -25q-69 0 -129 25t-105 69t-71 104t-26 130zM158 301q0 -41 16 -79t45 -66q27 -28 65 -44t80 -16 q44 0 82 16t67 42t45 64t17 83q0 43 -16 81t-44 67t-66 46t-83 17q-43 0 -81 -17t-66 -47q-29 -30 -45 -67q-16 -38 -16 -80z"/>
<glyph glyph-name="FL00D3h" horiz-adv-x="732" unicode="Ó" d="M401 677h-97l42 94h125zM35 301q0 69 26 130t71 106t105 71t129 27q72 0 132 -26t104 -71t70 -106q25 -61 25 -131q1 -70 -25 -130t-70 -104t-106 -69q-60 -25 -130 -25q-69 0 -129 25t-105 69t-71 104t-26 130zM158 301q0 -41 16 -79t45 -66q27 -28 65 -44t80 -16 q44 0 82 16t67 42t45 64t17 83q0 43 -16 81t-44 67t-66 46t-83 17q-43 0 -81 -17t-66 -47q-29 -30 -45 -67q-16 -38 -16 -80z"/>
<glyph glyph-name="FL00D4h" horiz-adv-x="732" unicode="Ô" d="M524 677h-125l-33 59l-33 -59h-125l70 94h176zM35 301q0 69 26 130t71 106t105 71t129 27q72 0 132 -26t104 -71t70 -106q25 -61 25 -131q1 -70 -25 -130t-70 -104t-106 -69q-60 -25 -130 -25q-69 0 -129 25t-105 69t-71 104t-26 130zM158 301q0 -41 16 -79t45 -66 q27 -28 65 -44t80 -16q44 0 82 16t67 42t45 64t17 83q0 43 -16 81t-44 67t-66 46t-83 17q-43 0 -81 -17t-66 -47q-29 -30 -45 -67q-16 -38 -16 -80z"/>
<glyph glyph-name="FL00D5h" horiz-adv-x="732" unicode="Õ" d="M246 771h118l37 -51l29 51h125l-70 -94h-118l-38 50l-28 -50h-125zM158 301q0 -41 16 -79t45 -66q27 -28 65 -44t80 -16q44 0 82 16t67 42t45 64t17 83q0 43 -16 81t-44 67t-66 46t-83 17q-43 0 -81 -17t-66 -47q-29 -30 -45 -67q-16 -38 -16 -80zM35 301q0 69 26 130 t71 106t105 71t129 27q72 0 132 -26t104 -71t70 -106q25 -61 25 -131q1 -70 -25 -130t-70 -104t-106 -69q-60 -25 -130 -25q-69 0 -129 25t-105 69t-71 104t-26 130z"/>
<glyph glyph-name="FL00D6h" horiz-adv-x="732" unicode="Ö" d="M209 677v94h125v-94h-125zM525 771v-94h-125v94h125zM35 301q0 69 26 130t71 106t105 71t129 27q72 0 132 -26t104 -71t70 -106q25 -61 25 -131q1 -70 -25 -130t-70 -104t-106 -69q-60 -25 -130 -25q-69 0 -129 25t-105 69t-71 104t-26 130zM158 301q0 -41 16 -79t45 -66 q27 -28 65 -44t80 -16q44 0 82 16t67 42t45 64t17 83q0 43 -16 81t-44 67t-66 46t-83 17q-43 0 -81 -17t-66 -47q-29 -30 -45 -67q-16 -38 -16 -80z"/>
<glyph glyph-name="FL00D7h" horiz-adv-x="353" unicode="×" d="M327 389l-68 -68l69 -70l-82 -82l-69 70l-70 -70l-82 82l70 70l-69 68l82 82l69 -68l68 68z"/>
<glyph glyph-name="FL00D8h" horiz-adv-x="732" unicode="Ø" d="M158 301q0 -63 35 -113l230 316q-32 8 -57 8q-43 0 -81 -17t-66 -47q-29 -30 -45 -67q-16 -38 -16 -80zM575 301q0 35 -12 69t-33 61l-235 -323q33 -12 69 -12q44 0 82 16t67 42t45 64t17 83zM659 609l-54 -74q45 -45 69 -105t23 -129q1 -70 -25 -130t-70 -104t-106 -69 q-60 -25 -130 -25q-39 0 -76 8t-73 19h-161l60 83q-38 43 -60 99t-21 119q0 69 26 130t71 106t105 71t129 27q35 -1 72 -7t67 -19h154z"/>
<glyph glyph-name="FL00D9h" horiz-adv-x="677" unicode="Ù" d="M400 677h-97l-70 94h125zM627 0h-136v91l-74 -91h-199q-44 0 -76 14t-52 36q-20 24 -30 54t-10 64v441h137v-416q1 -39 13 -57t56 -19h235v492h136v-609z"/>
<glyph glyph-name="FL00DAh" horiz-adv-x="677" unicode="Ú" d="M373 677h-97l42 94h125zM627 0h-136v91l-74 -91h-199q-44 0 -76 14t-52 36q-20 24 -30 54t-10 64v441h137v-416q1 -39 13 -57t56 -19h235v492h136v-609z"/>
<glyph glyph-name="FL00DBh" horiz-adv-x="677" unicode="Û" d="M496 677h-125l-33 59l-33 -59h-125l70 94h176zM627 0h-136v91l-74 -91h-199q-44 0 -76 14t-52 36q-20 24 -30 54t-10 64v441h137v-416q1 -39 13 -57t56 -19h235v492h136v-609z"/>
<glyph glyph-name="FL00DCh" horiz-adv-x="677" unicode="Ü" d="M627 609v-609h-136v91l-74 -91h-199q-44 0 -76 14t-52 36q-20 24 -30 54t-10 64v441h137v-416q1 -39 13 -57t56 -19h235v492h136zM180 677v94h125v-94h-125zM496 771v-94h-125v94h125z"/>
<glyph glyph-name="FL00DDh" horiz-adv-x="667" unicode="Ý" d="M479 609h138v-429q0 -28 -11 -60q-10 -32 -30 -58t-48 -44t-62 -18h-409v107h370q12 1 22 7t17 16q6 10 10 22t4 24v76h-262q-39 0 -70 14q-30 14 -52 40q-22 24 -34 56t-12 65v182h134v-182q0 -15 6 -27t13 -21t17 -15t18 -5h241v250zM371 677h-97l42 94h125z"/>
<glyph glyph-name="FL00DEh" horiz-adv-x="630" unicode="Þ" d="M186 392v-188h220q16 0 28 10t20 24t14 32q4 16 4 29q0 10 -4 26t-12 31q-8 16 -18 26q-11 10 -25 10h-227zM49 609h136v-100h228q41 0 75 -19q34 -20 57 -50q24 -30 37 -68t13 -73q1 -33 -11 -69t-34 -66t-51 -50q-30 -20 -67 -20h-174l-72 93v-187h-137v609z"/>
<glyph glyph-name="FL00DFh" horiz-adv-x="654" unicode="ß" d="M50 609h386q40 -1 74 -13t58 -34t37 -53t13 -67q0 -34 -14 -68t-37 -59q24 -32 38 -59t14 -62q1 -36 -11 -71t-35 -63t-57 -44t-80 -16h-142v117h142q14 0 25 8t19 20q8 11 11 25q4 14 4 25q0 25 -17 48t-46 26h-139v110h142q28 3 44 21t16 42q1 22 -15 36t-44 14h-250 v-628h-136v745z"/>
<glyph glyph-name="FL00E0h" d="M459 677h-97l-70 94h125zM25 0l298 609h137l300 -609h-146l-81 168h-284l-78 -168h-146zM394 479h-7l-89 -194h187z" unicode="à"/>
<glyph glyph-name="FL00E1h" d="M422 677h-97l42 94h125zM25 0l298 609h137l300 -609h-146l-81 168h-284l-78 -168h-146zM394 479h-7l-89 -194h187z" unicode="á"/>
<glyph glyph-name="FL00E2h" d="M548 677h-125l-33 59l-33 -59h-125l70 94h176zM25 0l298 609h137l300 -609h-146l-81 168h-284l-78 -168h-146zM394 479h-7l-89 -194h187z" unicode="â"/>
<glyph glyph-name="FL00E3h" d="M270 771h118l37 -51l29 51h125l-70 -94h-118l-38 50l-28 -50h-125zM25 0l298 609h137l300 -609h-146l-81 168h-284l-78 -168h-146zM394 479h-7l-89 -194h187z" unicode="ã"/>
<glyph glyph-name="FL00E4h" d="M232 677v94h125v-94h-125zM548 771v-94h-125v94h125zM25 0l298 609h137l300 -609h-146l-81 168h-284l-78 -168h-146zM394 479h-7l-89 -194h187z" unicode="ä"/>
<glyph glyph-name="FL00E5h" d="M409 736h-38v-24h38v24zM387 479l-89 -194h187l-91 194h-7zM323 609h137l300 -609h-146l-81 168h-284l-78 -168h-146zM327 771h125v-94h-125v94z" unicode="å"/>
<glyph glyph-name="FL00E6h" horiz-adv-x="1157" unicode="æ" d="M388 479l-90 -194h187l-92 194h-5zM615 609h492v-107h-356v-123h311v-116h-311v-156h356v-107h-493l-81 168h-284l-78 -168h-146l298 609h137l155 -315v315z"/>
<glyph glyph-name="FL00E7h" horiz-adv-x="662" unicode="ç" d="M35 304q-1 59 19 114q20 56 56 98t88 68q51 26 114 25h300v-107h-297q-25 0 -53 -16t-52 -45q-24 -27 -38 -63q-16 -36 -16 -73t15 -73t39 -63q24 -28 52 -45q30 -17 59 -17h291v-107h-171v-155h-158v82h69v73h-43q-66 0 -117 28t-86 71q-35 44 -53 98t-18 107z"/>
<glyph glyph-name="FL00E8h" horiz-adv-x="592" unicode="è" d="M50 609h492v-107h-356v-127h311v-108h-311v-160h356v-107h-492v609zM261 677l-70 94h125l42 -94h-97z"/>
<glyph glyph-name="FL00E9h" horiz-adv-x="592" unicode="é" d="M50 609h492v-107h-356v-127h311v-108h-311v-160h356v-107h-492v609zM234 677l42 94h125l-70 -94h-97z"/>
<glyph glyph-name="FL00EAh" horiz-adv-x="592" unicode="ê" d="M50 609h492v-107h-356v-127h311v-108h-311v-160h356v-107h-492v609zM330 677l-33 59l-33 -59h-125l70 94h176l70 -94h-125z"/>
<glyph glyph-name="FL00EBh" horiz-adv-x="592" unicode="ë" d="M50 609h492v-107h-356v-127h311v-108h-311v-160h356v-107h-492v609zM455 677h-125v94h125v-94zM139 771h125v-94h-125v94z"/>
<glyph glyph-name="FL00ECh" horiz-adv-x="246" unicode="ì" d="M193 677h-97l-70 94h125zM55 0v609h136v-609h-136z"/>
<glyph glyph-name="FL00EDh" horiz-adv-x="246" unicode="í" d="M146 677h-97l42 94h125zM55 0v609h136v-609h-136z"/>
<glyph glyph-name="FL00EEh" horiz-adv-x="246" unicode="î" d="M281 677h-125l-33 59l-33 -59h-125l70 94h176zM55 0v609h136v-609h-136z"/>
<glyph glyph-name="FL00EFh" horiz-adv-x="246" unicode="ï" d="M-35 677v94h125v-94h-125zM281 771v-94h-125v94h125zM55 0v609h136v-609h-136z"/>
<glyph glyph-name="FL00F0h" horiz-adv-x="701" unicode="ð" d="M182 263v-156h198q25 1 50 13t47 34q23 22 39 49q16 28 24 60h-358zM666 304q0 -53 -18 -107t-53 -98q-35 -43 -86 -71t-117 -28h-342v379h478q-12 25 -28 47t-35 40q-19 16 -39 26t-40 10h-336v107h297q69 0 127 -24t102 -65q42 -40 66 -96t24 -120z"/>
<glyph glyph-name="FL00F1h" horiz-adv-x="677" unicode="ñ" d="M221 771h118l37 -51l29 51h125l-70 -94h-118l-38 50l-28 -50h-125zM50 0v609h136v-91l74 91h199q45 1 77 -13t52 -38t30 -54t9 -63v-441h-137v416q0 38 -13 57t-56 19h-235v-492h-136z"/>
<glyph glyph-name="FL00F2h" horiz-adv-x="732" unicode="ò" d="M428 677h-97l-70 94h125zM35 301q0 69 26 130t71 106t105 71t129 27q72 0 132 -26t104 -71t70 -106q25 -61 25 -131q1 -70 -25 -130t-70 -104t-106 -69q-60 -25 -130 -25q-69 0 -129 25t-105 69t-71 104t-26 130zM158 301q0 -41 16 -79t45 -66q27 -28 65 -44t80 -16 q44 0 82 16t67 42t45 64t17 83q0 43 -16 81t-44 67t-66 46t-83 17q-43 0 -81 -17t-66 -47q-29 -30 -45 -67q-16 -38 -16 -80z"/>
<glyph glyph-name="FL00F3h" horiz-adv-x="732" unicode="ó" d="M401 677h-97l42 94h125zM35 301q0 69 26 130t71 106t105 71t129 27q72 0 132 -26t104 -71t70 -106q25 -61 25 -131q1 -70 -25 -130t-70 -104t-106 -69q-60 -25 -130 -25q-69 0 -129 25t-105 69t-71 104t-26 130zM158 301q0 -41 16 -79t45 -66q27 -28 65 -44t80 -16 q44 0 82 16t67 42t45 64t17 83q0 43 -16 81t-44 67t-66 46t-83 17q-43 0 -81 -17t-66 -47q-29 -30 -45 -67q-16 -38 -16 -80z"/>
<glyph glyph-name="FL00F4h" horiz-adv-x="732" unicode="ô" d="M524 677h-125l-33 59l-33 -59h-125l70 94h176zM35 301q0 69 26 130t71 106t105 71t129 27q72 0 132 -26t104 -71t70 -106q25 -61 25 -131q1 -70 -25 -130t-70 -104t-106 -69q-60 -25 -130 -25q-69 0 -129 25t-105 69t-71 104t-26 130zM158 301q0 -41 16 -79t45 -66 q27 -28 65 -44t80 -16q44 0 82 16t67 42t45 64t17 83q0 43 -16 81t-44 67t-66 46t-83 17q-43 0 -81 -17t-66 -47q-29 -30 -45 -67q-16 -38 -16 -80z"/>
<glyph glyph-name="FL00F5h" horiz-adv-x="732" unicode="õ" d="M246 771h118l37 -51l29 51h125l-70 -94h-118l-38 50l-28 -50h-125zM158 301q0 -41 16 -79t45 -66q27 -28 65 -44t80 -16q44 0 82 16t67 42t45 64t17 83q0 43 -16 81t-44 67t-66 46t-83 17q-43 0 -81 -17t-66 -47q-29 -30 -45 -67q-16 -38 -16 -80zM35 301q0 69 26 130 t71 106t105 71t129 27q72 0 132 -26t104 -71t70 -106q25 -61 25 -131q1 -70 -25 -130t-70 -104t-106 -69q-60 -25 -130 -25q-69 0 -129 25t-105 69t-71 104t-26 130z"/>
<glyph glyph-name="FL00F6h" horiz-adv-x="732" unicode="ö" d="M209 677v94h125v-94h-125zM525 771v-94h-125v94h125zM35 301q0 69 26 130t71 106t105 71t129 27q72 0 132 -26t104 -71t70 -106q25 -61 25 -131q1 -70 -25 -130t-70 -104t-106 -69q-60 -25 -130 -25q-69 0 -129 25t-105 69t-71 104t-26 130zM158 301q0 -41 16 -79t45 -66 q27 -28 65 -44t80 -16q44 0 82 16t67 42t45 64t17 83q0 43 -16 81t-44 67t-66 46t-83 17q-43 0 -81 -17t-66 -47q-29 -30 -45 -67q-16 -38 -16 -80z"/>
<glyph glyph-name="FL00F7h" horiz-adv-x="504" unicode="÷" d="M196 419v94h122v-94h-122zM317 219v-94h-122v94h122zM50 379h404v-116h-404v116z"/>
<glyph glyph-name="FL00F8h" horiz-adv-x="732" unicode="ø" d="M575 301q-1 33 -11 65t-29 58l-230 -319q28 -9 59 -9q44 0 82 16t67 42t45 64t17 83zM158 301q0 -69 41 -122l235 321q-32 12 -68 12q-43 0 -81 -17t-66 -47q-29 -30 -45 -67q-16 -38 -16 -80zM35 301q0 69 26 130t71 106t105 71t129 27q72 0 132 -26t104 -71t70 -106 q25 -61 25 -131q1 -70 -25 -130t-70 -104t-106 -69q-60 -25 -130 -25q-69 0 -129 25t-105 69t-71 104t-26 130z"/>
<glyph glyph-name="FL00F9h" horiz-adv-x="677" unicode="ù" d="M400 677h-97l-70 94h125zM627 0h-136v91l-74 -91h-199q-44 0 -76 14t-52 36q-20 24 -30 54t-10 64v441h137v-416q1 -39 13 -57t56 -19h235v492h136v-609z"/>
<glyph glyph-name="FL00FAh" horiz-adv-x="677" unicode="ú" d="M373 677h-97l42 94h125zM627 0h-136v91l-74 -91h-199q-44 0 -76 14t-52 36q-20 24 -30 54t-10 64v441h137v-416q1 -39 13 -57t56 -19h235v492h136v-609z"/>
<glyph glyph-name="FL00FBh" horiz-adv-x="677" unicode="û" d="M496 677h-125l-33 59l-33 -59h-125l70 94h176zM627 0h-136v91l-74 -91h-199q-44 0 -76 14t-52 36q-20 24 -30 54t-10 64v441h137v-416q1 -39 13 -57t56 -19h235v492h136v-609z"/>
<glyph glyph-name="FL00FCh" horiz-adv-x="677" unicode="ü" d="M627 609v-609h-136v91l-74 -91h-199q-44 0 -76 14t-52 36q-20 24 -30 54t-10 64v441h137v-416q1 -39 13 -57t56 -19h235v492h136zM180 677v94h125v-94h-125zM496 771v-94h-125v94h125z"/>
<glyph glyph-name="FL00FDh" horiz-adv-x="652" unicode="ý" d="M360 677h-97l42 94h125zM258 288l-233 321h160l141 -194l141 194h160l-233 -321v-288h-136v288z"/>
<glyph glyph-name="FL00FEh" horiz-adv-x="630" unicode="þ" d="M186 392v-188h220q16 0 28 10t20 24t14 32q4 16 4 29q0 10 -4 26t-12 31q-8 16 -18 26q-11 10 -25 10h-227zM49 609h136v-100h228q41 0 75 -19q34 -20 57 -50q24 -30 37 -68t13 -73q1 -33 -11 -69t-34 -66t-51 -50q-30 -20 -67 -20h-174l-72 93v-187h-137v609z"/>
<glyph glyph-name="FL0152h" horiz-adv-x="1021" unicode="Œ" d="M480 263v116h491v-116h-491zM35 304q-1 59 19 114q20 56 56 98t88 68q51 26 114 25h659v-107h-656q-25 0 -53 -16t-52 -45q-24 -27 -38 -63q-16 -36 -16 -73t15 -73t39 -63q24 -28 52 -45q30 -17 59 -17h650v-107h-662q-66 0 -117 28t-86 71q-35 44 -53 98t-18 107z"/>
<glyph glyph-name="FL0153h" horiz-adv-x="1021" unicode="œ" d="M479 502h-164q-25 0 -53 -16t-52 -45q-24 -27 -38 -63q-16 -36 -16 -73t15 -73t39 -63q24 -28 52 -45q30 -17 59 -17h158v395zM35 304q-1 59 19 114q20 56 56 98t88 68q51 26 114 25h659v-107h-356v-123h311v-116h-311v-156h356v-107h-662q-66 0 -117 28t-86 71 q-35 44 -53 98t-18 107z"/>
<glyph glyph-name="FL0160h" horiz-adv-x="655" unicode="Š" d="M172 771h125l33 -59l33 59h125l-70 -94h-176zM52 0v107h370q12 1 24 7t20 16t14 23q6 12 6 24q0 27 -18 51t-46 24h-209q-39 0 -70 14t-53 40q-22 24 -33 56q-12 32 -12 65q0 39 14 73q15 34 39 57q24 24 58 38t72 14h375v-107h-382q-11 0 -21 -7t-17 -19t-11 -24 q-4 -13 -3 -25q0 -11 5 -23q4 -12 12 -22t17 -16t17 -7h215q39 0 71 -15q32 -16 56 -40t36 -56t12 -69q0 -29 -10 -61t-30 -58t-48 -43t-61 -17h-409z"/>
<glyph glyph-name="FL0161h" horiz-adv-x="655" unicode="š" d="M172 771h125l33 -59l33 59h125l-70 -94h-176zM52 0v107h370q12 1 24 7t20 16t14 23q6 12 6 24q0 27 -18 51t-46 24h-209q-39 0 -70 14t-53 40q-22 24 -33 56q-12 32 -12 65q0 39 14 73q15 34 39 57q24 24 58 38t72 14h375v-107h-382q-11 0 -21 -7t-17 -19t-11 -24 q-4 -13 -3 -25q0 -11 5 -23q4 -12 12 -22t17 -16t17 -7h215q39 0 71 -15q32 -16 56 -40t36 -56t12 -69q0 -29 -10 -61t-30 -58t-48 -43t-61 -17h-409z"/>
<glyph glyph-name="FL0178h" horiz-adv-x="667" unicode="Ÿ" d="M479 609h138v-429q0 -28 -11 -60q-10 -32 -30 -58t-48 -44t-62 -18h-409v107h370q12 1 22 7t17 16q6 10 10 22t4 24v76h-262q-39 0 -70 14q-30 14 -52 40q-22 24 -34 56t-12 65v182h134v-182q0 -15 6 -27t13 -21t17 -15t18 -5h241v250zM177 677v94h125v-94h-125zM493 771 v-94h-125v94h125z"/>
<glyph glyph-name="FL02C6h" horiz-adv-x="366" unicode="ˆ" d="M341 516h-125l-33 59l-33 -59h-125l70 94h176z"/>
<glyph glyph-name="FL02DCh" horiz-adv-x="429" unicode="˜" d="M95 609h118l37 -51l29 51h125l-70 -94h-118l-38 50l-28 -50h-125z"/>
<glyph glyph-name="FL2013h" horiz-adv-x="396" unicode="–" d="M50 379h296v-116h-296v116z"/>
<glyph glyph-name="FL2014h" horiz-adv-x="452" unicode="—" d="M50 379h352v-116h-352v116z"/>
<glyph glyph-name="FL2018h" horiz-adv-x="236" unicode="‘" d="M186 385h-136v135l136 89v-224z"/>
<glyph glyph-name="FL201Ah" horiz-adv-x="236" unicode="‚" d="M50 107h136v-135l-136 -89v224z"/>
<glyph glyph-name="FL201Ch" horiz-adv-x="422" unicode="“" d="M372 385h-136v135l136 89v-224zM186 385h-136v135l136 89v-224z"/>
<glyph glyph-name="FL201Dh" horiz-adv-x="422" unicode="”" d="M50 609h136v-135l-136 -89v224zM236 609h136v-135l-136 -89v224z"/>
<glyph glyph-name="FL2020h" horiz-adv-x="447" unicode="†" d="M397 462v-116h-105v-346h-136v346h-106v116h106v147h136v-147h105z"/>
<glyph glyph-name="FL2021h" horiz-adv-x="447" unicode="‡" d="M397 462v-116h-105v-66h105v-116h-105v-164h-136v164h-106v116h106v66h-106v116h106v147h136v-147h105z"/>
<glyph glyph-name="FL2026h" horiz-adv-x="608" unicode="…" d="M50 107h136v-107h-136v107zM236 107h136v-107h-136v107zM422 107h136v-107h-136v107z"/>
<glyph glyph-name="FL2030h" horiz-adv-x="978" unicode="‰" d="M725 103q-1 -21 15 -36t37 -15q22 0 37 14t15 37q-1 21 -15 37t-37 16q-22 0 -37 -16t-15 -37zM401 102q-1 -21 15 -36t37 -15q22 0 37 14t15 37q-1 21 -15 37t-37 16q-22 0 -37 -16t-15 -37zM149 503q-1 -21 15 -36t37 -15q22 0 37 14t15 37q-1 21 -15 37t-37 16 q-22 0 -37 -16t-15 -37zM288 103q0 25 6 46l-108 -149h-161l265 364q-20 -12 -42 -18t-46 -6q-35 0 -65 12q-31 12 -53 35q-22 22 -35 52t-13 65q0 34 13 64t35 54q22 23 53 36q30 13 65 13q36 0 66 -13q30 -14 52 -36t34 -52t13 -66q1 -10 -1 -20l-4 -20l106 145h160 l-267 -367q40 28 93 28q30 0 57 -10t48 -28t35 -42t21 -52q6 28 21 52q14 24 36 43q22 18 49 28t57 10q36 0 66 -13q30 -14 52 -36t34 -52t13 -66q-1 -35 -13 -65t-34 -52q-22 -23 -53 -35q-30 -12 -65 -12q-30 0 -57 10t-49 26q-22 18 -36 42q-15 24 -21 51q-7 -28 -21 -52 t-35 -41t-48 -27t-57 -10q-35 1 -65 13q-31 12 -53 34t-35 52t-13 65z"/>
<glyph glyph-name="FL2039h" horiz-adv-x="283" unicode="‹" d="M257 389l-68 -68l69 -70l-82 -82l-151 152l150 150z"/>
<glyph glyph-name="FL203Ah" horiz-adv-x="283" unicode="›" d="M25 389l82 82l150 -150l-151 -152l-82 82l69 70z"/>
<glyph glyph-name="mu" horiz-adv-x="1008" unicode="™" d="M394 274v5t-1 8q-9 12 -21 12q-20 0 -32 -32v-7q0 -25 17 -25q3 0 11 2t19 7q5 8 6 14t1 16zM655 272l-14 35l-21 -35h35zM215 324l-7 -101l-23 -8l11 106zM309 326l-2 -25q-3 3 -5 3h-1q0 1 -7 1q-11 0 -29 -15q-16 -19 -16 -43q0 -20 23 -20q6 1 12 1t10 1v-17 q-10 -2 -14 -4t-8 -1q-32 0 -43 47q-2 0 -2 6v7q0 49 82 59zM417 290q-9 -73 -42 -73q-7 -1 -11 -1t-8 -1q-30 0 -39 16q0 67 41 93h14q36 0 45 -34zM517 217q-26 0 -68 50v-49l-20 -3v104l66 -65l5 70l17 -5v-102zM572 328l-7 -101l-27 -7l12 104zM676 222l-14 3 q-12 24 -28 24q-12 0 -27 -24h-25q10 53 47 102q1 4 16 4q19 0 31 -33v-76zM781 221q-27 0 -66 51v-50l-20 -2v104l63 -69l4 73l19 -4v-103zM829 215l-17 -16l-14 12l14 11zM839 324l-12 -77l-19 2l4 79zM962 281l-5 11l-102 49l63 17h8l-8 12l-146 29l51 35h-170l12 41 l-165 -23l-5 36l-13 4l-115 -52l-50 35l-68 -68q-6 -3 -16 -3q-25 0 -62 24l-12 -83l-81 8l4 -26l44 -52l-81 -4l108 -53l-71 -29l154 -33l-51 -32l175 -6l-19 -40l159 26l19 -22l-7 -23l128 59l58 -36l64 71l81 -25l6 83l84 -12q0 5 1 5l1 1q0 16 -54 70zM983 290l-2 -1 l-12 -26h-56l36 -45l2 -8v-4q0 -18 -18 -25l-63 13l-9 -70q-3 -13 -23 -13q-16 0 -28 5t-30 15l-8 2l-61 -63l-31 -5l-40 34l-121 -58l-19 7v34l-159 -23l-19 11l8 29l-164 13v21l19 20l-103 18q-19 0 -19 23l40 29l-70 31l-8 27l71 11l-36 43l3 35l74 -8q0 83 31 83h3 l69 -21q26 30 42 45t35 23l58 -33l115 53l22 -20l-2 -17l2 -6l128 23l45 -4l-5 -36h149l14 -12q0 -32 -25 -33l128 -32v-7q0 -27 -47 -33q84 -29 84 -45z"/>
</font>
</defs>
</svg>
