<?xml version="1.0" encoding="UTF-8" standalone="no"?>
<!DOCTYPE svg  PUBLIC '-//W3C//DTD SVG 1.1//EN'  'http://www.w3.org/Graphics/SVG/1.1/DTD/svg11.dtd'>
<svg xmlns="http://www.w3.org/2000/svg">
<defs>
<font id="Tahoma-Bold" horiz-adv-x="1304">
<font-face underline-position="-44" font-weight="700" descent="-410" panose-1="2 11 8 4 3 5 4 4 2 4" units-per-em="2048" unicode-range="U+0020-25CA" bbox="-219 -429 3328 2049" x-height="1123" underline-thickness="201" font-family="Tahoma" ascent="1638" cap-height="1489"/>
<missing-glyph horiz-adv-x="2048"/>
<glyph glyph-name=".notdef" horiz-adv-x="2048"/>
<glyph glyph-name="glyph1" horiz-adv-x="0"/>
<glyph glyph-name="glyph2" horiz-adv-x="2048"/>
<glyph glyph-name="space" horiz-adv-x="600" unicode=" "/>
<glyph glyph-name="space" horiz-adv-x="600" unicode=" "/>
<glyph glyph-name="exclam" horiz-adv-x="702" unicode="!" d="M548 0h-394v264h394v-264zM550 1489l-41 -1060h-316l-41 1060h398z"/>
<glyph glyph-name="quotedbl" horiz-adv-x="1002" unicode='&quot;' d="M453 1556l-60 -589h-206l-60 589h326zM874 1556l-60 -589h-206l-60 589h326z"/>
<glyph glyph-name="numbersign" horiz-adv-x="1676" unicode="#" d="M1016 915h-258l-84 -332h258zM1551 913h-304l-83 -328h271v-230h-329l-90 -355h-232l89 355h-254l-89 -355h-235l89 355h-259v230h317l82 328h-282v230h339l87 346h236l-87 -346h253l87 346h236l-88 -346h246v-230z"/>
<glyph glyph-name="dollar" d="M872 390q0 50 -35.5 82t-113.5 47v-256q63 6 106 35.5t43 91.5zM583 848v234q-56 -5 -97 -33t-41 -81q0 -43 24 -71t114 -49zM1226 429q0 -84 -35 -159t-97 -131q-63 -57 -154 -94.5t-205 -43.5v-362h-164v357q-108 1 -240 27t-209 65v290h32q48 -31 173 -71.5t249 -45.5 v277l-89 22q-77 19 -147 46t-126 74q-55 46 -86.5 111.5t-31.5 168.5q0 150 125.5 255.5t349.5 127.5v233h164v-231q90 -3 206.5 -26.5t178.5 -50.5v-288h-32q-73 45 -159 71t-199 32v-254l88 -19q208 -45 308 -131.5t100 -249.5z" unicode="$"/>
<glyph glyph-name="percent" horiz-adv-x="2455" unicode="%" d="M2061 455q0 63 -5.5 115t-21.5 87t-45 52.5t-74 17.5q-48 0 -75 -17.5t-44 -53.5q-15 -32 -21 -87t-6 -115q0 -74 4 -117.5t22 -83.5q15 -35 44.5 -53.5t75.5 -18.5q45 0 74 18t45 54q14 32 20.5 82t6.5 120zM689 1033q0 63 -5.5 115t-21.5 87t-45 52.5t-74 17.5 q-48 0 -75 -17.5t-44 -53.5q-15 -32 -21 -87t-6 -115q0 -74 4 -117.5t22 -83.5q15 -35 44.5 -53.5t75.5 -18.5q45 0 74 18t45 54q14 32 20.5 82t6.5 120zM2346 458q0 -248 -110.5 -368.5t-320.5 -120.5q-216 0 -326 120t-110 365t112 365.5t324 120.5q216 0 323.5 -120.5 t107.5 -361.5zM1748 1489l-780 -1489h-264l780 1489h264zM974 1036q0 -248 -110.5 -368.5t-320.5 -120.5q-216 0 -326 120t-110 365t112 365.5t324 120.5q216 0 323.5 -120.5t107.5 -361.5z"/>
<glyph glyph-name="ampersand" horiz-adv-x="1600" unicode="&amp;" d="M918 295l-400 379q-16 -23 -35.5 -75.5t-19.5 -110.5q0 -66 22.5 -114.5t58.5 -80.5t80.5 -48t89.5 -16q62 0 109.5 14.5t94.5 51.5zM766 1154q0 50 -13.5 81t-34.5 48q-19 16 -42 20t-36 4q-15 0 -33 -4t-41 -21q-18 -13 -32 -43t-14 -71q0 -59 39.5 -110.5 t109.5 -109.5q48 44 72.5 94t24.5 112zM1658 0h-445l-130 126q-105 -85 -215 -121t-230 -36q-258 0 -405.5 127.5t-147.5 332.5q0 87 23.5 149t61.5 112q35 47 82.5 82.5t92.5 61.5q-43 34 -76.5 66.5t-59.5 72.5q-26 39 -40 84.5t-14 106.5q0 65 26 127t86 115 q56 49 156 81.5t233 32.5q119 0 206 -25t146 -67q57 -42 87.5 -101.5t30.5 -128.5q0 -44 -13.5 -100t-45.5 -101q-39 -55 -101.5 -98.5t-158.5 -75.5l286 -276v322h349v-111q0 -41 -8.5 -101.5t-22.5 -103.5q-15 -49 -41.5 -101t-67.5 -99l356 -333v-20z"/>
<glyph glyph-name="quotesingle" horiz-adv-x="564" unicode="&apos;" d="M445 1556l-60 -589h-206l-60 589h326z"/>
<glyph glyph-name="parenleft" horiz-adv-x="930" unicode="(" d="M850 -412h-367q-85 101 -154 208t-119 230q-47 115 -73.5 255t-26.5 291q0 165 27.5 299t71.5 245q48 121 117.5 228.5t156.5 211.5h367v-29q-81 -73 -154.5 -165.5t-136.5 -216.5q-60 -119 -97.5 -264t-37.5 -309q0 -171 36.5 -310t98.5 -263q60 -118 135.5 -214.5 t155.5 -167.5v-29z"/>
<glyph glyph-name="parenright" horiz-adv-x="930" unicode=")" d="M819 572q0 -151 -26.5 -290.5t-73.5 -255.5q-50 -123 -119 -230t-154 -208h-367v29q80 71 156 167t135 215q62 124 98.5 263t36.5 310q0 164 -37.5 309t-97.5 264q-63 124 -136.5 216.5t-154.5 165.5v29h367q87 -104 156.5 -211.5t117.5 -228.5q44 -111 71.5 -245 t27.5 -299z"/>
<glyph glyph-name="asterisk" d="M1133 861l-103 -152l-312 213l11 -348h-200l6 338l-305 -204l-102 154l344 203l-342 205l100 154l305 -207l-6 339h199l-6 -339l308 206l103 -154l-346 -203z" unicode="*"/>
<glyph glyph-name="plus" horiz-adv-x="1676" unicode="+" d="M1482 528h-512v-508h-264v508h-512v258h512v508h264v-508h512v-258z"/>
<glyph glyph-name="comma" horiz-adv-x="640" unicode="," d="M558 393l-350 -763h-213l197 763h366z"/>
<glyph glyph-name="hyphen" horiz-adv-x="883" unicode="-" d="M773 518h-663v278h663v-278z"/>
<glyph glyph-name="hyphen" horiz-adv-x="883" unicode="­" d="M773 518h-663v278h663v-278z"/>
<glyph glyph-name="period" horiz-adv-x="640" unicode="." d="M497 0h-354v393h354v-393z"/>
<glyph glyph-name="slash" horiz-adv-x="1182" unicode="/" d="M998 1556l-593 -1880h-287l590 1880h290z"/>
<glyph glyph-name="zero" d="M851 745q0 276 -45.5 387.5t-153.5 111.5q-107 0 -153 -111.5t-46 -389.5q0 -272 46 -385.5t153 -113.5t153 113.5t46 387.5zM1226 745q0 -193 -31 -338t-99 -242t-177 -146.5t-267 -49.5q-157 0 -266 49.5t-178 148.5q-68 98 -99 241.5t-31 335.5q0 198 30.5 338 t101.5 241q70 99 180 147.5t262 48.5q161 0 268.5 -50.5t176.5 -150.5q68 -98 98.5 -242t30.5 -331z" unicode="0"/>
<glyph glyph-name="one" d="M1179 0h-984v260h314v787h-314v243q69 0 137 9t109 29q48 24 74.5 64.5t30.5 100.5h326v-1233h307v-260z" unicode="1"/>
<glyph glyph-name="two" d="M1245 0h-1094v243q139 110 249.5 208t194.5 186q109 115 158 202t49 179q0 104 -62 159.5t-173 55.5q-57 0 -107.5 -14t-102.5 -36q-51 -23 -87 -47l-54 -36h-29v325q63 30 197 61.5t258 31.5q265 0 401.5 -118t136.5 -332q0 -132 -62 -258.5t-206 -271.5 q-90 -89 -175 -158.5t-123 -98.5h631v-281z" unicode="2"/>
<glyph glyph-name="three" d="M1208 451q0 -109 -40.5 -199t-118.5 -153q-79 -63 -185.5 -96.5t-259.5 -33.5q-174 0 -298.5 29t-202.5 65v323h36q82 -52 192.5 -90t201.5 -38q54 0 117.5 9.5t106.5 41.5q34 25 54.5 61.5t20.5 103.5q0 66 -29 101.5t-77 51.5q-48 17 -115 19t-118 2h-64v262h59 q68 0 125 6t97 24q40 19 62.5 53t22.5 92q0 45 -21 73.5t-52 44.5q-36 18 -84 24t-82 6q-55 0 -112 -13t-111 -33q-42 -16 -88 -41.5t-68 -38.5h-31v319q77 33 207.5 63.5t266.5 30.5q133 0 230.5 -23t166.5 -67q76 -47 114 -119.5t38 -163.5q0 -127 -73.5 -222.5 t-193.5 -123.5v-14q53 -8 103.5 -27t98.5 -62q45 -39 74.5 -100.5t29.5 -146.5z" unicode="3"/>
<glyph glyph-name="four" d="M700 615v507l-377 -507h377zM1262 347h-201v-351h-361v351h-655v278l643 864h373v-874h201v-268z" unicode="4"/>
<glyph glyph-name="five" d="M1211 504q0 -116 -39.5 -215t-118.5 -171q-78 -71 -185.5 -110t-264.5 -39q-166 1 -285.5 28.5t-197.5 61.5v325h34l63 -36t92 -42q53 -21 107.5 -34.5t121.5 -13.5q58 0 125 14.5t108 52.5q30 30 47 67t17 99q0 52 -21.5 89.5t-56.5 60.5q-51 34 -123 43.5t-124 9.5 q-82 0 -159.5 -13t-134.5 -28h-32v836h986v-281h-633v-248q30 2 71.5 3.5t64.5 1.5q107 0 198 -21.5t161 -66.5q85 -55 132 -147.5t47 -225.5z" unicode="5"/>
<glyph glyph-name="six" d="M802 282q29 36 44.5 78.5t15.5 128.5q0 72 -18 119t-51 75t-75 38.5t-89 10.5q-39 0 -80.5 -10t-77.5 -25q0 -10 -1 -33t-1 -58q0 -128 22.5 -206t56.5 -118q26 -32 59.5 -46t70.5 -14q30 0 65 15t59 45zM1236 507q0 -235 -149 -386.5t-409 -151.5q-130 0 -232 37.5 t-173 110.5q-85 86 -130 222t-45 325q0 196 42 348t137 269q91 111 238 173.5t348 62.5q73 0 146.5 -9.5t100.5 -15.5v-293h-27q-26 13 -86 29.5t-137 16.5q-175 0 -270 -92t-117 -264q73 47 148.5 75t170.5 28q80 0 150.5 -21.5t125.5 -62.5q77 -59 122.5 -155t45.5 -246z " unicode="6"/>
<glyph glyph-name="seven" d="M1212 1193l-634 -1193h-416l665 1208h-710v281h1095v-296z" unicode="7"/>
<glyph glyph-name="eight" d="M872 399q0 73 -31 112t-133 88q-29 14 -83.5 35t-96.5 39q-39 -39 -69.5 -96.5t-30.5 -126.5q0 -104 66 -166t174 -62q29 0 66.5 9.5t66.5 29.5q32 23 51.5 54t19.5 84zM841 1103q0 76 -50 121.5t-136 45.5q-82 0 -132.5 -41t-50.5 -101t30.5 -96.5t94.5 -67.5 q28 -14 66.5 -29t102.5 -39q39 51 57 98.5t18 108.5zM1241 415q0 -96 -39.5 -178.5t-115.5 -142.5t-185.5 -94t-250.5 -34q-150 0 -263 34.5t-185 93.5q-71 59 -105 139t-34 169q0 128 70.5 213t204.5 142v6q-131 64 -183 155t-52 203q0 82 36 154t108 129q68 54 172.5 86.5 t234.5 32.5q138 0 240.5 -29.5t168.5 -77.5q68 -49 104 -118.5t36 -150.5q0 -106 -61.5 -191.5t-188.5 -143.5v-6q148 -60 218 -157.5t70 -233.5z" unicode="8"/>
<glyph glyph-name="nine" d="M836 884q0 121 -20.5 199.5t-57.5 122.5q-26 32 -58.5 46t-70.5 14q-33 0 -64.5 -13.5t-60.5 -46.5q-26 -29 -44 -85t-18 -123q0 -72 18.5 -118.5t50.5 -74.5q32 -27 73 -38t91 -11q42 0 86.5 11.5t71.5 23.5q0 11 1.5 31.5t1.5 61.5zM1206 828q0 -190 -44 -348 t-137 -271q-96 -115 -238.5 -176.5t-349.5 -61.5q-70 0 -146 9t-101 16v293h29q28 -14 79.5 -30t142.5 -16q73 0 141 19.5t117 61.5q51 44 85 110t46 165q-80 -50 -148.5 -76.5t-170.5 -26.5q-77 0 -147.5 20.5t-128.5 63.5q-77 60 -122 154.5t-45 244.5q0 116 39.5 214.5 t112.5 171.5q72 72 177 113t234 41q130 0 231 -36.5t173 -111.5q84 -85 127.5 -219t43.5 -324z" unicode="9"/>
<glyph glyph-name="colon" horiz-adv-x="744" unicode=":" d="M549 0h-354v393h354v-393zM549 730h-354v393h354v-393z"/>
<glyph glyph-name="less" horiz-adv-x="1676" unicode="&lt;" d="M1465 14l-1284 533v220l1284 533v-276l-899 -368l899 -366v-276z"/>
<glyph glyph-name="equal" horiz-adv-x="1676" unicode="=" d="M1452 280h-1228v258h1228v-258zM1452 776h-1228v258h1228v-258z"/>
<glyph glyph-name="greater" horiz-adv-x="1676" unicode="&gt;" d="M1495 547l-1284 -533v276l899 367l-899 367v276l1284 -533v-220z"/>
<glyph glyph-name="question" horiz-adv-x="1160" unicode="?" d="M705 0h-394v264h394v-264zM1084 1126q0 -99 -29.5 -177.5t-83.5 -136.5q-53 -57 -127.5 -102t-166.5 -82v-228h-342v335q56 15 124.5 41t120.5 64q55 39 90 91t35 123q0 99 -63 144t-175 45q-84 0 -178.5 -37t-148.5 -74h-29v301q64 28 187 57t264 29q126 0 222.5 -29.5 t164.5 -82.5q66 -53 100.5 -124.5t34.5 -156.5z"/>
<glyph glyph-name="at" horiz-adv-x="1884" unicode="@" d="M1091 404v504q-41 21 -75.5 30.5t-78.5 9.5q-97 0 -149 -86t-52 -228q0 -157 43.5 -233.5t142.5 -76.5q52 0 90.5 20.5t78.5 59.5zM1751 663q0 -137 -39.5 -284.5t-96.5 -239.5h-488l-15 78q-26 -18 -51.5 -34t-56.5 -27q-35 -13 -65 -19t-82 -6q-76 0 -142 34t-114 98 q-47 62 -74.5 158.5t-27.5 209.5q0 116 34 211t91 164q54 63 127.5 100t153.5 37q64 0 114 -26t77 -53v61l221 1v-808h150q29 66 47.5 156t18.5 183q0 164 -44 287t-123 206q-80 84 -187.5 124.5t-232.5 40.5q-118 0 -223.5 -45t-194.5 -134q-85 -86 -136.5 -212t-51.5 -279 q0 -163 48.5 -290t133.5 -213q82 -85 191 -128.5t228 -43.5q84 0 182.5 15t181.5 40v-213q-91 -21 -175.5 -31t-189.5 -10q-177 0 -328.5 63.5t-260.5 178.5q-110 116 -171.5 278t-61.5 356q0 184 64 343t176 278q111 117 263 183.5t324 66.5q171 0 319 -62t255 -174 q109 -112 170.5 -268.5t61.5 -350.5z"/>
<glyph glyph-name="A" horiz-adv-x="1402" unicode="A" d="M848 574l-152 491l-152 -491h304zM-6 0l503 1489h408l503 -1489h-385l-93 304h-468l-93 -304h-375z"/>
<glyph glyph-name="B" horiz-adv-x="1405" unicode="B" d="M960 463q0 69 -28 108t-84 59q-34 13 -93.5 14.5t-159.5 1.5h-69v-373h20q146 0 202 2t114 27q51 22 74.5 64.5t23.5 96.5zM866 1068q0 36 -18.5 74t-57.5 55q-37 16 -87.5 17.5t-150.5 1.5h-26v-315h47q96 0 134.5 2t79.5 21q45 21 62 58t17 86zM1345 456 q0 -111 -42 -195t-113 -139q-84 -66 -184.5 -94t-255.5 -28h-596v1489h526q164 0 248.5 -12.5t158.5 -52.5q80 -43 119.5 -115t39.5 -166q0 -109 -54.5 -194t-150.5 -125v-8q138 -29 221 -118.5t83 -241.5z"/>
<glyph glyph-name="C" horiz-adv-x="1367" unicode="C" d="M796 -29q-335 0 -532 202.5t-197 569.5q0 354 197.5 564.5t532.5 210.5q89 0 160 -10t136 -28q51 -15 111 -41t97 -45v-355h-38q-27 24 -68 57.5t-93 65.5t-114.5 54.5t-130.5 22.5q-81 0 -148.5 -25.5t-128.5 -88.5q-56 -57 -91.5 -154t-35.5 -229q0 -139 37 -233.5 t97 -152.5q58 -56 129.5 -81t142.5 -25q74 0 141 24.5t113 54.5q50 31 88 63t66 57h34v-350q-41 -19 -95 -43.5t-111 -41.5q-70 -21 -131 -32t-168 -11z"/>
<glyph glyph-name="D" horiz-adv-x="1551" unicode="D" d="M1100 746q0 147 -50.5 251.5t-155.5 163.5q-76 42 -159.5 46t-199.5 4h-7v-932h7q126 0 212.5 4.5t164.5 53.5q92 58 140 160t48 249zM1484 743q0 -208 -91 -372.5t-230 -252.5q-116 -75 -252.5 -96.5t-290.5 -21.5h-466v1489h462q157 0 294 -20t257 -97 q147 -94 232 -253.5t85 -375.5z"/>
<glyph glyph-name="E" horiz-adv-x="1260" unicode="E" d="M154 0v1489h1007v-284h-635v-261h585v-284h-585v-376h635v-284h-1007z"/>
<glyph glyph-name="F" horiz-adv-x="1190" unicode="F" d="M1151 1205h-625v-281h575v-284h-575v-640h-372v1489h997v-284z"/>
<glyph glyph-name="G" horiz-adv-x="1526" unicode="G" d="M1398 85q-98 -40 -254.5 -78t-308.5 -38q-351 0 -559.5 202.5t-208.5 574.5q0 350 208.5 561t570.5 211q187 0 304 -35.5t242 -96.5v-349h-34q-27 21 -77.5 59.5t-98.5 65.5q-56 32 -129.5 55t-155.5 23q-96 0 -175 -30t-141 -92q-59 -60 -93.5 -152t-34.5 -214 q0 -261 131 -385t358 -124q20 0 47 1t47 3v292h-289v279h651v-733z"/>
<glyph glyph-name="H" horiz-adv-x="1565" unicode="H" d="M1411 0h-374v660h-509v-660h-374v1489h374v-545h509v545h374v-1489z"/>
<glyph glyph-name="I" horiz-adv-x="990" unicode="I" d="M896 0h-802v260h214v969h-214v260h802v-260h-214v-969h214v-260z"/>
<glyph glyph-name="J" horiz-adv-x="1025" unicode="J" d="M890 437q0 -97 -33 -182.5t-100 -145.5q-75 -68 -177 -100t-235 -32q-99 0 -186 7.5t-153 21.5v302h34q45 -18 94 -33.5t126 -15.5q99 0 152.5 28t75.5 78q23 49 25.5 113.5t2.5 143.5v597h-341v270h715v-1052z"/>
<glyph glyph-name="K" horiz-adv-x="1426" unicode="K" d="M1459 0h-452l-406 605l-73 -102v-503h-374v1489h374v-661l476 661h433l-531 -691z"/>
<glyph glyph-name="L" horiz-adv-x="1172" unicode="L" d="M1148 0h-994v1489h374v-1205h620v-284z"/>
<glyph glyph-name="M" horiz-adv-x="1829" unicode="M" d="M1675 0h-372v987l-271 -637h-255l-271 637v-987h-352v1489h431l330 -735l329 735h431v-1489z"/>
<glyph glyph-name="N" horiz-adv-x="1578" unicode="N" d="M1430 0h-360l-574 1038v-1038h-342v1489h459l475 -853v853h342v-1489z"/>
<glyph glyph-name="O" horiz-adv-x="1577" unicode="O" d="M1124 745q0 133 -27.5 226.5t-73.5 153.5q-48 61 -108.5 87.5t-125.5 26.5q-69 0 -125 -24.5t-108 -87.5q-46 -58 -74.5 -154t-28.5 -229q0 -137 27 -227.5t74 -151.5q48 -62 109 -88.5t126 -26.5q66 0 128 28.5t107 88.5q48 65 74 151.5t26 226.5zM1510 744 q0 -361 -193 -568t-529 -207q-337 0 -529 209.5t-192 565.5q0 359 192 567.5t529 208.5q336 0 529 -207.5t193 -568.5z"/>
<glyph glyph-name="P" horiz-adv-x="1346" unicode="P" d="M916 1010q0 63 -30 108.5t-72 62.5q-53 23 -101.5 26.5t-131.5 3.5h-53v-446h26q53 0 100 1t82 7q30 5 63.5 19.5t51.5 32.5q38 37 51.5 77t13.5 108zM1300 1019q0 -104 -33 -198t-95 -157q-38 -39 -83.5 -72t-100.5 -56t-119.5 -36t-144.5 -13h-196v-487h-374v1489h578 q129 0 222.5 -23.5t169.5 -74.5q84 -56 130 -149.5t46 -222.5z"/>
<glyph glyph-name="Q" horiz-adv-x="1577" unicode="Q" d="M1024 367q48 65 74 151.5t26 226.5q0 133 -27.5 226.5t-73.5 153.5q-48 61 -108.5 87.5t-125.5 26.5q-69 0 -125 -24.5t-108 -87.5q-46 -58 -74.5 -154t-28.5 -229q0 -137 27 -227.5t74 -151.5q48 -62 109 -88.5t126 -26.5q66 0 128 28.5t107 88.5zM1508 -394 q-60 -15 -120.5 -22t-189.5 -7q-118 0 -200.5 29.5t-137.5 83.5q-55 53 -82.5 126t-31.5 157q-316 14 -497.5 219t-181.5 552q0 359 192 567.5t529 208.5q336 0 529 -207.5t193 -568.5q0 -263 -109.5 -451.5t-309.5 -267.5q2 -109 48.5 -150.5t163.5 -41.5q45 0 95.5 13.5 t72.5 25.5h37v-266z"/>
<glyph glyph-name="R" horiz-adv-x="1487" unicode="R" d="M929 1033q0 56 -21.5 96.5t-71.5 62.5q-35 15 -78 19t-107 4h-125v-401h107q78 0 132.5 9.5t92.5 40.5q36 28 53.5 67t17.5 102zM1531 0h-456l-415 546h-134v-546h-372v1489h599q124 0 216 -15.5t170 -64.5q80 -51 127 -129.5t47 -199.5q0 -171 -77 -277.5t-206 -169.5z "/>
<glyph glyph-name="S" horiz-adv-x="1297" unicode="S" d="M614 -27q-171 0 -300.5 33t-240.5 82v354h34q112 -95 247 -146t262 -51q32 0 84.5 7t84.5 22q39 17 66 47.5t27 80.5q0 56 -44 91t-105 51q-76 20 -162.5 38t-161.5 44q-173 61 -248 164t-75 258q0 209 177 338.5t442 129.5q133 0 264.5 -27t235.5 -73v-340h-33 q-83 71 -202.5 120t-245.5 49q-49 0 -88 -7t-82 -27q-35 -16 -60.5 -47.5t-25.5 -70.5q0 -57 40.5 -90.5t156.5 -60.5q75 -17 144.5 -33t148.5 -44q155 -56 230.5 -150.5t75.5 -249.5q0 -222 -174.5 -357t-471.5 -135z"/>
<glyph glyph-name="T" horiz-adv-x="1254" unicode="T" d="M440 0v1205h-440v284h1254v-284h-440v-1205h-374z"/>
<glyph glyph-name="U" horiz-adv-x="1513" unicode="U" d="M756 -31q-300 0 -461.5 145t-161.5 424v951h374v-929q0 -155 58.5 -231t190.5 -76q129 0 189.5 73t60.5 234v929h374v-950q0 -275 -157.5 -422.5t-466.5 -147.5z"/>
<glyph glyph-name="V" horiz-adv-x="1382" unicode="V" d="M1398 1489l-512 -1489h-390l-512 1489h388l324 -1009l324 1009h378z"/>
<glyph glyph-name="W" horiz-adv-x="2105" unicode="W" d="M2075 1489l-377 -1489h-410l-239 921l-232 -921h-410l-377 1489h388l205 -999l250 999h371l237 -999l216 999h378z"/>
<glyph glyph-name="X" horiz-adv-x="1402" unicode="X" d="M1414 0h-434l-286 475l-292 -475h-414l483 750l-464 739h433l268 -449l275 449h415l-467 -724z"/>
<glyph glyph-name="Y" horiz-adv-x="1373" unicode="Y" d="M1392 1489l-514 -867v-622h-374v603l-523 886h426l292 -532l281 532h412z"/>
<glyph glyph-name="Z" horiz-adv-x="1275" unicode="Z" d="M1235 0h-1181v279l685 926h-649v284h1105v-284l-684 -921h724v-284z"/>
<glyph glyph-name="bracketleft" horiz-adv-x="930" unicode="[" d="M794 -392h-628v1948h628v-236h-325v-1476h325v-236z"/>
<glyph glyph-name="backslash" horiz-adv-x="1182" unicode="\" d="M1074 -324h-287l-593 1880h290z"/>
<glyph glyph-name="bracketright" horiz-adv-x="930" unicode="]" d="M763 -392h-628v236h325v1476h-325v236h628v-1948z"/>
<glyph glyph-name="asciicircum" horiz-adv-x="1676" unicode="^" d="M1503 674h-312l-369 537l-338 -539h-311l529 817h240z"/>
<glyph glyph-name="underscore" d="M1320 -345h-1336v201h1336v-201z" unicode="_"/>
<glyph glyph-name="grave" horiz-adv-x="1118" unicode="`" d="M808 1283h-238l-300 393h331z"/>
<glyph glyph-name="a" horiz-adv-x="1226" unicode="a" d="M753 119q-36 -30 -64.5 -54t-76.5 -48q-47 -23 -91.5 -35t-124.5 -12q-149 0 -247.5 100t-98.5 252q0 125 50 202t144 122q95 46 227 64t284 28v6q0 93 -68.5 128.5t-205.5 35.5q-62 0 -145 -22.5t-162 -57.5h-30v271q52 15 168 35.5t234 20.5q290 0 422.5 -96.5 t132.5 -294.5v-764h-348v119zM753 293v234q-89 -9 -144 -15.5t-108 -25.5q-46 -16 -71.5 -48.5t-25.5 -86.5q0 -79 42.5 -108.5t125.5 -29.5q46 0 94 21t87 59z"/>
<glyph glyph-name="b" horiz-adv-x="1294" unicode="b" d="M1235 577q0 -268 -136 -433.5t-337 -165.5q-84 0 -146 19t-132 59l-15 -56h-335v1556h350v-550q77 66 157 107t185 41q196 0 302.5 -153t106.5 -424zM877 570q0 168 -51 240t-157 72q-47 0 -93.5 -15t-91.5 -45v-564q35 -14 70.5 -19t70.5 -5q127 0 189.5 84t62.5 252z "/>
<glyph glyph-name="c" horiz-adv-x="1080" unicode="c" d="M685 -30q-139 0 -254.5 35t-200.5 108q-84 73 -131 183.5t-47 260.5q0 161 51 274t138 186q84 70 197.5 103.5t236.5 33.5q93 0 186 -21.5t187 -68.5v-300h-45q-21 20 -51.5 44t-66.5 44q-38 21 -86 35.5t-107 14.5q-134 0 -207.5 -93.5t-73.5 -251.5q0 -169 78.5 -252 t208.5 -83q66 0 116 15t86 36q35 21 60 43.5t43 40.5h45v-300q-30 -13 -69.5 -30t-80.5 -28q-51 -14 -95.5 -21.5t-117.5 -7.5z"/>
<glyph glyph-name="d" horiz-adv-x="1289" unicode="d" d="M805 310v551q-26 13 -68 21.5t-72 8.5q-126 0 -189.5 -88t-63.5 -246q0 -166 50.5 -240t163.5 -74q46 0 93 18t86 49zM1155 0h-350v117q-34 -28 -77.5 -60t-76.5 -48q-42 -20 -83 -30t-98 -10q-192 0 -304 159t-112 425q0 147 38 255t105 188q61 73 148 115.5t184 42.5 q88 0 144.5 -18.5t131.5 -57.5v478h350v-1556z"/>
<glyph glyph-name="e" horiz-adv-x="1216" unicode="e" d="M825 706q-3 111 -51.5 169t-148.5 58q-102 0 -159.5 -61t-63.5 -166h423zM709 -30q-318 0 -487.5 152t-169.5 433q0 275 158 439t442 164q258 0 388 -139t130 -398v-126h-767q5 -78 33 -130.5t74 -83.5q45 -31 105 -44.5t131 -13.5q61 0 120 13.5t108 35.5q43 19 79.5 41 t59.5 39h37v-289q-43 -17 -78.5 -31.5t-97.5 -29.5q-57 -15 -117.5 -23.5t-147.5 -8.5z"/>
<glyph glyph-name="f" horiz-adv-x="783" unicode="f" d="M852 1292h-27q-20 6 -62.5 15.5t-80.5 9.5q-106 0 -144.5 -39t-38.5 -146v-9h278v-244h-266v-879h-350v879h-140v244h140v31q0 206 108 309t327 103q76 0 142 -5.5t114 -14.5v-254z"/>
<glyph glyph-name="g" horiz-adv-x="1289" unicode="g" d="M1155 129q0 -156 -45 -265t-123 -170q-78 -62 -187 -89.5t-242 -27.5q-112 0 -212.5 14.5t-174.5 33.5v281h41q26 -10 61.5 -22t71.5 -22q43 -11 84 -18t84 -7q89 0 148.5 18.5t89.5 52.5q30 35 42 82.5t12 119.5v21q-59 -52 -136.5 -83.5t-159.5 -31.5 q-218 0 -336.5 142t-118.5 432q0 132 36.5 237t101.5 179q62 71 150 109.5t183 38.5q86 0 154 -22t124 -59l13 50h339v-994zM805 354v509q-26 12 -64 20t-76 8q-126 0 -189.5 -81.5t-63.5 -227.5q0 -73 9.5 -123.5t35.5 -89.5q25 -38 65.5 -57.5t103.5 -19.5q47 0 92.5 16 t86.5 46z"/>
<glyph glyph-name="h" horiz-adv-x="1311" unicode="h" d="M1186 0h-352v557q0 68 -5.5 135.5t-20.5 99.5q-18 38 -52 54.5t-91 16.5q-43 0 -87 -16t-94 -51v-796h-350v1556h350v-557q86 73 167.5 114t180.5 41q172 0 263 -108.5t91 -314.5v-731z"/>
<glyph glyph-name="i" horiz-adv-x="618" unicode="i" d="M494 1283h-370v273h370v-273zM484 0h-350v1123h350v-1123z"/>
<glyph glyph-name="j" horiz-adv-x="743" unicode="j" d="M609 1283h-373v273h373v-273zM609 -20q0 -190 -113 -296.5t-292 -106.5q-96 0 -174 8.5t-114 17.5v258h27q34 -11 75.5 -17.5t66.5 -6.5q101 0 137.5 62t36.5 204v776h-202v244h552v-1143z"/>
<glyph glyph-name="k" horiz-adv-x="1234" unicode="k" d="M1258 0h-416l-304 489l-54 -73v-416h-350v1556h350v-872l332 439h413l-393 -484z"/>
<glyph glyph-name="l" horiz-adv-x="618" unicode="l" d="M484 0h-350v1556h350v-1556z"/>
<glyph glyph-name="m" horiz-adv-x="1953" unicode="m" d="M1476 0v561q0 83 -3 140t-18 93t-46.5 52.5t-88.5 16.5q-40 0 -79 -17.5t-85 -49.5v-796h-352v561q0 82 -3.5 139.5t-18.5 93.5t-46.5 52.5t-87.5 16.5q-43 0 -84 -20t-80 -47v-796h-350v1123h350v-124q86 73 162 114t171 41q103 0 181 -49t119 -146q101 94 190.5 144.5 t181.5 50.5q78 0 140 -25t105 -75q47 -54 70.5 -128.5t23.5 -194.5v-731h-352z"/>
<glyph glyph-name="n" horiz-adv-x="1311" unicode="n" d="M1186 0h-352v557q0 68 -5.5 135.5t-20.5 99.5q-18 38 -52 54.5t-91 16.5q-43 0 -87 -16t-94 -51v-796h-350v1123h350v-124q86 73 167.5 114t180.5 41q172 0 263 -108.5t91 -314.5v-731z"/>
<glyph glyph-name="o" horiz-adv-x="1264" unicode="o" d="M853 559q0 100 -16.5 166.5t-45.5 106.5q-31 42 -70 58.5t-89 16.5q-47 0 -85 -14.5t-70 -55.5q-30 -39 -48 -107t-18 -171t17 -166.5t44 -101.5q28 -39 70 -57t93 -18q42 0 85.5 18t69.5 54q31 43 47 103.5t16 167.5zM1212 561q0 -277 -151.5 -436.5t-428.5 -159.5 q-275 0 -427.5 159.5t-152.5 436.5q0 280 152.5 438.5t427.5 158.5q276 0 428 -159.5t152 -437.5z"/>
<glyph glyph-name="p" horiz-adv-x="1289" unicode="p" d="M877 570q0 164 -50.5 238t-157.5 74q-47 0 -93.5 -15t-91.5 -45v-565q28 -12 61.5 -17t79.5 -5q128 0 190 83.5t62 251.5zM1235 577q0 -269 -136.5 -434t-336.5 -165q-84 0 -146 19t-132 59v-468h-350v1535h350v-117q77 66 157 107t185 41q195 0 302 -155t107 -422z"/>
<glyph glyph-name="q" horiz-adv-x="1289" unicode="q" d="M805 310v551q-26 13 -68 21.5t-72 8.5q-126 0 -189.5 -88t-63.5 -246q0 -166 50.5 -240t163.5 -74q46 0 93 18t86 49zM1155 -412h-350v522q-37 -30 -77 -58.5t-76 -44.5q-45 -21 -82 -29.5t-100 -8.5q-191 0 -303.5 159t-112.5 425q0 147 38 255t105 188q61 73 148 115.5 t184 42.5q83 0 144.5 -21t129.5 -60l13 50h339v-1535z"/>
<glyph glyph-name="r" horiz-adv-x="888" unicode="r" d="M888 792h-29q-20 7 -58 10.5t-84 3.5q-55 0 -115.5 -16t-117.5 -38v-752h-350v1123h350v-161q24 22 66.5 55.5t77.5 53.5q38 23 88.5 39.5t95.5 16.5q17 0 38 -1t38 -3v-331z"/>
<glyph glyph-name="s" horiz-adv-x="1054" unicode="s" d="M476 -31q-124 0 -234.5 27t-182.5 63v296h29q25 -19 57 -42t89 -48q49 -23 110.5 -39.5t133.5 -16.5q74 0 130.5 23t56.5 73q0 39 -26 59t-101 38q-40 10 -101 21.5t-108 26.5q-132 41 -198.5 121.5t-66.5 211.5q0 75 34.5 141.5t101.5 118.5q67 51 165.5 81t222.5 30 q118 0 217 -23.5t167 -56.5v-284h-28q-18 14 -57 37.5t-76 40.5q-44 20 -98.5 33t-111.5 13q-76 0 -128.5 -26t-52.5 -69q0 -38 26 -60t113 -43q45 -11 103.5 -21.5t112.5 -28.5q121 -39 183.5 -114.5t62.5 -200.5q0 -79 -37 -150.5t-105 -120.5q-72 -53 -169.5 -82 t-233.5 -29z"/>
<glyph glyph-name="t" horiz-adv-x="851" unicode="t" d="M564 -22q-214 0 -311.5 88t-97.5 288v525h-134v244h134v321h350v-321h337v-244h-337v-398q0 -59 1 -103t16 -79q14 -35 49.5 -55.5t103.5 -20.5q28 0 73.5 12t63.5 22h30v-247q-57 -15 -121 -23.5t-157 -8.5z"/>
<glyph glyph-name="u" horiz-adv-x="1311" unicode="u" d="M1177 0h-350v124q-91 -76 -167 -115.5t-181 -39.5q-167 0 -260.5 105.5t-93.5 317.5v731h352v-557q0 -87 4.5 -142t21.5 -93q16 -35 49.5 -53t93.5 -18q37 0 87.5 18t93.5 49v796h350v-1123z"/>
<glyph glyph-name="v" horiz-adv-x="1185" unicode="v" d="M1185 1123l-403 -1123h-382l-400 1123h368l230 -743l227 743h360z"/>
<glyph glyph-name="w" horiz-adv-x="1822" unicode="w" d="M1807 1123l-328 -1123h-372l-197 726l-198 -726h-372l-325 1123h368l172 -743l213 743h309l201 -743l169 743h360z"/>
<glyph glyph-name="x" horiz-adv-x="1238" unicode="x" d="M1242 0h-410l-214 323l-220 -323h-402l413 561l-406 562h410l210 -317l211 317h403l-407 -553z"/>
<glyph glyph-name="y" horiz-adv-x="1179" unicode="y" d="M1182 1123l-567 -1535h-376l170 439l-412 1096h368l236 -704l221 704h360z"/>
<glyph glyph-name="z" horiz-adv-x="1077" unicode="z" d="M1030 0h-982v231l536 629h-512v263h947v-227l-537 -628h548v-268z"/>
<glyph glyph-name="braceleft" horiz-adv-x="1276" unicode="{" d="M1139 -392h-264q-194 0 -307 98.5t-113 288.5v149q0 169 -75 243t-259 74h-65v242h65q184 0 259 74t75 243v149q0 190 113 288.5t307 98.5h264v-220h-109q-60 0 -108.5 -9t-81.5 -34q-34 -26 -51 -75.5t-17 -127.5v-113q0 -144 -82.5 -238.5t-219.5 -144.5v-24 q137 -50 219.5 -144.5t82.5 -238.5v-113q0 -78 17 -127.5t51 -75.5q32 -26 81 -34.5t109 -8.5h109v-220z"/>
<glyph glyph-name="bar" d="M792 -392h-281v1948h281v-1948z" unicode="|"/>
<glyph glyph-name="braceright" horiz-adv-x="1276" unicode="}" d="M1220 461h-65q-184 0 -259 -74t-75 -243v-149q0 -190 -113 -288.5t-307 -98.5h-264v220h109q60 0 108.5 9t81.5 34q34 26 51 75.5t17 127.5v113q0 144 82.5 238.5t219.5 144.5v24q-137 50 -219.5 144.5t-82.5 238.5v113q0 78 -17 127.5t-51 75.5q-33 25 -81.5 34 t-108.5 9h-109v220h264q194 0 307 -98.5t113 -288.5v-149q0 -169 75 -243t259 -74h65v-242z"/>
<glyph glyph-name="asciitilde" horiz-adv-x="1676" unicode="~" d="M1545 989q-1 -315 -106 -484.5t-311 -169.5q-68 0 -119.5 16t-92.5 43q-44 30 -74 62t-65 72q-29 34 -55 68.5t-53 63.5q-24 26 -53.5 44.5t-57.5 18.5q-56 0 -86 -27.5t-48 -79.5q-17 -55 -21.5 -129t-7.5 -154h-260q0 324 107 489t310 165q66 0 118 -16.5t96 -44.5 q42 -27 78.5 -65t60.5 -67q27 -34 54.5 -69.5t53.5 -62.5q26 -28 53 -45.5t56 -17.5q54 0 86 28t48 79q17 55 22 129t7 154h260z"/>
<glyph glyph-name="exclamdown" horiz-adv-x="702" unicode="¡" d="M550 0h-398l41 1060h316zM548 1225h-394v264h394v-264z"/>
<glyph glyph-name="cent" d="M716 236v672q-102 -24 -159 -116.5t-57 -224.5q0 -140 58.5 -224t157.5 -107zM712 -16q-131 9 -231.5 49t-173.5 111q-75 73 -116 178.5t-41 244.5q0 147 45 257t123 183q76 71 178.5 108t215.5 45v315h164v-319q103 -12 177.5 -40.5t102.5 -41.5v-295h-45 q-32 30 -96.5 72t-142.5 58v-676q81 13 142.5 51.5t96.5 77.5h45v-295q-47 -21 -122 -46.5t-158 -33.5v-348h-164v345z" unicode="¢"/>
<glyph glyph-name="sterling" d="M1207 0h-1087v277q110 32 154 108.5t44 217.5h-166v213h166v265q0 195 138.5 316t354.5 121q126 0 210 -17t128 -31v-306h-35q-47 37 -111.5 60.5t-130.5 23.5q-90 0 -146.5 -59.5t-56.5 -166.5v-206h373v-213h-373q0 -39 -12 -92.5t-29 -88.5q-20 -40 -49.5 -74.5 t-68.5 -55.5v-11h697v-281z" unicode="£"/>
<glyph glyph-name="currency" d="M811 662q0 68 -47 115t-115 47h-3q-65 0 -112 -47t-47 -115q0 -65 48 -113.5t114 -48.5q68 1 115 48t47 114zM1186 283l-154 -155l-200 199q-41 -22 -82.5 -34t-97.5 -12q-58 2 -100 13.5t-80 32.5l-201 -201l-157 157l202 200q-21 39 -32 82.5t-11 93.5q0 53 11.5 97.5 t36.5 87.5l-200 202l150 151l201 -201q43 23 82.5 33t98.5 10h8q46 0 87.5 -11t79.5 -31l202 200l156 -156l-201 -200q21 -37 34 -83.5t13 -96.5q-1 -54 -12.5 -98.5t-32.5 -80.5z" unicode="¤"/>
<glyph glyph-name="yen" d="M1283 1489l-455 -807v-57h315v-213h-313v-412h-358v412h-313v213h315v38l-453 826h406l232 -487l232 487h392z" unicode="¥"/>
<glyph glyph-name="brokenbar" d="M792 -392h-281v798h281v-798zM792 758h-281v798h281v-798z" unicode="¦"/>
<glyph glyph-name="section" d="M848 547q0 56 -36.5 91.5t-103.5 62.5q-23 9 -62 22.5t-89 28.5q-35 -28 -65 -73t-30 -98q0 -57 37.5 -92.5t102.5 -61.5q26 -10 68.5 -25t83.5 -27q28 21 61 67.5t33 104.5zM1204 602q0 -100 -54 -182.5t-150 -141.5v-7q94 -53 133.5 -123t39.5 -158q0 -81 -39.5 -152 t-114.5 -121q-81 -54 -180.5 -81.5t-246.5 -27.5q-96 0 -222 16.5t-195 40.5v286h22q46 -28 140.5 -58.5t192.5 -30.5q126 0 181 33t55 90q0 39 -21 64t-61 44q-44 20 -106 39t-134 44q-167 58 -252.5 139.5t-85.5 210.5q0 99 52.5 180.5t151.5 143.5v7q-96 55 -136 127 t-40 164q0 74 39.5 141t114.5 120q74 51 183.5 81t243.5 30q103 0 216 -15.5t191 -41.5v-286h-22q-46 28 -139 58.5t-184 30.5q-105 0 -170.5 -34.5t-65.5 -88.5q0 -39 21.5 -63.5t62.5 -43.5q42 -19 101 -38t140 -46q166 -57 252 -139t86 -211z" unicode="§"/>
<glyph glyph-name="dieresis" horiz-adv-x="1118" unicode="¨" d="M459 1283h-287v273h287v-273zM940 1283h-287v273h287v-273z"/>
<glyph glyph-name="copyright" horiz-adv-x="1902" unicode="©" d="M1269 277q-27 -12 -55 -24.5t-68 -23.5q-41 -12 -73 -18t-81 -6q-93 0 -177 28t-146 84q-63 58 -99 142t-36 201q0 111 35.5 195t98.5 144q61 58 145.5 88.5t178.5 30.5q75 0 146 -20.5t131 -50.5v-204h-20q-20 15 -42.5 30.5t-58.5 33.5q-31 15 -71 26t-81 11 q-106 0 -163.5 -72.5t-57.5 -211.5q0 -136 58.5 -208.5t162.5 -72.5q46 0 87 11.5t70 26.5q34 18 57 34t39 29h20v-203zM1625 655q0 279 -197.5 479t-476.5 200t-476.5 -200t-197.5 -479t197.5 -479t476.5 -200t476.5 200t197.5 479zM1816 655q0 -358 -253.5 -611.5 t-611.5 -253.5t-611.5 253.5t-253.5 611.5t253.5 611.5t611.5 253.5t611.5 -253.5t253.5 -611.5z"/>
<glyph glyph-name="ordfeminine" horiz-adv-x="1040" unicode="ª" d="M635 831v187q-52 -5 -111 -13.5t-91 -19.5q-37 -13 -57.5 -39t-20.5 -69q0 -62 32 -86t103 -24q38 0 77 17.5t68 46.5zM913 596h-278v95q-30 -25 -52 -43.5t-61 -37.5q-38 -19 -73.5 -28.5t-99.5 -9.5q-116 0 -196.5 79t-80.5 203q0 103 39.5 162.5t115.5 96.5 q73 35 176 50.5t233 23.5v4q0 75 -55 103.5t-164 28.5q-67 0 -141 -25.5t-105 -38.5h-24v216q42 12 135 28.5t187 16.5q223 0 333.5 -74t110.5 -239v-611z"/>
<glyph glyph-name="guillemotleft" horiz-adv-x="1440" unicode="«" d="M688 148l-560 446v129l560 445v-296l-281 -214l281 -214v-296zM1258 148l-560 446v129l560 445v-296l-281 -214l281 -214v-296z"/>
<glyph glyph-name="logicalnot" horiz-adv-x="1676" unicode="¬" d="M1472 50h-274v508h-1004v258h1278v-766z"/>
<glyph glyph-name="registered" horiz-adv-x="1902" unicode="®" d="M1063 850q0 27 -11 49.5t-37 36.5q-23 13 -52 17t-74 4h-64v-243h49q46 0 85 7.5t61 25.5q22 16 32.5 41t10.5 62zM1419 245h-261l-251 316h-82v-316h-204v861h314q87 0 140 -7t105 -36q58 -34 84 -80t26 -117q0 -96 -51.5 -156t-132.5 -94zM1625 655q0 279 -197.5 479 t-476.5 200t-476.5 -200t-197.5 -479t197.5 -479t476.5 -200t476.5 200t197.5 479zM1816 655q0 -358 -253.5 -611.5t-611.5 -253.5t-611.5 253.5t-253.5 611.5t253.5 611.5t611.5 253.5t611.5 -253.5t253.5 -611.5z"/>
<glyph glyph-name="macron" d="M1320 1632h-1336v201h1336v-201z" unicode="¯"/>
<glyph glyph-name="degree" horiz-adv-x="1064" unicode="°" d="M719 1117q0 79 -53.5 135t-133.5 56q-79 0 -133 -55.5t-54 -135.5q0 -82 54.5 -136.5t132.5 -54.5q80 0 133.5 55.5t53.5 135.5zM938 1117q0 -170 -118 -286.5t-288 -116.5t-288 116.5t-118 286.5t118 286.5t288 116.5q171 0 288.5 -116.5t117.5 -286.5z"/>
<glyph glyph-name="plusminus" horiz-adv-x="1676" unicode="±" d="M1482 0h-1288v258h513v400h-513v258h512v508h264v-508h512v-258h-513v-400h513v-258z"/>
<glyph glyph-name="uni00B2" horiz-adv-x="1104" unicode="²" d="M968 566h-791v189q70 43 141 89.5t124 88.5q104 83 134 134.5t30 111.5q0 58 -40.5 90t-116.5 32q-70 0 -138 -29.5t-105 -50.5h-23v237q70 24 156.5 42.5t188.5 18.5q184 0 281 -74t97 -212q0 -87 -38 -161t-148 -173q-34 -30 -74 -59.5t-92 -67.5h414v-206z"/>
<glyph glyph-name="uni00B3" horiz-adv-x="1104" unicode="³" d="M943 828q0 -134 -102.5 -210t-319.5 -76q-128 0 -211 17.5t-139 40.5v216h22q37 -21 116 -45.5t154 -24.5q103 0 148.5 24t45.5 78q0 48 -32 70t-125 22h-150v195h135q82 0 115 23.5t33 69.5t-41 66.5t-128 20.5q-64 0 -140 -24t-116 -46h-22v213q64 23 149.5 42 t203.5 19q184 0 282.5 -61.5t98.5 -176.5q0 -90 -48 -145.5t-122 -80.5v-8q80 -16 136.5 -70.5t56.5 -148.5z"/>
<glyph glyph-name="acute" horiz-adv-x="1118" unicode="´" d="M879 1676l-300 -393h-238l207 393h331z"/>
<glyph glyph-name="uni00B5" horiz-adv-x="1333" unicode="µ" d="M1199 0h-309l-16 72h-7q-48 -41 -90 -64t-108 -23q-57 0 -104.5 24t-80.5 55v-476h-350v1535h350v-811q43 -33 90.5 -48.5t91.5 -15.5q40 0 89 14.5t94 49.5v811h350v-1123z"/>
<glyph glyph-name="paragraph" d="M1173 -363h-200v1672h-145v-1672h-210v956q-273 6 -412.5 125.5t-139.5 330.5q0 100 34 177.5t107 138.5q70 58 180.5 91t253.5 33h532v-1852z" unicode="¶"/>
<glyph glyph-name="periodcentered" horiz-adv-x="744" unicode="·" d="M549 730h-354v393h354v-393z"/>
<glyph glyph-name="cedilla" horiz-adv-x="1118" unicode="¸" d="M830 20q1 -18 3 -49.5t2 -56.5q0 -162 -95.5 -249.5t-249.5 -87.5q-36 0 -102.5 7t-100.5 17v200h19q24 -11 68 -23t84 -12q71 0 116.5 39t45.5 121q0 31 -1 55.5t-1 38.5h212z"/>
<glyph glyph-name="uni00B9" horiz-adv-x="1104" unicode="¹" d="M917 566h-681v188h211v426h-219v178q113 0 179.5 30t74.5 105h234v-739h201v-188z"/>
<glyph glyph-name="ordmasculine" horiz-adv-x="1104" unicode="º" d="M689 824q29 39 40 92t11 125q0 146 -45 212.5t-132 66.5q-37 0 -67.5 -11.5t-56.5 -44.5q-24 -31 -38.5 -85.5t-14.5 -137.5q0 -140 44 -207t135 -67q35 0 68.5 13t55.5 44zM1027 1043q0 -221 -121.5 -349t-342.5 -128q-224 0 -344 130t-120 347q0 222 122 349.5 t342 127.5q222 0 343 -127t121 -350z"/>
<glyph glyph-name="guillemotright" horiz-adv-x="1440" unicode="»" d="M742 594l-560 -446v296l281 214l-281 214v296l560 -445v-129zM1312 594l-560 -446v296l281 214l-281 214v296l560 -445v-129z"/>
<glyph glyph-name="onequarter" horiz-adv-x="2310" unicode="¼" d="M1761 383v335l-320 -335h320zM2178 197h-163v-197h-258v197h-465v261l450 486h273v-561h163v-186zM1633 1498l-785 -1498h-264l785 1498h264zM659 559h-272v607h-224v182q115 0 183 35.5t76 109.5h237v-934z"/>
<glyph glyph-name="onehalf" horiz-adv-x="2310" unicode="½" d="M2217 0h-791v189q70 43 141.5 90t123.5 88q104 83 134 134.5t30 111.5q0 58 -40.5 90t-116.5 32q-70 0 -138 -29.5t-105 -50.5h-23v237q70 24 156.5 42.5t188.5 18.5q184 0 281 -74t97 -212q0 -87 -38 -161t-148 -173q-34 -30 -74 -59.5t-92 -67.5h414v-206zM1603 1498 l-785 -1498h-264l785 1498h264zM639 559h-272v607h-224v182q115 0 183 35.5t76 109.5h237v-934z"/>
<glyph glyph-name="threequarters" horiz-adv-x="2310" unicode="¾" d="M1841 383v335l-320 -335h320zM2258 197h-163v-197h-258v197h-465v261l450 486h273v-561h163v-186zM1743 1498l-785 -1498h-264l785 1498h264zM913 828q0 -134 -102.5 -210t-319.5 -76q-128 0 -211 17.5t-139 40.5v216h22q37 -21 116 -45.5t154 -24.5q103 0 148.5 24 t45.5 78q0 48 -32 70t-125 22h-150v195h135q82 0 115 23.5t33 69.5t-41 66.5t-128 20.5q-64 0 -140 -24t-116 -46h-22v213q64 23 149.5 42t203.5 19q184 0 282.5 -61.5t98.5 -176.5q0 -90 -48 -145.5t-122 -80.5v-8q80 -16 136.5 -70.5t56.5 -148.5z"/>
<glyph glyph-name="questiondown" horiz-adv-x="1160" unicode="¿" d="M1049 56q-64 -28 -187 -57t-264 -29q-126 0 -222.5 29.5t-164.5 82.5q-66 52 -100.5 124t-34.5 157q0 99 29.5 177.5t83.5 136.5q53 57 127.5 102t166.5 82v228h342v-335q-56 -15 -124 -41.5t-121 -63.5q-55 -39 -90 -91t-35 -123q0 -99 63 -144t175 -45q84 0 178.5 37 t148.5 74h29v-301zM849 1225h-394v264h394v-264z"/>
<glyph glyph-name="Agrave" horiz-adv-x="1402" unicode="À" d="M848 574l-152 491l-152 -491h304zM-6 0l503 1489h408l503 -1489h-385l-93 304h-468l-93 -304h-375zM917 1656h-238l-300 393h331z"/>
<glyph glyph-name="Aacute" horiz-adv-x="1402" unicode="Á" d="M848 574l-152 491l-152 -491h304zM-6 0l503 1489h408l503 -1489h-385l-93 304h-468l-93 -304h-375zM1011 2049l-300 -393h-238l207 393h331z"/>
<glyph glyph-name="Acircumflex" horiz-adv-x="1402" unicode="Â" d="M848 574l-152 491l-152 -491h304zM-6 0l503 1489h408l503 -1489h-385l-93 304h-468l-93 -304h-375zM1119 1646h-259l-165 213l-164 -213h-255l301 393h241z"/>
<glyph glyph-name="Atilde" horiz-adv-x="1402" unicode="Ã" d="M848 574l-152 491l-152 -491h304zM-6 0l503 1489h408l503 -1489h-385l-93 304h-468l-93 -304h-375zM1139 1976q-10 -167 -83 -244.5t-203 -77.5q-48 0 -91 19.5t-74 38.5q-30 19 -66.5 38.5t-61.5 19.5q-50 0 -68 -31.5t-22 -90.5h-210q6 146 82 233.5t203 87.5 q48 0 89 -17t79 -39q30 -17 66 -36t59 -19q48 0 68.5 32t22.5 86h210z"/>
<glyph glyph-name="Adieresis" horiz-adv-x="1402" unicode="Ä" d="M848 574l-152 491l-152 -491h304zM-6 0l503 1489h408l503 -1489h-385l-93 304h-468l-93 -304h-375zM595 1656h-287v273h287v-273zM1076 1656h-287v273h287v-273z"/>
<glyph glyph-name="Aring" horiz-adv-x="1402" unicode="Å" d="M848 574l-152 491l-152 -491h304zM838 1635q0 63 -38.5 104t-97.5 41t-97.5 -41t-38.5 -104t38 -104.5t98 -41.5t98 42t38 104zM1408 0h-385l-93 304h-468l-93 -304h-375l479 1412q-44 41 -71 96t-27 118q0 127 97.5 218t229.5 91t229.5 -91t97.5 -218q0 -61 -27 -118 t-72 -98z"/>
<glyph glyph-name="AE" horiz-adv-x="2025" unicode="Æ" d="M918 684v535h-122l-190 -535h312zM1925 0h-1007v404h-412l-139 -404h-385l550 1489h1393v-284h-635v-261h585v-284h-585v-376h635v-284z"/>
<glyph glyph-name="Ccedilla" horiz-adv-x="1367" unicode="Ç" d="M796 -27q-337 0 -533 201.5t-196 568.5q0 359 197.5 567t532.5 208q89 0 160 -10t136 -28q51 -14 111 -40.5t97 -45.5v-355h-38q-27 24 -68 57.5t-93 65.5t-114.5 54.5t-130.5 22.5q-81 0 -148.5 -25.5t-128.5 -88.5q-56 -57 -91.5 -154t-35.5 -229q0 -139 37 -233.5 t97 -152.5q58 -56 129.5 -81t142.5 -25q74 0 141 24.5t113 54.5q50 31 88 63t66 57h34v-350q-56 -26 -123.5 -55t-146.5 -46q0 -16 1.5 -41t1.5 -43q0 -162 -95.5 -249.5t-249.5 -87.5q-36 0 -102.5 7t-100.5 17v200h19q24 -11 68 -23t84 -12q76 0 118.5 40t42.5 124v43h-22 z"/>
<glyph glyph-name="Egrave" horiz-adv-x="1260" unicode="È" d="M154 0v1489h1007v-284h-635v-261h585v-284h-585v-376h635v-284h-1007zM891 1656h-238l-300 393h331z"/>
<glyph glyph-name="Eacute" horiz-adv-x="1260" unicode="É" d="M154 0v1489h1007v-284h-635v-261h585v-284h-585v-376h635v-284h-1007zM1008 2049l-300 -393h-238l207 393h331z"/>
<glyph glyph-name="Ecircumflex" horiz-adv-x="1260" unicode="Ê" d="M154 0v1489h1007v-284h-635v-261h585v-284h-585v-376h635v-284h-1007zM1041 1656h-259l-165 213l-164 -213h-255l301 393h241z"/>
<glyph glyph-name="Edieresis" horiz-adv-x="1260" unicode="Ë" d="M154 0v1489h1007v-284h-635v-261h585v-284h-585v-376h635v-284h-1007zM562 1656h-287v273h287v-273zM1043 1656h-287v273h287v-273z"/>
<glyph glyph-name="Igrave" horiz-adv-x="990" unicode="Ì" d="M896 0h-802v260h214v969h-214v260h802v-260h-214v-969h214v-260zM681 1656h-238l-300 393h331z"/>
<glyph glyph-name="Iacute" horiz-adv-x="990" unicode="Í" d="M896 0h-802v260h214v969h-214v260h802v-260h-214v-969h214v-260zM857 2049l-300 -393h-238l207 393h331z"/>
<glyph glyph-name="Icircumflex" horiz-adv-x="990" unicode="Î" d="M896 0h-802v260h214v969h-214v260h802v-260h-214v-969h214v-260zM919 1656h-259l-165 213l-164 -213h-255l301 393h241z"/>
<glyph glyph-name="Idieresis" horiz-adv-x="990" unicode="Ï" d="M896 0h-802v260h214v969h-214v260h802v-260h-214v-969h214v-260zM398 1656h-287v273h287v-273zM879 1656h-287v273h287v-273z"/>
<glyph glyph-name="Eth" horiz-adv-x="1585" unicode="Ð" d="M1134 746q0 147 -50.5 251.5t-155.5 163.5q-74 42 -158.5 46t-200.5 4h-8v-301h320v-229h-320v-402h8q126 0 212.5 4.5t164.5 53.5q92 58 140 160t48 249zM1518 743q0 -208 -91 -372.5t-230 -252.5q-117 -74 -253 -96t-290 -22h-465v681h-171v229h171v579h461 q157 0 294 -20t257 -97q147 -94 232 -253.5t85 -375.5z"/>
<glyph glyph-name="Ntilde" horiz-adv-x="1578" unicode="Ñ" d="M1430 0h-360l-574 1038v-1038h-342v1489h459l475 -853v853h342v-1489zM1251 1986q-10 -167 -83 -244.5t-203 -77.5q-48 0 -91 19.5t-74 38.5q-30 19 -66.5 38.5t-61.5 19.5q-50 0 -68 -31.5t-22 -90.5h-210q6 146 82 233.5t203 87.5q48 0 89 -17t79 -39q30 -17 66 -36 t59 -19q48 0 68.5 32t22.5 86h210z"/>
<glyph glyph-name="Ograve" horiz-adv-x="1577" unicode="Ò" d="M1124 745q0 133 -27.5 226.5t-73.5 153.5q-48 61 -108.5 87.5t-125.5 26.5q-69 0 -125 -24.5t-108 -87.5q-46 -58 -74.5 -154t-28.5 -229q0 -137 27 -227.5t74 -151.5q48 -62 109 -88.5t126 -26.5q66 0 128 28.5t107 88.5q48 65 74 151.5t26 226.5zM1510 744 q0 -361 -193 -568t-529 -207q-337 0 -529 209.5t-192 565.5q0 359 192 567.5t529 208.5q336 0 529 -207.5t193 -568.5zM1025 1656h-238l-300 393h331z"/>
<glyph glyph-name="Oacute" horiz-adv-x="1577" unicode="Ó" d="M1124 745q0 133 -27.5 226.5t-73.5 153.5q-48 61 -108.5 87.5t-125.5 26.5q-69 0 -125 -24.5t-108 -87.5q-46 -58 -74.5 -154t-28.5 -229q0 -137 27 -227.5t74 -151.5q48 -62 109 -88.5t126 -26.5q66 0 128 28.5t107 88.5q48 65 74 151.5t26 226.5zM1510 744 q0 -361 -193 -568t-529 -207q-337 0 -529 209.5t-192 565.5q0 359 192 567.5t529 208.5q336 0 529 -207.5t193 -568.5zM1096 2049l-300 -393h-238l207 393h331z"/>
<glyph glyph-name="Ocircumflex" horiz-adv-x="1577" unicode="Ô" d="M1124 745q0 133 -27.5 226.5t-73.5 153.5q-48 61 -108.5 87.5t-125.5 26.5q-69 0 -125 -24.5t-108 -87.5q-46 -58 -74.5 -154t-28.5 -229q0 -137 27 -227.5t74 -151.5q48 -62 109 -88.5t126 -26.5q66 0 128 28.5t107 88.5q48 65 74 151.5t26 226.5zM1510 744 q0 -361 -193 -568t-529 -207q-337 0 -529 209.5t-192 565.5q0 359 192 567.5t529 208.5q336 0 529 -207.5t193 -568.5zM1216 1656h-259l-165 213l-164 -213h-255l301 393h241z"/>
<glyph glyph-name="Otilde" horiz-adv-x="1577" unicode="Õ" d="M1124 745q0 133 -27.5 226.5t-73.5 153.5q-48 61 -108.5 87.5t-125.5 26.5q-69 0 -125 -24.5t-108 -87.5q-46 -58 -74.5 -154t-28.5 -229q0 -137 27 -227.5t74 -151.5q48 -62 109 -88.5t126 -26.5q66 0 128 28.5t107 88.5q48 65 74 151.5t26 226.5zM1510 744 q0 -361 -193 -568t-529 -207q-337 0 -529 209.5t-192 565.5q0 359 192 567.5t529 208.5q336 0 529 -207.5t193 -568.5zM1219 1986q-10 -167 -83 -244.5t-203 -77.5q-48 0 -91 19.5t-74 38.5q-30 19 -66.5 38.5t-61.5 19.5q-50 0 -68 -31.5t-22 -90.5h-210q6 146 82 233.5 t203 87.5q48 0 89 -17t79 -39q30 -17 66 -36t59 -19q48 0 68.5 32t22.5 86h210z"/>
<glyph glyph-name="Odieresis" horiz-adv-x="1577" unicode="Ö" d="M1124 745q0 133 -27.5 226.5t-73.5 153.5q-48 61 -108.5 87.5t-125.5 26.5q-69 0 -125 -24.5t-108 -87.5q-46 -58 -74.5 -154t-28.5 -229q0 -137 27 -227.5t74 -151.5q48 -62 109 -88.5t126 -26.5q66 0 128 28.5t107 88.5q48 65 74 151.5t26 226.5zM1510 744 q0 -361 -193 -568t-529 -207q-337 0 -529 209.5t-192 565.5q0 359 192 567.5t529 208.5q336 0 529 -207.5t193 -568.5zM691 1656h-287v273h287v-273zM1172 1656h-287v273h287v-273z"/>
<glyph glyph-name="multiply" horiz-adv-x="1676" unicode="×" d="M1442 235l-180 -180l-422 423l-417 -418l-180 180l418 417l-423 422l180 180l422 -423l417 418l180 -180l-418 -417z"/>
<glyph glyph-name="Oslash" horiz-adv-x="1577" unicode="Ø" d="M1028 363q48 64 75.5 155t27.5 227q0 82 -13.5 164.5t-35.5 133.5l-482 -734q43 -34 89.5 -49.5t99.5 -15.5q66 0 130.5 30.5t108.5 88.5zM973 1183q-39 31 -88 46t-96 15q-70 0 -127.5 -25t-109.5 -88q-48 -59 -77 -155.5t-29 -231.5q0 -90 12 -163.5t35 -130.5z M1510 744q0 -168 -46.5 -313t-138.5 -247q-96 -106 -231.5 -160.5t-305.5 -54.5q-98 0 -189.5 22t-168.5 63l-119 -180h-207l186 281q-106 102 -164.5 251.5t-58.5 337.5q0 359 192 567.5t529 208.5q97 0 185.5 -20.5t168.5 -61.5l102 154h210l-170 -256 q109 -104 167.5 -253.5t58.5 -338.5z"/>
<glyph glyph-name="Ugrave" horiz-adv-x="1513" unicode="Ù" d="M756 -31q-300 0 -461.5 145t-161.5 424v951h374v-929q0 -155 58.5 -231t190.5 -76q129 0 189.5 73t60.5 234v929h374v-950q0 -275 -157.5 -422.5t-466.5 -147.5zM949 1656h-238l-300 393h331z"/>
<glyph glyph-name="Uacute" horiz-adv-x="1513" unicode="Ú" d="M756 -31q-300 0 -461.5 145t-161.5 424v951h374v-929q0 -155 58.5 -231t190.5 -76q129 0 189.5 73t60.5 234v929h374v-950q0 -275 -157.5 -422.5t-466.5 -147.5zM1087 2049l-300 -393h-238l207 393h331z"/>
<glyph glyph-name="Ucircumflex" horiz-adv-x="1513" unicode="Û" d="M756 -31q-300 0 -461.5 145t-161.5 424v951h374v-929q0 -155 58.5 -231t190.5 -76q129 0 189.5 73t60.5 234v929h374v-950q0 -275 -157.5 -422.5t-466.5 -147.5zM1166 1656h-259l-165 213l-164 -213h-255l301 393h241z"/>
<glyph glyph-name="Udieresis" horiz-adv-x="1513" unicode="Ü" d="M756 -31q-300 0 -461.5 145t-161.5 424v951h374v-929q0 -155 58.5 -231t190.5 -76q129 0 189.5 73t60.5 234v929h374v-950q0 -275 -157.5 -422.5t-466.5 -147.5zM650 1656h-287v273h287v-273zM1131 1656h-287v273h287v-273z"/>
<glyph glyph-name="Yacute" horiz-adv-x="1373" unicode="Ý" d="M1392 1489l-514 -867v-622h-374v603l-523 886h426l292 -532l281 532h412zM1079 2039l-300 -393h-238l207 393h331z"/>
<glyph glyph-name="Thorn" horiz-adv-x="1350" unicode="Þ" d="M916 785q0 63 -30 108.5t-72 62.5q-53 23 -101.5 26.5t-131.5 3.5h-53v-446h26q53 0 100 1t82 7q30 5 63.5 19.5t51.5 32.5q38 37 51.5 77t13.5 108zM1300 794q0 -104 -33 -198t-95 -157q-90 -91 -199.5 -134t-248.5 -43h-196v-262h-374v1489h374v-225h204 q129 0 222.5 -23.5t169.5 -74.5q84 -56 130 -149.5t46 -222.5z"/>
<glyph glyph-name="germandbls" horiz-adv-x="1322" unicode="ß" d="M1268 468q0 -236 -141.5 -359t-384.5 -123q-26 0 -70 4.5t-75 9.5v272h25q15 -5 45.5 -11.5t57.5 -6.5q81 0 134.5 61t53.5 174t-70 160.5t-217 47.5v267q94 0 144.5 48.5t50.5 151.5q0 78 -39 120t-119 42q-94 0 -136.5 -63.5t-42.5 -176.5v-1086h-350v1056 q0 243 142 376.5t390 133.5q125 0 219.5 -28t157.5 -78q58 -47 89.5 -111.5t31.5 -138.5q0 -135 -81 -230t-198 -112v-9q175 -26 279 -130t104 -261z"/>
<glyph glyph-name="agrave" horiz-adv-x="1226" unicode="à" d="M753 119q-36 -30 -64.5 -54t-76.5 -48q-47 -23 -91.5 -35t-124.5 -12q-149 0 -247.5 100t-98.5 252q0 125 50 202t144 122q95 46 227 64t284 28v6q0 93 -68.5 128.5t-205.5 35.5q-62 0 -145 -22.5t-162 -57.5h-30v271q52 15 168 35.5t234 20.5q290 0 422.5 -96.5 t132.5 -294.5v-764h-348v119zM753 293v234q-89 -9 -144 -15.5t-108 -25.5q-46 -16 -71.5 -48.5t-25.5 -86.5q0 -79 42.5 -108.5t125.5 -29.5q46 0 94 21t87 59zM815 1283h-238l-300 393h331z"/>
<glyph glyph-name="aacute" horiz-adv-x="1226" unicode="á" d="M753 119q-36 -30 -64.5 -54t-76.5 -48q-47 -23 -91.5 -35t-124.5 -12q-149 0 -247.5 100t-98.5 252q0 125 50 202t144 122q95 46 227 64t284 28v6q0 93 -68.5 128.5t-205.5 35.5q-62 0 -145 -22.5t-162 -57.5h-30v271q52 15 168 35.5t234 20.5q290 0 422.5 -96.5 t132.5 -294.5v-764h-348v119zM753 293v234q-89 -9 -144 -15.5t-108 -25.5q-46 -16 -71.5 -48.5t-25.5 -86.5q0 -79 42.5 -108.5t125.5 -29.5q46 0 94 21t87 59zM923 1676l-300 -393h-238l207 393h331z"/>
<glyph glyph-name="acircumflex" horiz-adv-x="1226" unicode="â" d="M753 119q-36 -30 -64.5 -54t-76.5 -48q-47 -23 -91.5 -35t-124.5 -12q-149 0 -247.5 100t-98.5 252q0 125 50 202t144 122q95 46 227 64t284 28v6q0 93 -68.5 128.5t-205.5 35.5q-62 0 -145 -22.5t-162 -57.5h-30v271q52 15 168 35.5t234 20.5q290 0 422.5 -96.5 t132.5 -294.5v-764h-348v119zM753 293v234q-89 -9 -144 -15.5t-108 -25.5q-46 -16 -71.5 -48.5t-25.5 -86.5q0 -79 42.5 -108.5t125.5 -29.5q46 0 94 21t87 59zM1001 1283h-259l-165 213l-164 -213h-255l301 393h241z"/>
<glyph glyph-name="atilde" horiz-adv-x="1226" unicode="ã" d="M753 119q-36 -30 -64.5 -54t-76.5 -48q-47 -23 -91.5 -35t-124.5 -12q-149 0 -247.5 100t-98.5 252q0 125 50 202t144 122q95 46 227 64t284 28v6q0 93 -68.5 128.5t-205.5 35.5q-62 0 -145 -22.5t-162 -57.5h-30v271q52 15 168 35.5t234 20.5q290 0 422.5 -96.5 t132.5 -294.5v-764h-348v119zM753 293v234q-89 -9 -144 -15.5t-108 -25.5q-46 -16 -71.5 -48.5t-25.5 -86.5q0 -79 42.5 -108.5t125.5 -29.5q46 0 94 21t87 59zM1040 1613q-10 -167 -83 -244.5t-203 -77.5q-48 0 -91 19.5t-74 38.5q-30 19 -66.5 38.5t-61.5 19.5 q-50 0 -68 -31.5t-22 -90.5h-210q6 146 82 233.5t203 87.5q48 0 89 -17t79 -39q30 -17 66 -36t59 -19q48 0 68.5 32t22.5 86h210z"/>
<glyph glyph-name="adieresis" horiz-adv-x="1226" unicode="ä" d="M753 119q-36 -30 -64.5 -54t-76.5 -48q-47 -23 -91.5 -35t-124.5 -12q-149 0 -247.5 100t-98.5 252q0 125 50 202t144 122q95 46 227 64t284 28v6q0 93 -68.5 128.5t-205.5 35.5q-62 0 -145 -22.5t-162 -57.5h-30v271q52 15 168 35.5t234 20.5q290 0 422.5 -96.5 t132.5 -294.5v-764h-348v119zM753 293v234q-89 -9 -144 -15.5t-108 -25.5q-46 -16 -71.5 -48.5t-25.5 -86.5q0 -79 42.5 -108.5t125.5 -29.5q46 0 94 21t87 59zM486 1283h-287v273h287v-273zM967 1283h-287v273h287v-273z"/>
<glyph glyph-name="aring" horiz-adv-x="1226" unicode="å" d="M754 1410q0 62 -38.5 105t-97.5 43t-97.5 -42.5t-38.5 -105.5t38 -104.5t98 -41.5t98 42t38 104zM753 119q-36 -30 -64.5 -54t-76.5 -48q-47 -23 -91.5 -35t-124.5 -12q-149 0 -247.5 100t-98.5 252q0 125 50 202t144 122q95 46 227 64t284 28v6q0 93 -68.5 128.5 t-205.5 35.5q-62 0 -145 -22.5t-162 -57.5h-30v271q50 15 131.5 30.5t182.5 22.5q-66 38 -107 106.5t-41 152.5q0 128 90 214.5t218 86.5q129 0 218.5 -86t89.5 -215q0 -92 -48 -165t-126 -108q169 -25 259 -116t90 -258v-764h-348v119zM753 293v234q-89 -9 -144 -15.5 t-108 -25.5q-46 -16 -71.5 -48.5t-25.5 -86.5q0 -79 42.5 -108.5t125.5 -29.5q46 0 94 21t87 59z"/>
<glyph glyph-name="ae" horiz-adv-x="1919" unicode="æ" d="M1529 706q-3 111 -51.5 169t-148.5 58q-103 0 -160.5 -62t-62.5 -165h423zM1450 223q61 0 120 13.5t108 35.5q43 19 79.5 41t59.5 39h37v-289q-43 -17 -78.5 -31.5t-97.5 -29.5q-57 -15 -117.5 -23.5t-147.5 -8.5q-209 0 -314.5 39.5t-200.5 134.5q-33 -32 -75.5 -64.5 t-92.5 -55.5q-55 -26 -111.5 -40t-137.5 -14q-212 0 -321.5 93t-109.5 259q0 124 51 199.5t143 119.5q91 43 220 61t291 26v16q0 93 -68.5 128.5t-205.5 35.5q-62 0 -145 -22.5t-162 -57.5h-30v271q52 15 168 35.5t234 20.5q144 0 252 -36t178 -92q66 51 167.5 91t212.5 40 q258 0 388 -139t130 -398v-126h-767q5 -78 33 -130.5t74 -83.5q45 -31 105 -44.5t131 -13.5zM802 310q-20 53 -29 104.5t-11 100.5q-79 -6 -139.5 -12.5t-113.5 -22.5q-48 -15 -76.5 -46t-28.5 -83q0 -71 39.5 -104.5t128.5 -33.5q69 0 131 29t99 68z"/>
<glyph glyph-name="ccedilla" horiz-adv-x="1080" unicode="ç" d="M676 -28q-139 1 -252 36t-197 108q-83 72 -129 182.5t-46 258.5q0 161 51 274t138 186q84 70 197.5 103.5t236.5 33.5q93 0 186 -21.5t187 -68.5v-300h-45q-21 20 -51.5 44t-66.5 44q-38 21 -86 35.5t-107 14.5q-134 0 -207.5 -93.5t-73.5 -251.5q0 -169 78.5 -253 t208.5 -84q66 0 117 15.5t85 36.5q35 22 59 43.5t44 41.5h45v-300q-29 -12 -73.5 -30.5t-85.5 -29.5q0 -14 1 -36t1 -47q0 -162 -95.5 -249.5t-249.5 -87.5q-36 0 -102.5 7t-100.5 17v200h19q24 -11 68 -23t84 -12q76 0 119 40.5t43 119.5v20v26z"/>
<glyph glyph-name="egrave" horiz-adv-x="1216" unicode="è" d="M825 706q-3 111 -51.5 169t-148.5 58q-102 0 -159.5 -61t-63.5 -166h423zM709 -30q-318 0 -487.5 152t-169.5 433q0 275 158 439t442 164q258 0 388 -139t130 -398v-126h-767q5 -78 33 -130.5t74 -83.5q45 -31 105 -44.5t131 -13.5q61 0 120 13.5t108 35.5q43 19 79.5 41 t59.5 39h37v-289q-43 -17 -78.5 -31.5t-97.5 -29.5q-57 -15 -117.5 -23.5t-147.5 -8.5zM849 1283h-238l-300 393h331z"/>
<glyph glyph-name="eacute" horiz-adv-x="1216" unicode="é" d="M825 706q-3 111 -51.5 169t-148.5 58q-102 0 -159.5 -61t-63.5 -166h423zM709 -30q-318 0 -487.5 152t-169.5 433q0 275 158 439t442 164q258 0 388 -139t130 -398v-126h-767q5 -78 33 -130.5t74 -83.5q45 -31 105 -44.5t131 -13.5q61 0 120 13.5t108 35.5q43 19 79.5 41 t59.5 39h37v-289q-43 -17 -78.5 -31.5t-97.5 -29.5q-57 -15 -117.5 -23.5t-147.5 -8.5zM979 1676l-300 -393h-238l207 393h331z"/>
<glyph glyph-name="ecircumflex" horiz-adv-x="1216" unicode="ê" d="M825 706q-3 111 -51.5 169t-148.5 58q-102 0 -159.5 -61t-63.5 -166h423zM709 -30q-318 0 -487.5 152t-169.5 433q0 275 158 439t442 164q258 0 388 -139t130 -398v-126h-767q5 -78 33 -130.5t74 -83.5q45 -31 105 -44.5t131 -13.5q61 0 120 13.5t108 35.5q43 19 79.5 41 t59.5 39h37v-289q-43 -17 -78.5 -31.5t-97.5 -29.5q-57 -15 -117.5 -23.5t-147.5 -8.5zM1062 1283h-259l-165 213l-164 -213h-255l301 393h241z"/>
<glyph glyph-name="edieresis" horiz-adv-x="1216" unicode="ë" d="M825 706q-3 111 -51.5 169t-148.5 58q-102 0 -159.5 -61t-63.5 -166h423zM709 -30q-318 0 -487.5 152t-169.5 433q0 275 158 439t442 164q258 0 388 -139t130 -398v-126h-767q5 -78 33 -130.5t74 -83.5q45 -31 105 -44.5t131 -13.5q61 0 120 13.5t108 35.5q43 19 79.5 41 t59.5 39h37v-289q-43 -17 -78.5 -31.5t-97.5 -29.5q-57 -15 -117.5 -23.5t-147.5 -8.5zM543 1283h-287v273h287v-273zM1024 1283h-287v273h287v-273z"/>
<glyph glyph-name="igrave" horiz-adv-x="618" unicode="ì" d="M484 0h-350v1123h350v-1123zM539 1283h-238l-300 393h331z"/>
<glyph glyph-name="iacute" horiz-adv-x="618" unicode="í" d="M484 0h-350v1123h350v-1123zM634 1676l-300 -393h-238l207 393h331z"/>
<glyph glyph-name="icircumflex" horiz-adv-x="618" unicode="î" d="M659 1283h-229l-125 213l-124 -213h-225l234 393h235zM484 0h-350v1123h350v-1123z"/>
<glyph glyph-name="idieresis" horiz-adv-x="618" unicode="ï" d="M244 1283h-280v273h280v-273zM658 1283h-280v273h280v-273zM484 0h-350v1123h350v-1123z"/>
<glyph glyph-name="eth" horiz-adv-x="1269" unicode="ð" d="M795 302q30 48 46 119.5t16 185.5q0 25 -2.5 58.5t-4.5 46.5q-50 41 -100.5 59.5t-107.5 18.5q-113 0 -171 -69t-58 -198q0 -144 57 -225.5t167 -81.5q48 0 89.5 20.5t68.5 65.5zM1131 1060q37 -85 59 -181.5t22 -213.5q0 -333 -150 -516.5t-435 -183.5 q-260 0 -417.5 144.5t-157.5 407.5q0 120 41.5 215.5t117.5 165.5q72 65 169 99t203 34q70 0 129 -13t121 -45q-20 57 -66 126t-103 126l-319 -133l-79 174l249 100q-72 61 -141.5 105t-117.5 60v25h430q10 -4 36 -22.5t73 -53.5l214 92l78 -173l-140 -59 q62 -70 106.5 -137.5t77.5 -142.5z"/>
<glyph glyph-name="ntilde" horiz-adv-x="1311" unicode="ñ" d="M1186 0h-352v557q0 68 -5.5 135.5t-20.5 99.5q-18 38 -52 54.5t-91 16.5q-43 0 -87 -16t-94 -51v-796h-350v1123h350v-124q86 73 167.5 114t180.5 41q172 0 263 -108.5t91 -314.5v-731zM1108 1613q-10 -167 -83 -244.5t-203 -77.5q-48 0 -91 19.5t-74 38.5 q-30 19 -66.5 38.5t-61.5 19.5q-50 0 -68 -31.5t-22 -90.5h-210q6 146 82 233.5t203 87.5q48 0 89 -17t79 -39q30 -17 66 -36t59 -19q48 0 68.5 32t22.5 86h210z"/>
<glyph glyph-name="ograve" horiz-adv-x="1264" unicode="ò" d="M853 559q0 100 -16.5 166.5t-45.5 106.5q-31 42 -70 58.5t-89 16.5q-47 0 -85 -14.5t-70 -55.5q-30 -39 -48 -107t-18 -171t17 -166.5t44 -101.5q28 -39 70 -57t93 -18q42 0 85.5 18t69.5 54q31 43 47 103.5t16 167.5zM1212 561q0 -277 -151.5 -436.5t-428.5 -159.5 q-275 0 -427.5 159.5t-152.5 436.5q0 280 152.5 438.5t427.5 158.5q276 0 428 -159.5t152 -437.5zM839 1283h-238l-300 393h331z"/>
<glyph glyph-name="oacute" horiz-adv-x="1264" unicode="ó" d="M853 559q0 100 -16.5 166.5t-45.5 106.5q-31 42 -70 58.5t-89 16.5q-47 0 -85 -14.5t-70 -55.5q-30 -39 -48 -107t-18 -171t17 -166.5t44 -101.5q28 -39 70 -57t93 -18q42 0 85.5 18t69.5 54q31 43 47 103.5t16 167.5zM1212 561q0 -277 -151.5 -436.5t-428.5 -159.5 q-275 0 -427.5 159.5t-152.5 436.5q0 280 152.5 438.5t427.5 158.5q276 0 428 -159.5t152 -437.5zM977 1676l-300 -393h-238l207 393h331z"/>
<glyph glyph-name="ocircumflex" horiz-adv-x="1264" unicode="ô" d="M853 559q0 100 -16.5 166.5t-45.5 106.5q-31 42 -70 58.5t-89 16.5q-47 0 -85 -14.5t-70 -55.5q-30 -39 -48 -107t-18 -171t17 -166.5t44 -101.5q28 -39 70 -57t93 -18q42 0 85.5 18t69.5 54q31 43 47 103.5t16 167.5zM1212 561q0 -277 -151.5 -436.5t-428.5 -159.5 q-275 0 -427.5 159.5t-152.5 436.5q0 280 152.5 438.5t427.5 158.5q276 0 428 -159.5t152 -437.5zM1064 1283h-259l-165 213l-164 -213h-255l301 393h241z"/>
<glyph glyph-name="otilde" horiz-adv-x="1264" unicode="õ" d="M853 559q0 100 -16.5 166.5t-45.5 106.5q-31 42 -70 58.5t-89 16.5q-47 0 -85 -14.5t-70 -55.5q-30 -39 -48 -107t-18 -171t17 -166.5t44 -101.5q28 -39 70 -57t93 -18q42 0 85.5 18t69.5 54q31 43 47 103.5t16 167.5zM1212 561q0 -277 -151.5 -436.5t-428.5 -159.5 q-275 0 -427.5 159.5t-152.5 436.5q0 280 152.5 438.5t427.5 158.5q276 0 428 -159.5t152 -437.5zM1070 1613q-10 -167 -83 -244.5t-203 -77.5q-48 0 -91 19.5t-74 38.5q-30 19 -66.5 38.5t-61.5 19.5q-50 0 -68 -31.5t-22 -90.5h-210q6 146 82 233.5t203 87.5q48 0 89 -17 t79 -39q30 -17 66 -36t59 -19q48 0 68.5 32t22.5 86h210z"/>
<glyph glyph-name="odieresis" horiz-adv-x="1264" unicode="ö" d="M853 559q0 100 -16.5 166.5t-45.5 106.5q-31 42 -70 58.5t-89 16.5q-47 0 -85 -14.5t-70 -55.5q-30 -39 -48 -107t-18 -171t17 -166.5t44 -101.5q28 -39 70 -57t93 -18q42 0 85.5 18t69.5 54q31 43 47 103.5t16 167.5zM1212 561q0 -277 -151.5 -436.5t-428.5 -159.5 q-275 0 -427.5 159.5t-152.5 436.5q0 280 152.5 438.5t427.5 158.5q276 0 428 -159.5t152 -437.5zM536 1283h-287v273h287v-273zM1017 1283h-287v273h287v-273z"/>
<glyph glyph-name="divide" horiz-adv-x="1676" unicode="÷" d="M992 0h-308v330h308v-330zM1482 528h-1288v258h1288v-258zM992 984h-308v330h308v-330z"/>
<glyph glyph-name="oslash" horiz-adv-x="1264" unicode="ø" d="M794 283q33 45 49 112.5t16 163.5q0 51 -6 105.5t-14 85.5l-329 -505q26 -18 56 -26.5t69 -8.5q43 0 87 17.5t72 55.5zM755 877q-26 19 -57 27.5t-66 8.5q-48 0 -86.5 -14.5t-72.5 -56.5q-30 -37 -49 -109.5t-19 -173.5q0 -60 6 -107.5t14 -81.5zM1212 561 q0 -277 -151.5 -436.5t-428.5 -159.5q-75 0 -145.5 16.5t-126.5 41.5l-121 -185h-174l172 260q-90 77 -137.5 196.5t-47.5 266.5q0 280 152.5 438.5t427.5 158.5q80 0 146.5 -16t125.5 -42l101 153h175l-153 -228q91 -79 138 -192.5t47 -271.5z"/>
<glyph glyph-name="ugrave" horiz-adv-x="1311" unicode="ù" d="M1177 0h-350v124q-91 -76 -167 -115.5t-181 -39.5q-167 0 -260.5 105.5t-93.5 317.5v731h352v-557q0 -87 4.5 -142t21.5 -93q16 -35 49.5 -53t93.5 -18q37 0 87.5 18t93.5 49v796h350v-1123zM873 1283h-238l-300 393h331z"/>
<glyph glyph-name="uacute" horiz-adv-x="1311" unicode="ú" d="M1177 0h-350v124q-91 -76 -167 -115.5t-181 -39.5q-167 0 -260.5 105.5t-93.5 317.5v731h352v-557q0 -87 4.5 -142t21.5 -93q16 -35 49.5 -53t93.5 -18q37 0 87.5 18t93.5 49v796h350v-1123zM971 1676l-300 -393h-238l207 393h331z"/>
<glyph glyph-name="ucircumflex" horiz-adv-x="1311" unicode="û" d="M1177 0h-350v124q-91 -76 -167 -115.5t-181 -39.5q-167 0 -260.5 105.5t-93.5 317.5v731h352v-557q0 -87 4.5 -142t21.5 -93q16 -35 49.5 -53t93.5 -18q37 0 87.5 18t93.5 49v796h350v-1123zM1068 1283h-259l-165 213l-164 -213h-255l301 393h241z"/>
<glyph glyph-name="udieresis" horiz-adv-x="1311" unicode="ü" d="M1177 0h-350v124q-91 -76 -167 -115.5t-181 -39.5q-167 0 -260.5 105.5t-93.5 317.5v731h352v-557q0 -87 4.5 -142t21.5 -93q16 -35 49.5 -53t93.5 -18q37 0 87.5 18t93.5 49v796h350v-1123zM550 1283h-287v273h287v-273zM1031 1283h-287v273h287v-273z"/>
<glyph glyph-name="yacute" horiz-adv-x="1179" unicode="ý" d="M1182 1123l-567 -1535h-376l170 439l-412 1096h368l236 -704l221 704h360zM958 1676l-300 -393h-238l207 393h331z"/>
<glyph glyph-name="thorn" horiz-adv-x="1289" unicode="þ" d="M877 570q0 164 -50.5 238t-157.5 74q-47 0 -93.5 -15t-91.5 -45v-565q28 -12 61.5 -17t79.5 -5q128 0 190 83.5t62 251.5zM1235 577q0 -269 -136.5 -434t-336.5 -165q-84 0 -146 19t-132 59v-468h-350v1968h350v-550q77 66 157 107t185 41q195 0 302 -155t107 -422z"/>
<glyph glyph-name="dotlessi" horiz-adv-x="618" unicode="ı" d="M484 0h-350v1123h350v-1123z"/>
<glyph glyph-name="OE" horiz-adv-x="2123" unicode="Œ" d="M1016 278v932h-116t-96 -5q-52 -6 -86 -16t-79 -37q-95 -58 -141.5 -162t-46.5 -247q0 -147 50.5 -251.5t155.5 -163.5q37 -20 77.5 -31.5t81.5 -14.5q42 -4 91.5 -4h108.5zM2023 0h-1088q-211 0 -337.5 30.5t-213.5 86.5q-148 95 -232.5 254.5t-84.5 374.5 q0 198 87.5 364.5t233.5 260.5q83 55 205.5 86.5t337.5 31.5h1092v-284h-635v-261h585v-284h-585v-376h635v-284z"/>
<glyph glyph-name="oe" horiz-adv-x="2018" unicode="œ" d="M1972 495h-767q5 -78 33 -130.5t74 -83.5q45 -31 105 -44.5t131 -13.5q61 0 120 13.5t108 35.5q43 19 79.5 41t59.5 39h37v-289q-43 -17 -78.5 -31.5t-97.5 -29.5q-57 -15 -117.5 -23.5t-147.5 -8.5q-148 0 -277 44.5t-193 117.5q-69 -74 -171.5 -120.5t-237.5 -46.5 q-271 0 -425.5 157t-154.5 439q0 280 152.5 438.5t427.5 158.5q130 0 235.5 -47t171.5 -112q58 68 172 113.5t243 45.5q258 0 388 -139t130 -398v-126zM853 559q0 172 -53 260t-168 88q-47 0 -85 -14.5t-70 -55.5q-30 -39 -48 -107t-18 -171q0 -168 53.5 -255.5t170.5 -87.5 q42 0 85.5 18t69.5 54q35 49 49 114.5t14 156.5zM1627 706q-3 111 -51.5 169t-148.5 58q-103 0 -160.5 -62t-62.5 -165h423z"/>
<glyph glyph-name="Scaron" horiz-adv-x="1297" unicode="Š" d="M614 -27q-171 0 -300.5 33t-240.5 82v354h34q112 -95 247 -146t262 -51q32 0 84.5 7t84.5 22q39 17 66 47.5t27 80.5q0 56 -44 91t-105 51q-76 20 -162.5 38t-161.5 44q-173 61 -248 164t-75 258q0 209 177 338.5t442 129.5q133 0 264.5 -27t235.5 -73v-340h-33 q-83 71 -202.5 120t-245.5 49q-49 0 -88 -7t-82 -27q-35 -16 -60.5 -47.5t-25.5 -70.5q0 -57 40.5 -90.5t156.5 -60.5q75 -17 144.5 -33t148.5 -44q155 -56 230.5 -150.5t75.5 -249.5q0 -222 -174.5 -357t-471.5 -135zM1136 2049l-328 -389h-227l-328 389h259l185 -219 l184 219h255z"/>
<glyph glyph-name="scaron" horiz-adv-x="1054" unicode="š" d="M476 -31q-124 0 -234.5 27t-182.5 63v296h29q25 -19 57 -42t89 -48q49 -23 110.5 -39.5t133.5 -16.5q74 0 130.5 23t56.5 73q0 39 -26 59t-101 38q-40 10 -101 21.5t-108 26.5q-132 41 -198.5 121.5t-66.5 211.5q0 75 34.5 141.5t101.5 118.5q67 51 165.5 81t222.5 30 q118 0 217 -23.5t167 -56.5v-284h-28q-18 14 -57 37.5t-76 40.5q-44 20 -98.5 33t-111.5 13q-76 0 -128.5 -26t-52.5 -69q0 -38 26 -60t113 -43q45 -11 103.5 -21.5t112.5 -28.5q121 -39 183.5 -114.5t62.5 -200.5q0 -79 -37 -150.5t-105 -120.5q-72 -53 -169.5 -82 t-233.5 -29zM998 1676l-328 -389h-227l-328 389h259l185 -219l184 219h255z"/>
<glyph glyph-name="Ydieresis" horiz-adv-x="1373" unicode="Ÿ" d="M1392 1489l-514 -867v-622h-374v603l-523 886h426l292 -532l281 532h412zM600 1656h-287v273h287v-273zM1081 1656h-287v273h287v-273z"/>
<glyph glyph-name="circumflex" horiz-adv-x="1118" unicode="ˆ" d="M981 1283h-259l-165 213l-164 -213h-255l301 393h241z"/>
<glyph glyph-name="caron" horiz-adv-x="1118" unicode="ˇ" d="M998 1676l-328 -389h-227l-328 389h259l185 -219l184 219h255z"/>
<glyph glyph-name="tilde" horiz-adv-x="1118" unicode="˜" d="M1000 1613q-10 -167 -83 -244.5t-203 -77.5q-48 0 -91 19.5t-74 38.5q-30 19 -66.5 38.5t-61.5 19.5q-50 0 -68 -31.5t-22 -90.5h-210q6 146 82 233.5t203 87.5q48 0 89 -17t79 -39q30 -17 66 -36t59 -19q48 0 68.5 32t22.5 86h210z"/>
<glyph glyph-name="Alpha" horiz-adv-x="1402" unicode="Α" d="M848 574l-152 491l-152 -491h304zM-6 0l503 1489h408l503 -1489h-385l-93 304h-468l-93 -304h-375z"/>
<glyph glyph-name="Beta" horiz-adv-x="1405" unicode="Β" d="M960 463q0 69 -28 108t-84 59q-34 13 -93.5 14.5t-159.5 1.5h-69v-373h20q146 0 202 2t114 27q51 22 74.5 64.5t23.5 96.5zM866 1068q0 36 -18.5 74t-57.5 55q-37 16 -87.5 17.5t-150.5 1.5h-26v-315h47q96 0 134.5 2t79.5 21q45 21 62 58t17 86zM1345 456 q0 -111 -42 -195t-113 -139q-84 -66 -184.5 -94t-255.5 -28h-596v1489h526q164 0 248.5 -12.5t158.5 -52.5q80 -43 119.5 -115t39.5 -166q0 -109 -54.5 -194t-150.5 -125v-8q138 -29 221 -118.5t83 -241.5z"/>
<glyph glyph-name="Gamma" horiz-adv-x="1158" unicode="Γ" d="M1158 1205h-630v-1205h-374v1489h1004v-284z"/>
<glyph glyph-name="Delta" horiz-adv-x="1442" unicode="Δ" d="M980 277l-264 788l-265 -788h529zM1448 0h-1454l523 1489h408z"/>
<glyph glyph-name="Epsilon" horiz-adv-x="1260" unicode="Ε" d="M154 0v1489h1007v-284h-635v-261h585v-284h-585v-376h635v-284h-1007z"/>
<glyph glyph-name="Zeta" horiz-adv-x="1275" unicode="Ζ" d="M1235 0h-1181v279l685 926h-649v284h1105v-284l-684 -921h724v-284z"/>
<glyph glyph-name="Eta" horiz-adv-x="1565" unicode="Η" d="M1411 0h-374v660h-509v-660h-374v1489h374v-545h509v545h374v-1489z"/>
<glyph glyph-name="Theta" horiz-adv-x="1577" unicode="Θ" d="M1002 613h-427v304h427v-304zM1027 367q49 66 75 152t26 226q0 134 -27.5 227t-75.5 153q-46 59 -108.5 86.5t-127.5 27.5q-67 0 -126.5 -26t-109.5 -86q-47 -58 -75.5 -153.5t-28.5 -229.5q0 -127 27.5 -222.5t75.5 -156.5q46 -59 107 -87t130 -28q67 0 130 29t108 88z M1510 744q0 -168 -46.5 -313t-138.5 -247q-96 -106 -231.5 -160.5t-305.5 -54.5q-337 0 -529 209.5t-192 565.5q0 359 192 567.5t529 208.5q336 0 529 -207.5t193 -568.5z"/>
<glyph glyph-name="Iota" horiz-adv-x="990" unicode="Ι" d="M896 0h-802v260h214v969h-214v260h802v-260h-214v-969h214v-260z"/>
<glyph glyph-name="Kappa" horiz-adv-x="1426" unicode="Κ" d="M1459 0h-452l-406 605l-73 -102v-503h-374v1489h374v-661l476 661h433l-531 -691z"/>
<glyph glyph-name="Lambda" horiz-adv-x="1382" unicode="Λ" d="M1398 0h-388l-324 1009l-324 -1009h-378l512 1489h390z"/>
<glyph glyph-name="Mu" horiz-adv-x="1829" unicode="Μ" d="M1675 0h-372v987l-271 -637h-255l-271 637v-987h-352v1489h431l330 -735l329 735h431v-1489z"/>
<glyph glyph-name="Nu" horiz-adv-x="1578" unicode="Ν" d="M1430 0h-360l-574 1038v-1038h-342v1489h459l475 -853v853h342v-1489z"/>
<glyph glyph-name="Xi" horiz-adv-x="1294" unicode="Ξ" d="M1198 0h-1102v304h1102v-304zM1148 620h-1002v304h1002v-304zM1198 1185h-1102v304h1102v-304z"/>
<glyph glyph-name="Omicron" horiz-adv-x="1577" unicode="Ο" d="M1124 745q0 133 -27.5 226.5t-73.5 153.5q-48 61 -108.5 87.5t-125.5 26.5q-69 0 -125 -24.5t-108 -87.5q-46 -58 -74.5 -154t-28.5 -229q0 -137 27 -227.5t74 -151.5q48 -62 109 -88.5t126 -26.5q66 0 128 28.5t107 88.5q48 65 74 151.5t26 226.5zM1510 744 q0 -361 -193 -568t-529 -207q-337 0 -529 209.5t-192 565.5q0 359 192 567.5t529 208.5q336 0 529 -207.5t193 -568.5z"/>
<glyph glyph-name="Pi" horiz-adv-x="1565" unicode="Π" d="M1411 0h-374v1205h-509v-1205h-374v1489h1257v-1489z"/>
<glyph glyph-name="Rho" horiz-adv-x="1346" unicode="Ρ" d="M916 1010q0 63 -30 108.5t-72 62.5q-53 23 -101.5 26.5t-131.5 3.5h-53v-446h26q53 0 100 1t82 7q30 5 63.5 19.5t51.5 32.5q38 37 51.5 77t13.5 108zM1300 1019q0 -104 -33 -198t-95 -157q-38 -39 -83.5 -72t-100.5 -56t-119.5 -36t-144.5 -13h-196v-487h-374v1489h578 q129 0 222.5 -23.5t169.5 -74.5q84 -56 130 -149.5t46 -222.5z"/>
<glyph glyph-name="Sigma" horiz-adv-x="1252" unicode="Σ" d="M1214 0h-1148v284l466 501l-448 425v279h1094v-284h-635l406 -392v-71l-426 -458h691v-284z"/>
<glyph glyph-name="Tau" horiz-adv-x="1254" unicode="Τ" d="M440 0v1205h-440v284h1254v-284h-440v-1205h-374z"/>
<glyph glyph-name="Upsilon" horiz-adv-x="1373" unicode="Υ" d="M1392 1489l-514 -867v-622h-374v603l-523 886h426l292 -532l281 532h412z"/>
<glyph glyph-name="Phi" horiz-adv-x="1796" unicode="Φ" d="M712 397v708q-132 -24 -201.5 -113.5t-69.5 -229.5q0 -152 65 -243.5t206 -121.5zM1355 762q0 141 -72 230.5t-199 112.5v-708q147 32 209 121.5t62 243.5zM1739 756q0 -269 -182 -425.5t-473 -181.5v-161h-372v161q-291 25 -473 179.5t-182 427.5q0 272 177 422t478 176 v150h372v-150q292 -21 473.5 -172.5t181.5 -425.5z"/>
<glyph glyph-name="Chi" horiz-adv-x="1402" unicode="Χ" d="M1414 0h-434l-286 475l-292 -475h-414l483 750l-464 739h433l268 -449l275 449h415l-467 -724z"/>
<glyph glyph-name="Psi" horiz-adv-x="1847" unicode="Ψ" d="M1744 937q0 -293 -159.5 -437.5t-476.5 -172.5v-327h-369v327q-324 30 -480 174.5t-156 435.5v552h369v-547q0 -161 62 -246t205 -114v907h369v-907q143 26 205 112.5t62 247.5v547h369v-552z"/>
<glyph glyph-name="alpha" horiz-adv-x="1289" unicode="α" d="M805 310v513q-38 26 -83.5 41.5t-91.5 15.5q-111 0 -164.5 -76t-53.5 -243q0 -161 48.5 -239.5t165.5 -78.5q46 0 93 18t86 49zM1155 0h-350v117q-92 -79 -164.5 -113.5t-170.5 -34.5q-187 0 -301.5 156.5t-114.5 435.5q0 273 120.5 433t307.5 160q112 0 178 -31.5 t145 -106.5v107h350v-1123z"/>
<glyph glyph-name="beta" horiz-adv-x="1313" unicode="β" d="M908 472q0 67 -24 111.5t-65 69.5q-41 24 -97 33.5t-125 9.5h-25v234q130 0 195.5 47.5t65.5 163.5q0 84 -47 129.5t-116 45.5q-57 0 -89.5 -19t-56.5 -54q-21 -30 -30.5 -76.5t-9.5 -90.5v-811q32 -14 76.5 -22t81.5 -8q50 0 102 14t85 41q40 33 59.5 71t19.5 111z M1268 444q0 -200 -134.5 -332.5t-336.5 -132.5q-91 0 -168.5 19.5t-144.5 59.5v-470h-350v1485q0 112 31.5 199.5t100.5 154.5q66 64 174.5 100t253.5 36q224 0 360.5 -99.5t136.5 -276.5q0 -118 -62.5 -212.5t-173.5 -132.5v-17q147 -29 230 -127.5t83 -253.5z"/>
<glyph glyph-name="gamma" horiz-adv-x="1185" unicode="γ" d="M1185 1123l-419 -1097v-438h-350v438l-416 1097h368l230 -693l227 693h360z"/>
<glyph glyph-name="delta" horiz-adv-x="1264" unicode="δ" d="M851 555q0 112 -33.5 208t-119.5 175q-43 -11 -94 -37t-93 -69q-42 -42 -71 -113t-29 -166q0 -163 62 -250t162 -87q101 0 158.5 86.5t57.5 252.5zM1048 1023q72 -84 117.5 -194.5t45.5 -256.5q0 -280 -157 -443.5t-421 -163.5q-273 0 -427 153.5t-154 415.5 q0 130 38.5 230.5t104.5 171.5q64 68 148 107.5t176 60.5q-87 66 -172.5 122.5t-167.5 100.5v229h948v-244h-423v-6q97 -66 181.5 -128.5t162.5 -154.5z"/>
<glyph glyph-name="epsilon" horiz-adv-x="1072" unicode="ε" d="M1042 56q-37 -13 -93.5 -32t-106.5 -29q-64 -13 -117.5 -19.5t-146.5 -6.5q-102 0 -196.5 17t-167.5 56q-73 40 -116 103t-43 158q0 110 62 178t160 101v7q-86 26 -136 92t-50 157q0 87 44 147t118 99q64 34 159 52.5t195 18.5q129 0 230 -23t164 -42v-266h-37 q-46 24 -129 52t-172 28q-42 0 -74 -4t-68 -17q-31 -12 -51 -33.5t-20 -53.5q0 -42 24 -64.5t61 -30.5q40 -9 83.5 -9.5t92.5 -0.5h93v-226h-136q-60 0 -99.5 -2t-80.5 -15q-34 -11 -54 -37t-20 -67q0 -37 23 -61.5t60 -37.5q35 -14 80 -19.5t87 -5.5q90 0 186 31.5 t155 72.5h37v-268z"/>
<glyph glyph-name="zeta" horiz-adv-x="987" unicode="ζ" d="M1041 -49q0 -98 -43 -196t-103 -167h-294v24q31 32 52.5 56.5t43.5 60.5t31.5 65.5t9.5 74.5q0 20 -8.5 45t-22.5 43t-40 31.5t-57 13.5h-120q-220 0 -327.5 108.5t-107.5 324.5q0 133 42.5 252.5t114.5 229.5q71 110 167.5 208.5t188.5 178.5v8h-428v244h872v-221 q-110 -69 -217.5 -162.5t-191.5 -198.5t-136 -222t-52 -231q0 -30 2.5 -58t13.5 -65q11 -33 32 -62t61 -52q34 -20 92.5 -22t108.5 -2h45q70 0 120 -27.5t84 -72.5q35 -47 51 -99t16 -110z"/>
<glyph glyph-name="eta" horiz-adv-x="1309" unicode="η" d="M1186 -412h-352v969q0 68 -5.5 135.5t-20.5 99.5q-18 38 -52 54.5t-91 16.5q-43 0 -87 -16t-94 -51v-796h-350v1123h350v-124q86 73 167.5 114t180.5 41q172 0 263 -108.5t91 -314.5v-1143z"/>
<glyph glyph-name="theta" horiz-adv-x="1292" unicode="θ" d="M860 653h-428q1 -85 12 -173t42 -157q25 -55 65 -83t95 -28q52 0 95 28.5t66 85.5q27 66 39.5 155.5t13.5 171.5zM860 902q-3 79 -15.5 161.5t-40.5 143.5q-26 55 -65 80.5t-93 25.5q-55 0 -92.5 -23.5t-65.5 -82.5q-29 -63 -41 -144t-15 -161h428zM1118 1285 q57 -118 74 -257t17 -269q0 -116 -19 -266t-73 -257q-68 -133 -183 -201.5t-288 -68.5q-190 0 -302 77t-170 196t-74.5 262t-16.5 267q0 131 16.5 266t76.5 256q57 116 170 192.5t300 76.5q190 0 302.5 -78t169.5 -196z"/>
<glyph glyph-name="iota" horiz-adv-x="618" unicode="ι" d="M484 0h-350v1123h350v-1123z"/>
<glyph glyph-name="kappa" horiz-adv-x="1228" unicode="κ" d="M1248 0h-411l-291 475l-62 -70v-405h-350v1123h350v-450l254 312q51 65 123 102.5t161 37.5q27 0 68.5 -1t60.5 -1v-311h-16q-11 2 -28.5 3t-27.5 1q-35 0 -79 -15.5t-73 -52.5l-86 -116z"/>
<glyph glyph-name="lambda" horiz-adv-x="1183" unicode="λ" d="M1183 0h-367l-221 636l-236 -636h-359l417 1054l-200 502h380z"/>
<glyph glyph-name="mu" horiz-adv-x="1333" unicode="μ" d="M1199 0h-309l-16 72h-7q-48 -41 -90 -64t-108 -23q-57 0 -104.5 24t-80.5 55v-476h-350v1535h350v-811q43 -33 90.5 -48.5t91.5 -15.5q40 0 89 14.5t94 49.5v811h350v-1123z"/>
<glyph glyph-name="nu" horiz-adv-x="1185" unicode="ν" d="M1185 1123l-403 -1123h-382l-400 1123h368l230 -743l227 743h360z"/>
<glyph glyph-name="xi" horiz-adv-x="1050" unicode="ξ" d="M1095 -49q0 -98 -43 -196t-103 -167h-294v24q31 32 52.5 56.5t43.5 60.5t31.5 65.5t9.5 74.5q0 20 -8.5 45t-22.5 43t-40 31.5t-57 13.5h-142q-219 0 -345.5 109.5t-126.5 296.5q0 151 84 251.5t240 140.5v11q-107 25 -176 94t-69 165q0 80 48.5 139t123.5 97v10h-220 v240h925v-244h-234q-140 0 -212.5 -54.5t-72.5 -141.5q0 -58 26.5 -97t68.5 -61q39 -20 90.5 -29.5t108.5 -9.5h179v-252h-276q-126 0 -200.5 -55t-74.5 -148q0 -70 27 -111t73 -62q46 -20 105 -25.5t129 -5.5h81q70 0 120 -27.5t84 -72.5q35 -47 51 -99t16 -110z"/>
<glyph glyph-name="omicron" horiz-adv-x="1264" unicode="ο" d="M853 559q0 100 -16.5 166.5t-45.5 106.5q-31 42 -70 58.5t-89 16.5q-47 0 -85 -14.5t-70 -55.5q-30 -39 -48 -107t-18 -171t17 -166.5t44 -101.5q28 -39 70 -57t93 -18q42 0 85.5 18t69.5 54q31 43 47 103.5t16 167.5zM1212 561q0 -277 -151.5 -436.5t-428.5 -159.5 q-275 0 -427.5 159.5t-152.5 436.5q0 280 152.5 438.5t427.5 158.5q276 0 428 -159.5t152 -437.5z"/>
<glyph glyph-name="pi" horiz-adv-x="1324" unicode="π" d="M1190 0h-350v875h-356v-875h-350v1123h1056v-1123z"/>
<glyph glyph-name="rho" horiz-adv-x="1289" unicode="ρ" d="M828 341q25 45 37 103t12 124q0 55 -7.5 120t-28.5 110q-22 49 -62 80t-106 31q-90 0 -139.5 -63t-49.5 -175v-406q41 -16 75 -23t79 -7q68 0 115.5 28.5t74.5 77.5zM1112 982q64 -78 93.5 -182.5t29.5 -218.5t-30 -223t-89 -193q-62 -87 -147.5 -137t-206.5 -50 q-91 0 -159.5 24t-118.5 55v-469h-350v1066q0 236 147.5 370t396.5 134q155 0 262 -48t172 -128z"/>
<glyph glyph-name="sigma1" horiz-adv-x="1032" unicode="ς" d="M1062 -49q0 -102 -43 -197.5t-103 -165.5h-294v24q31 32 52.5 56.5t43.5 60.5t31.5 65.5t9.5 74.5q0 20 -8.5 45t-22.5 43t-40 31.5t-57 13.5h-54q-106 0 -203.5 33.5t-167.5 100.5q-71 68 -112.5 173t-41.5 248q0 148 48.5 263.5t139.5 192.5q83 71 194 106t232 35 q92 0 189.5 -22.5t176.5 -64.5v-300h-44q-20 19 -49 43t-66 44q-37 21 -85 34.5t-104 13.5q-132 0 -202.5 -82.5t-70.5 -218.5q0 -172 79.5 -256.5t252.5 -84.5h46q124 0 198.5 -91t74.5 -218z"/>
<glyph glyph-name="sigma" horiz-adv-x="1344" unicode="σ" d="M853 560q0 170 -52 259t-169 89q-116 0 -168.5 -92.5t-52.5 -256.5q0 -173 54 -258t170 -85q103 0 160.5 80t57.5 264zM1360 879h-245q36 -62 66.5 -151t30.5 -177q0 -267 -151.5 -426.5t-428.5 -159.5t-428.5 159.5t-151.5 436.5q0 280 152.5 438.5t427.5 158.5 q59 0 119.5 -9.5t120.5 -25.5h488v-244z"/>
<glyph glyph-name="tau" horiz-adv-x="1066" unicode="τ" d="M1056 879h-348v-879h-350v879h-348v244h1046v-244z"/>
<glyph glyph-name="upsilon" horiz-adv-x="1300" unicode="υ" d="M1177 402q0 -218 -136.5 -327.5t-391.5 -109.5q-251 0 -388.5 108t-137.5 329v721h352v-601q0 -84 6 -137.5t25 -92.5q19 -37 52.5 -54.5t91.5 -17.5q56 0 91.5 17.5t54.5 56.5q17 36 23 90t6 138v601h352v-721z"/>
<glyph glyph-name="phi" horiz-adv-x="1713" unicode="φ" d="M1305 592q0 146 -71 230t-206 94v-695q147 21 212 112t65 259zM1662 584q0 -260 -169 -421.5t-465 -181.5v-393h-348v396q-136 11 -250 53t-199 116t-132 175t-47 231q0 159 55 299t164 265h346v-33q-98 -99 -152 -231t-54 -253q0 -175 75 -267t194 -113v922q10 0 33.5 1 t61.5 3q40 1 83.5 2t84.5 1q347 0 533 -141t186 -430z"/>
<glyph glyph-name="chi" horiz-adv-x="1153" unicode="χ" d="M1176 -412h-367l-235 487l-238 -487h-359l399 777l-385 758h367l221 -461l224 461h359l-386 -751z"/>
<glyph glyph-name="psi" horiz-adv-x="1750" unicode="ψ" d="M1628 482q0 -125 -45 -216.5t-122 -149.5t-182 -91t-230 -44v-393h-348v393q-136 13 -236 45.5t-175 89.5q-79 60 -123.5 150.5t-44.5 215.5v641h350v-607q0 -85 16 -139t47 -88q29 -31 72.5 -46.5t93.5 -20.5v901h348v-901q51 6 94 20.5t72 46.5q31 35 47 84.5t16 142.5 v607h350v-641z"/>
<glyph glyph-name="theta1" horiz-adv-x="1300" unicode="ϑ" d="M825 1043v116v13q0 134 -39 134q-25 0 -40 -47q-12 -37 -12 -74q0 -142 65 -142h26zM1292 775h-115v-373q0 -437 -528 -437q-526 0 -526 437v721h352v-601q0 -152 19 -205q36 -97 156 -97q121 0 156 100q18 50 19 202v253h-25q-133 0 -204 127q-62 110 -62 283 q0 166 83 273.5t215 107.5q345 0 345 -403v-120h115v-268z"/>
<glyph glyph-name="Upsilon1" horiz-adv-x="1657" unicode="ϒ" d="M1657 1305l-125 -226l-23 13q-53 57 -113 90q-50 28 -92 28q-84 0 -186 -176l-240 -412v-622h-374v603l-523 886h426l292 -532l178 336q132 249 302 249q103 0 239 -75q161 -89 239 -162z"/>
<glyph glyph-name="omega1" horiz-adv-x="1658" unicode="ϖ" d="M1249 508q0 186 -84 352h-673q-83 -166 -83 -352q0 -117 28 -193q36 -97 117 -97q60 0 101 27v353h348v-353q37 -27 101 -27q85 0 122 113q23 70 23 177zM1603 501q0 -220 -102 -364q-120 -170 -344 -170q-93 0 -181 42q-92 44 -141 119h-12q-112 -161 -322 -161 q-225 0 -344 170q-102 145 -102 364q0 196 76 359h-76v263h1548v-263h-74q74 -160 74 -359z"/>
<glyph glyph-name="uni2002" horiz-adv-x="1024" unicode=" "/>
<glyph glyph-name="uni2003" horiz-adv-x="2048" unicode=" "/>
<glyph glyph-name="uni2009" horiz-adv-x="410" unicode=" "/>
<glyph glyph-name="afii61664" horiz-adv-x="0" unicode="‌" d="M36 1289v-1564h-72v1564h72z"/>
<glyph glyph-name="afii301" horiz-adv-x="0" unicode="‍" d="M36 -275h-72v1389l-134 -136l-49 49l171 169l-171 168l49 49l170 -171l170 171l49 -49l-171 -168l171 -169l-49 -49l-134 136v-1389z"/>
<glyph glyph-name="afii299" horiz-adv-x="0" unicode="‎" d="M430 1198l-217 -214l-49 49l137 130h-266v-1438h-71v1509h337l-137 130l49 49z"/>
<glyph glyph-name="endash" d="M1308 528h-1312v258h1312v-258z" unicode="–"/>
<glyph glyph-name="emdash" horiz-adv-x="1862" unicode="—" d="M1866 528h-1870v258h1870v-258z"/>
<glyph glyph-name="quoteleft" horiz-adv-x="564" unicode="‘" d="M469 967h-224l-271 589h338z"/>
<glyph glyph-name="quoteright" horiz-adv-x="564" unicode="’" d="M590 1556l-271 -589h-224l157 589h338z"/>
<glyph glyph-name="quotesinglbase" horiz-adv-x="564" unicode="‚" d="M539 284l-271 -589h-224l157 589h338z"/>
<glyph glyph-name="quotedblleft" horiz-adv-x="1002" unicode="“" d="M469 967h-224l-271 589h338zM907 967h-224l-271 589h338z"/>
<glyph glyph-name="quotedblright" horiz-adv-x="1002" unicode="”" d="M590 1556l-271 -589h-224l157 589h338zM1028 1556l-271 -589h-224l157 589h338z"/>
<glyph glyph-name="dagger" d="M1136 943l-364 5l5 -813h-250l5 813l-364 -5v220l364 -5l-5 398h250l-5 -398l364 5v-220z" unicode="†"/>
<glyph glyph-name="daggerdbl" d="M1136 515l-364 5l5 -385h-250l5 385l-364 -5v220l365 -5v240l-365 -5v220l364 -5l-5 376h250l-5 -376l364 5v-220l-365 5v-240l365 5v-220z" unicode="‡"/>
<glyph glyph-name="ellipsis" horiz-adv-x="2048" unicode="…" d="M511 0h-340v393h340v-393zM1194 0h-340v393h340v-393zM1877 0h-340v393h340v-393z"/>
<glyph glyph-name="perthousand" horiz-adv-x="3432" unicode="‰" d="M3043 455q0 63 -5.5 115t-21.5 87t-45 52.5t-74 17.5q-48 0 -75 -17.5t-44 -53.5q-15 -32 -21 -87t-6 -115q0 -74 4 -117.5t22 -83.5q16 -35 45 -53.5t75 -18.5q45 0 74 18t45 54q14 31 20.5 81.5t6.5 120.5zM3328 458q0 -248 -110.5 -368.5t-320.5 -120.5 q-216 0 -326 120t-110 365t112 365.5t324 120.5q216 0 323.5 -120.5t107.5 -361.5zM2061 455q0 63 -5.5 115t-21.5 87t-45 52.5t-74 17.5q-48 0 -75 -17.5t-44 -53.5q-15 -32 -21 -87t-6 -115q0 -74 4 -117.5t22 -83.5q15 -35 44.5 -53.5t75.5 -18.5q45 0 74 18t45 54 q14 32 20.5 82t6.5 120zM689 1033q0 63 -5.5 115t-21.5 87t-45 52.5t-74 17.5q-48 0 -75 -17.5t-44 -53.5q-15 -32 -21 -87t-6 -115q0 -74 4 -117.5t22 -83.5q15 -35 44.5 -53.5t75.5 -18.5q45 0 74 18t45 54q14 32 20.5 82t6.5 120zM2346 458q0 -248 -110.5 -368.5 t-320.5 -120.5q-216 0 -326 120t-110 365t112 365.5t324 120.5q216 0 323.5 -120.5t107.5 -361.5zM1748 1489l-780 -1489h-264l780 1489h264zM974 1036q0 -248 -110.5 -368.5t-320.5 -120.5q-216 0 -326 120t-110 365t112 365.5t324 120.5q216 0 323.5 -120.5t107.5 -361.5z "/>
<glyph glyph-name="minute" horiz-adv-x="640" unicode="′" d="M661 1489l-352 -639h-228l224 639h356z"/>
<glyph glyph-name="second" horiz-adv-x="1110" unicode="″" d="M1131 1489l-352 -639h-228l224 639h356zM661 1489l-352 -639h-228l224 639h356z"/>
<glyph glyph-name="guilsinglleft" horiz-adv-x="870" unicode="‹" d="M688 148l-560 446v129l560 445v-296l-281 -214l281 -214v-296z"/>
<glyph glyph-name="guilsinglright" horiz-adv-x="870" unicode="›" d="M742 594l-560 -446v296l281 214l-281 214v296l560 -445v-129z"/>
<glyph glyph-name="uni203E" d="M1304 1632h-1356v201h1356v-201z" unicode="‾"/>
<glyph glyph-name="fraction" horiz-adv-x="886" unicode="⁄" d="M970 1489l-780 -1489h-285l780 1489h285z"/>
<glyph glyph-name="Euro" d="M945 662l-37 -188h-402q103 -225 352 -225q157 0 342 148h38v-333q-217 -93 -442 -93q-276 0 -458 136q-174 130 -238 367h-138l38 188h70q-3 40 -3 81q0 29 1 57h-106l38 188h96q61 246 239 385q185 145 462 145q223 0 441 -94v-332h-38q-185 147 -343 147 q-264 0 -361 -251h515l-37 -188h-519q-2 -29 -2 -58q0 -41 4 -80h488z" unicode="€"/>
<glyph glyph-name="trademark" horiz-adv-x="1763" unicode="™" d="M671 1332h-199v-547h-187v547h-199v157h585v-157zM1653 785h-174v546h-20l-174 -383h-125l-176 390h-25v-553h-173v704h299l140 -344l146 344h282v-704z"/>
<glyph glyph-name="arrowleft" horiz-adv-x="2048" unicode="←" d="M492 876h76q-59 -118 -88.5 -165.5t-106.5 -143.5h1595v-101h-1595q104 -108 198 -309h-78q-129 144 -222 218.5t-192 122.5v45q87 37 184 113t229 220z"/>
<glyph glyph-name="arrowup" horiz-adv-x="1024" unicode="↑" d="M153 926q145 133 220.5 230t112.5 183h46q47 -99 121.5 -192t218.5 -222v-77q-201 94 -309 197v-1474h-101v1474q-96 -76 -143.5 -106t-165.5 -89v76z"/>
<glyph glyph-name="arrowright" horiz-adv-x="2048" unicode="→" d="M1555 876q133 -145 230 -220.5t183 -112.5v-45q-99 -48 -192 -122.5t-222 -218.5h-77q94 201 197 309h-1595v101h1595q-76 97 -106 144t-89 165h76z"/>
<glyph glyph-name="arrowdown" horiz-adv-x="1024" unicode="↓" d="M153 -16v76q119 -59 166 -89t143 -106v1474h101v-1474q108 103 309 197v-77q-144 -129 -218.5 -222t-121.5 -192h-46q-37 86 -112.5 183t-220.5 230z"/>
<glyph glyph-name="partialdiff" d="M737 310q37 48 64.5 128.5t33.5 219.5q-42 35 -102 48t-88 13q-26 0 -59.5 -9.5t-69.5 -40.5q-33 -29 -57 -83.5t-24 -138.5q0 -71 16.5 -114.5t40.5 -66.5q23 -22 49 -29t44 -7q31 0 74.5 18t77.5 62zM1201 837q0 -187 -42 -357t-112 -279q-30 -47 -70.5 -88.5 t-99.5 -73.5q-62 -34 -130 -52t-168 -18q-239 0 -375 128.5t-136 346.5q0 228 131 377.5t327 149.5q90 0 169.5 -23t147.5 -64v10.5v5.5v8v17q0 186 -60.5 257.5t-197.5 71.5q-83 0 -180.5 -35t-176.5 -83h-23v294q76 31 198 60t254 29q173 0 291.5 -63t178.5 -180 q41 -79 57.5 -188t16.5 -251z" unicode="∂"/>
<glyph glyph-name="uni2206" horiz-adv-x="1442" unicode="∆" d="M980 277l-264 788l-265 -788h529zM1448 0h-1454l523 1489h408z"/>
<glyph glyph-name="product" horiz-adv-x="1609" unicode="∏" d="M1434 1489v-1678h-375v1394h-509v-1394h-374v1678h1258z"/>
<glyph glyph-name="summation" horiz-adv-x="1453" unicode="∑" d="M1328 -189h-1202v275l607 584l-597 536v283h1153v-284h-700l531 -470v-132l-536 -508h744v-284z"/>
<glyph glyph-name="minus" horiz-adv-x="1676" unicode="−" d="M1465 528h-1254v258h1254v-258z"/>
<glyph glyph-name="radical" horiz-adv-x="1676" unicode="√" d="M1748 1833l-824 -1984h-174l-349 1006h-300v256h553l249 -711l593 1433h252z"/>
<glyph glyph-name="infinity" horiz-adv-x="2048" unicode="∞" d="M890 711q-47 91 -111.5 136.5t-135.5 45.5q-99 0 -155 -65t-56 -183q0 -100 45 -166t133 -66q79 0 122.5 38.5t83.5 109.5q24 43 38.5 70t35.5 80zM1616 666q0 99 -45 165.5t-133 66.5q-36 0 -66 -9t-57 -29q-22 -17 -41.5 -44t-43.5 -66q-21 -36 -39.5 -75t-33.5 -75 q46 -91 111.5 -136.5t135.5 -45.5q100 0 156 64t56 184zM1878 666q0 -243 -120.5 -384.5t-326.5 -141.5q-133 0 -243.5 72.5t-174.5 217.5q-80 -158 -184.5 -224t-245.5 -66q-190 0 -301.5 142.5t-111.5 362.5q0 244 121.5 385t325.5 141q134 0 244 -72t174 -218 q79 156 184.5 223t245.5 67q190 0 301.5 -142.5t111.5 -362.5z"/>
<glyph glyph-name="intersection" horiz-adv-x="1472" unicode="∩" d="M293 0h-135v621q0 261 7 330q12 125 46 206t108.5 159t184 127t233.5 49q119 0 226.5 -46.5t187.5 -126.5t114.5 -170t45.5 -225q4 -52 4 -303v-621h-134v628q0 227 -6 290q-10 114 -36.5 181.5t-82 126.5t-142 97t-178.5 38t-182 -40t-147.5 -105.5t-80.5 -143.5 t-30 -182q-3 -54 -3 -262v-628z"/>
<glyph glyph-name="approxequal" horiz-adv-x="1676" unicode="≈" d="M1493 611q-1 -243 -98.5 -383.5t-286.5 -140.5q-100 0 -175 34t-152 113q-60 62 -109 96t-94 34q-50 0 -78.5 -18.5t-43.5 -53.5q-15 -36 -19.5 -93t-6.5 -114h-243q0 249 99 386.5t286 137.5q92 0 167 -33t157 -110q68 -64 114.5 -99t91.5 -35q48 0 77.5 18t44.5 54 q15 35 20 83.5t6 123.5h243zM1493 1217q-1 -243 -98.5 -383.5t-286.5 -140.5q-100 0 -175 34t-152 113q-61 63 -109.5 96.5t-93.5 33.5q-50 0 -78.5 -18.5t-43.5 -53.5q-15 -36 -19.5 -93t-6.5 -114h-243q0 249 99 386.5t286 137.5q92 0 167 -33t157 -110q68 -64 114.5 -99 t91.5 -35q48 0 77.5 18t44.5 54q14 36 19.5 84t6.5 123h243z"/>
<glyph glyph-name="notequal" horiz-adv-x="1676" unicode="≠" d="M1452 280h-638l-144 -343h-267l144 343h-323v258h431l102 238h-533v258h638l131 313h270l-133 -313h322v-258h-430l-103 -238h533v-258z"/>
<glyph glyph-name="equivalence" horiz-adv-x="1676" unicode="≡" d="M1465 528h-1254v258h1254v-258zM1465 1024h-1254v258h1254v-258zM1465 32h-1254v258h1254v-258z"/>
<glyph glyph-name="lessequal" horiz-adv-x="1676" unicode="≤" d="M1482 0h-1288v258h1288v-258zM1482 369l-1289 426v240l1289 426v-277l-886 -270l886 -268v-277z"/>
<glyph glyph-name="greaterequal" horiz-adv-x="1676" unicode="≥" d="M1482 0h-1288v258h1288v-258zM1483 795l-1289 -426v277l886 268l-886 270v277l1289 -426v-240z"/>
<glyph glyph-name="lozenge" horiz-adv-x="1676" unicode="◊" d="M1197 664l-359 419l-359 -419l359 -417zM1527 664l-689 -781l-689 781l689 781z"/>
<glyph glyph-name="glyph155" d="M1190 0h-350v875h-356v-875h-350v1123h1056v-1123z" horiz-adv-x="1324"/>
</font>
</defs>
</svg>
